{"glyphs":{"0":{"ha":814,"x_min":0,"x_max":0,"o":"m 407 -14 b 724 475 618 -14 724 148 b 407 977 724 810 618 977 b 90 475 196 977 90 810 b 407 -14 90 148 196 -14 z m 407 68 b 180 475 256 68 180 203 b 407 895 180 755 256 895 b 634 475 558 895 634 755 b 407 68 634 203 558 68 z m 407 396 b 486 475 454 396 486 427 b 407 554 486 522 454 554 b 328 475 359 554 328 522 b 407 396 328 427 359 396 z "},"1":{"ha":814,"x_min":0,"x_max":0,"o":"m 126 0 l 703 0 l 703 83 l 470 83 l 470 963 l 385 963 l 140 882 l 140 794 l 385 873 l 385 83 l 126 83 z "},"2":{"ha":814,"x_min":0,"x_max":0,"o":"m 114 0 l 719 0 l 719 82 l 225 82 l 225 93 b 678 682 524 264 678 459 b 385 977 678 872 575 977 b 83 846 254 977 151 926 l 140 789 b 382 895 209 857 294 895 b 589 682 516 895 589 819 b 114 110 589 476 432 286 z "},"3":{"ha":814,"x_min":0,"x_max":0,"o":"m 349 -14 b 697 249 570 -14 697 82 b 433 505 697 390 592 487 l 433 513 b 677 761 579 546 677 639 b 417 977 677 899 583 977 b 96 853 277 977 178 939 l 157 791 b 406 895 238 863 318 895 b 588 749 522 895 588 842 b 243 524 588 640 461 553 l 254 455 l 279 455 b 608 253 481 455 608 377 b 343 68 608 136 511 68 b 123 102 239 68 177 87 l 113 19 b 349 -14 176 -1 254 -14 z "},"4":{"ha":814,"x_min":0,"x_max":0,"o":"m 60 220 l 546 220 l 546 0 l 633 0 l 633 220 l 749 220 l 749 302 l 633 302 l 633 963 l 546 963 l 546 302 l 163 302 l 274 909 l 186 909 l 61 221 z "},"5":{"ha":814,"x_min":0,"x_max":0,"o":"m 416 -14 b 730 311 616 -14 730 104 b 454 614 730 504 629 614 b 247 555 385 614 316 602 l 257 881 l 669 881 l 669 963 l 173 963 l 161 461 l 224 461 b 433 533 289 509 358 533 b 642 311 566 533 642 452 b 418 68 642 157 560 68 b 191 270 273 68 191 143 l 101 270 b 416 -14 101 90 216 -14 z "},"6":{"ha":814,"x_min":0,"x_max":0,"o":"m 412 -14 b 731 312 618 -14 731 101 b 443 610 731 502 627 610 b 198 453 318 610 227 553 l 191 453 b 652 884 191 728 342 870 l 643 967 b 98 412 275 949 98 765 l 98 325 b 412 -14 98 99 202 -14 z m 419 68 b 188 298 274 68 188 154 b 421 528 188 445 272 528 b 642 312 564 528 642 450 b 419 68 642 154 564 68 z "},"7":{"ha":814,"x_min":0,"x_max":0,"o":"m 351 0 l 443 0 l 763 963 l 78 963 l 78 652 l 165 652 l 165 880 l 643 880 z "},"8":{"ha":814,"x_min":0,"x_max":0,"o":"m 407 -14 b 724 256 609 -14 724 85 b 521 509 724 390 652 479 l 521 516 b 697 741 634 546 697 624 b 407 977 697 890 591 977 b 117 741 222 977 117 890 b 294 515 117 624 180 545 l 294 510 b 90 256 163 479 90 391 b 407 -14 90 85 205 -14 z m 407 68 b 178 262 262 68 178 139 b 407 467 178 391 262 467 b 635 262 552 467 635 391 b 407 68 635 139 552 68 z m 407 551 b 205 714 279 551 205 611 b 407 895 205 829 279 895 b 608 714 534 895 608 829 b 407 551 608 611 534 551 z "},"9":{"ha":814,"x_min":0,"x_max":0,"o":"m 378 343 b 623 500 503 343 593 400 l 630 500 b 169 70 629 225 478 83 l 178 -14 b 723 542 546 5 723 189 l 723 624 b 408 967 723 853 618 967 b 90 642 202 967 90 852 b 378 343 90 452 193 343 z m 399 425 b 178 642 257 425 178 503 b 401 885 178 800 257 885 b 633 655 547 885 633 800 b 399 425 633 509 549 425 z "},"A":{"ha":814,"x_min":0,"x_max":0,"o":"m 41 0 l 130 0 l 210 258 l 604 258 l 684 0 l 772 0 l 469 963 l 345 963 z m 235 340 l 403 889 l 411 889 l 579 340 z "},"Á":{"ha":814,"x_min":0,"x_max":0,"o":"m 41 0 l 130 0 l 210 258 l 604 258 l 684 0 l 772 0 l 469 963 l 345 963 z m 235 340 l 403 889 l 411 889 l 579 340 z m 352 1072 l 455 1072 l 623 1241 l 503 1241 z "},"Ă":{"ha":814,"x_min":0,"x_max":0,"o":"m 41 0 l 130 0 l 210 258 l 604 258 l 684 0 l 772 0 l 469 963 l 345 963 z m 235 340 l 403 889 l 411 889 l 579 340 z m 407 1065 b 652 1261 562 1065 652 1137 l 571 1261 b 407 1134 571 1181 511 1134 b 243 1261 303 1134 243 1181 l 162 1261 b 407 1065 162 1137 252 1065 z "},"Ắ":{"ha":814,"x_min":0,"x_max":0,"o":"m 41 0 l 130 0 l 210 258 l 604 258 l 684 0 l 772 0 l 469 963 l 345 963 z m 235 340 l 403 889 l 411 889 l 579 340 z m 407 1065 b 652 1261 562 1065 652 1137 l 571 1261 b 407 1134 571 1181 511 1134 b 243 1261 303 1134 243 1181 l 162 1261 b 407 1065 162 1137 252 1065 z m 352 1343 l 455 1343 l 623 1512 l 503 1512 z "},"Ặ":{"ha":814,"x_min":0,"x_max":0,"o":"m 41 0 l 130 0 l 210 258 l 604 258 l 684 0 l 772 0 l 469 963 l 345 963 z m 235 340 l 403 889 l 411 889 l 579 340 z m 407 1065 b 652 1261 562 1065 652 1137 l 571 1261 b 407 1134 571 1181 511 1134 b 243 1261 303 1134 243 1181 l 162 1261 b 407 1065 162 1137 252 1065 z m 407 -269 b 482 -195 448 -269 482 -236 b 407 -119 482 -153 448 -119 b 332 -195 366 -119 332 -153 b 407 -269 332 -236 366 -269 z "},"Ằ":{"ha":814,"x_min":0,"x_max":0,"o":"m 41 0 l 130 0 l 210 258 l 604 258 l 684 0 l 772 0 l 469 963 l 345 963 z m 235 340 l 403 889 l 411 889 l 579 340 z m 407 1065 b 652 1261 562 1065 652 1137 l 571 1261 b 407 1134 571 1181 511 1134 b 243 1261 303 1134 243 1181 l 162 1261 b 407 1065 162 1137 252 1065 z m 361 1343 l 465 1343 l 313 1512 l 194 1512 z "},"Ẳ":{"ha":814,"x_min":0,"x_max":0,"o":"m 41 0 l 130 0 l 210 258 l 604 258 l 684 0 l 772 0 l 469 963 l 345 963 z m 235 340 l 403 889 l 411 889 l 579 340 z m 407 1065 b 652 1261 562 1065 652 1137 l 571 1261 b 407 1134 571 1181 511 1134 b 243 1261 303 1134 243 1181 l 162 1261 b 407 1065 162 1137 252 1065 z m 374 1308 l 452 1308 b 472 1337 452 1320 460 1329 b 557 1457 537 1375 557 1409 b 417 1563 557 1527 511 1563 b 250 1512 344 1563 285 1545 l 283 1453 b 403 1489 315 1477 357 1489 b 476 1443 452 1489 476 1473 b 421 1380 476 1421 460 1404 b 374 1322 391 1360 374 1345 z "},"Ẵ":{"ha":814,"x_min":0,"x_max":0,"o":"m 41 0 l 130 0 l 210 258 l 604 258 l 684 0 l 772 0 l 469 963 l 345 963 z m 235 340 l 403 889 l 411 889 l 579 340 z m 161 1333 l 241 1333 l 241 1388 b 301 1461 241 1437 261 1461 b 408 1413 327 1461 363 1443 b 549 1356 465 1375 511 1356 b 667 1510 627 1356 667 1407 l 667 1553 l 587 1553 l 587 1503 b 540 1432 587 1455 571 1432 b 429 1484 513 1432 479 1450 b 293 1537 376 1519 332 1537 b 161 1381 205 1537 161 1485 z m 407 1065 b 652 1261 562 1065 652 1137 l 571 1261 b 407 1134 571 1181 511 1134 b 243 1261 303 1134 243 1181 l 162 1261 b 407 1065 162 1137 252 1065 z "},"Ǎ":{"ha":814,"x_min":0,"x_max":0,"o":"m 41 0 l 130 0 l 210 258 l 604 258 l 684 0 l 772 0 l 469 963 l 345 963 z m 235 340 l 403 889 l 411 889 l 579 340 z m 369 1072 l 445 1072 l 633 1248 l 525 1248 l 407 1133 l 289 1248 l 181 1248 z "},"Â":{"ha":814,"x_min":0,"x_max":0,"o":"m 41 0 l 130 0 l 210 258 l 604 258 l 684 0 l 772 0 l 469 963 l 345 963 z m 235 340 l 403 889 l 411 889 l 579 340 z m 182 1072 l 290 1072 l 408 1188 l 526 1072 l 634 1072 l 446 1248 l 370 1248 z "},"Ấ":{"ha":814,"x_min":0,"x_max":0,"o":"m 41 0 l 130 0 l 210 258 l 604 258 l 684 0 l 772 0 l 469 963 l 345 963 z m 235 340 l 403 889 l 411 889 l 579 340 z m 182 1072 l 290 1072 l 408 1188 l 526 1072 l 634 1072 l 446 1248 l 370 1248 z m 561 1240 l 664 1240 l 831 1409 l 712 1409 z "},"Ậ":{"ha":814,"x_min":0,"x_max":0,"o":"m 41 0 l 130 0 l 210 258 l 604 258 l 684 0 l 772 0 l 469 963 l 345 963 z m 235 340 l 403 889 l 411 889 l 579 340 z m 182 1072 l 290 1072 l 408 1188 l 526 1072 l 634 1072 l 446 1248 l 370 1248 z m 407 -269 b 482 -195 448 -269 482 -236 b 407 -119 482 -153 448 -119 b 332 -195 366 -119 332 -153 b 407 -269 332 -236 366 -269 z "},"Ầ":{"ha":814,"x_min":0,"x_max":0,"o":"m 41 0 l 130 0 l 210 258 l 604 258 l 684 0 l 772 0 l 469 963 l 345 963 z m 235 340 l 403 889 l 411 889 l 579 340 z m 182 1072 l 290 1072 l 408 1188 l 526 1072 l 634 1072 l 446 1248 l 370 1248 z m 570 1240 l 673 1240 l 522 1409 l 403 1409 z "},"Ẩ":{"ha":814,"x_min":0,"x_max":0,"o":"m 41 0 l 130 0 l 210 258 l 604 258 l 684 0 l 772 0 l 469 963 l 345 963 z m 235 340 l 403 889 l 411 889 l 579 340 z m 583 1205 l 661 1205 b 681 1234 661 1217 669 1226 b 766 1354 746 1272 766 1306 b 626 1459 766 1424 720 1459 b 459 1409 553 1459 494 1442 l 492 1350 b 612 1386 524 1374 566 1386 b 685 1340 661 1386 685 1370 b 630 1277 685 1318 669 1301 b 583 1219 600 1257 583 1242 z m 182 1072 l 290 1072 l 408 1188 l 526 1072 l 634 1072 l 446 1248 l 370 1248 z "},"Ẫ":{"ha":814,"x_min":0,"x_max":0,"o":"m 41 0 l 130 0 l 210 258 l 604 258 l 684 0 l 772 0 l 469 963 l 345 963 z m 235 340 l 403 889 l 411 889 l 579 340 z m 161 1320 l 241 1320 l 241 1374 b 301 1447 241 1423 261 1447 b 408 1400 327 1447 363 1430 b 549 1343 465 1362 511 1343 b 667 1497 627 1343 667 1394 l 667 1539 l 587 1539 l 587 1490 b 540 1419 587 1442 571 1419 b 429 1470 513 1419 479 1436 b 293 1523 376 1506 332 1523 b 161 1367 205 1523 161 1472 z m 182 1072 l 290 1072 l 408 1188 l 526 1072 l 634 1072 l 446 1248 l 370 1248 z "},"Ä":{"ha":814,"x_min":0,"x_max":0,"o":"m 41 0 l 130 0 l 210 258 l 604 258 l 684 0 l 772 0 l 469 963 l 345 963 z m 235 340 l 403 889 l 411 889 l 579 340 z m 266 1087 b 341 1162 307 1087 341 1120 b 266 1238 341 1204 307 1238 b 191 1162 224 1238 191 1204 b 266 1087 191 1120 224 1087 z m 548 1087 b 623 1162 589 1087 623 1120 b 548 1238 623 1204 589 1238 b 473 1162 507 1238 473 1204 b 548 1087 473 1120 507 1087 z "},"Ạ":{"ha":814,"x_min":0,"x_max":0,"o":"m 41 0 l 130 0 l 210 258 l 604 258 l 684 0 l 772 0 l 469 963 l 345 963 z m 235 340 l 403 889 l 411 889 l 579 340 z m 407 -269 b 482 -195 448 -269 482 -236 b 407 -119 482 -153 448 -119 b 332 -195 366 -119 332 -153 b 407 -269 332 -236 366 -269 z "},"À":{"ha":814,"x_min":0,"x_max":0,"o":"m 41 0 l 130 0 l 210 258 l 604 258 l 684 0 l 772 0 l 469 963 l 345 963 z m 235 340 l 403 889 l 411 889 l 579 340 z m 361 1072 l 465 1072 l 313 1241 l 194 1241 z "},"Ả":{"ha":814,"x_min":0,"x_max":0,"o":"m 41 0 l 130 0 l 210 258 l 604 258 l 684 0 l 772 0 l 469 963 l 345 963 z m 235 340 l 403 889 l 411 889 l 579 340 z m 374 1037 l 452 1037 b 472 1065 452 1048 460 1058 b 557 1185 537 1104 557 1138 b 417 1291 557 1256 511 1291 b 250 1240 344 1291 285 1274 l 283 1182 b 403 1218 315 1206 357 1218 b 476 1172 452 1218 476 1202 b 421 1109 476 1150 460 1133 b 374 1051 391 1089 374 1074 z "},"Ɑ":{"ha":814,"x_min":0,"x_max":0,"o":"m 371 -18 b 572 129 487 -18 553 36 l 582 129 l 584 -9 l 776 0 l 776 66 l 659 81 l 659 963 l 573 963 l 573 829 l 566 829 b 371 977 549 925 487 977 b 66 470 173 977 66 800 b 371 -18 66 151 170 -18 z m 573 380 b 383 64 573 161 517 64 b 155 470 233 64 155 203 b 383 895 155 746 234 895 b 573 593 508 895 573 792 z "},"Ā":{"ha":814,"x_min":0,"x_max":0,"o":"m 41 0 l 130 0 l 210 258 l 604 258 l 684 0 l 772 0 l 469 963 l 345 963 z m 235 340 l 403 889 l 411 889 l 579 340 z m 144 1094 l 669 1094 l 669 1177 l 144 1177 z "},"Ą":{"ha":814,"x_min":0,"x_max":0,"o":"m 688 -288 b 751 -283 706 -288 730 -286 l 758 -209 b 706 -212 739 -210 720 -212 b 623 -153 651 -212 623 -191 b 772 0 623 -95 667 -51 l 772 0 l 469 963 l 345 963 l 41 0 l 130 0 l 210 258 l 604 258 l 684 0 b 548 -166 589 -54 548 -100 b 688 -288 548 -245 596 -288 z m 235 340 l 403 889 l 411 889 l 579 340 z "},"Å":{"ha":814,"x_min":0,"x_max":0,"o":"m 41 0 l 130 0 l 210 258 l 604 258 l 684 0 l 772 0 l 469 963 l 345 963 z m 235 340 l 403 889 l 411 889 l 579 340 z m 407 1009 b 559 1149 500 1009 559 1063 b 407 1289 559 1234 500 1289 b 254 1149 313 1289 254 1234 b 407 1009 254 1063 313 1009 z m 407 1069 b 321 1149 354 1069 321 1101 b 407 1228 321 1197 354 1228 b 493 1149 460 1228 493 1197 b 407 1069 493 1101 460 1069 z "},"Ǻ":{"ha":814,"x_min":0,"x_max":0,"o":"m 41 0 l 130 0 l 210 258 l 604 258 l 684 0 l 772 0 l 469 963 l 345 963 z m 235 340 l 403 889 l 411 889 l 579 340 z m 407 1009 b 559 1149 500 1009 559 1063 b 445 1285 559 1222 516 1272 l 566 1407 l 446 1407 l 324 1271 b 254 1149 280 1248 254 1205 b 407 1009 254 1063 313 1009 z m 407 1069 b 321 1149 354 1069 321 1101 b 407 1228 321 1197 354 1228 b 493 1149 460 1228 493 1197 b 407 1069 493 1101 460 1069 z "},"Ⱥ":{"ha":814,"x_min":0,"x_max":0,"o":"m 334 -224 l 425 258 l 604 258 l 684 0 l 772 0 l 525 785 l 593 1147 l 519 1160 l 477 937 l 469 963 l 345 963 l 41 0 l 130 0 l 210 258 l 351 258 l 264 -211 z m 367 340 l 235 340 l 403 889 l 411 889 l 447 772 z m 494 620 l 579 340 l 440 340 z "},"Ã":{"ha":814,"x_min":0,"x_max":0,"o":"m 41 0 l 130 0 l 210 258 l 604 258 l 684 0 l 772 0 l 469 963 l 345 963 z m 235 340 l 403 889 l 411 889 l 579 340 z m 161 1062 l 241 1062 l 241 1116 b 301 1190 241 1166 261 1190 b 408 1142 327 1190 363 1172 b 549 1085 465 1104 511 1085 b 667 1239 627 1085 667 1136 l 667 1282 l 587 1282 l 587 1232 b 540 1161 587 1184 571 1161 b 429 1213 513 1161 479 1179 b 293 1265 376 1248 332 1265 b 161 1109 205 1265 161 1214 z "},"Æ":{"ha":814,"x_min":0,"x_max":0,"o":"m 40 0 l 121 0 l 182 183 l 425 183 l 425 0 l 734 0 l 734 83 l 507 83 l 507 441 l 694 441 l 694 524 l 507 524 l 507 880 l 734 880 l 734 963 l 356 963 z m 208 262 l 414 884 l 425 884 l 425 262 z "},"Ǽ":{"ha":814,"x_min":0,"x_max":0,"o":"m 40 0 l 121 0 l 182 183 l 425 183 l 425 0 l 734 0 l 734 83 l 507 83 l 507 441 l 694 441 l 694 524 l 507 524 l 507 880 l 734 880 l 734 963 l 356 963 z m 208 262 l 414 884 l 425 884 l 425 262 z m 379 1072 l 482 1072 l 650 1241 l 530 1241 z "},"B":{"ha":814,"x_min":0,"x_max":0,"o":"m 119 0 l 459 0 b 758 260 650 0 758 94 b 475 508 758 415 656 505 l 475 515 b 690 724 613 525 690 600 b 395 963 690 876 583 963 l 119 963 z m 205 83 l 205 467 l 447 467 b 669 267 588 467 669 394 b 447 83 669 150 588 83 z m 205 550 l 205 880 l 397 880 b 602 719 527 880 602 822 b 397 550 602 612 527 550 z "},"C":{"ha":814,"x_min":0,"x_max":0,"o":"m 503 -14 b 740 33 585 -14 664 1 l 718 113 b 517 68 652 83 586 68 b 155 490 276 68 155 209 b 488 895 155 748 286 895 b 694 791 572 895 648 857 l 757 855 b 486 977 713 932 614 977 b 64 483 218 977 64 796 b 503 -14 64 152 212 -14 z "},"Ć":{"ha":814,"x_min":0,"x_max":0,"o":"m 503 -14 b 740 33 585 -14 664 1 l 718 113 b 517 68 652 83 586 68 b 155 490 276 68 155 209 b 488 895 155 748 286 895 b 694 791 572 895 648 857 l 757 855 b 486 977 713 932 614 977 b 64 483 218 977 64 796 b 503 -14 64 152 212 -14 z m 416 1072 l 519 1072 l 687 1241 l 568 1241 z "},"Č":{"ha":814,"x_min":0,"x_max":0,"o":"m 503 -14 b 740 33 585 -14 664 1 l 718 113 b 517 68 652 83 586 68 b 155 490 276 68 155 209 b 488 895 155 748 286 895 b 694 791 572 895 648 857 l 757 855 b 486 977 713 932 614 977 b 64 483 218 977 64 796 b 503 -14 64 152 212 -14 z m 433 1072 l 509 1072 l 697 1248 l 589 1248 l 471 1133 l 353 1248 l 245 1248 z "},"Ç":{"ha":814,"x_min":0,"x_max":0,"o":"m 503 -14 b 740 33 585 -14 664 1 l 718 113 b 517 68 652 83 586 68 b 155 490 276 68 155 209 b 488 895 155 748 286 895 b 694 791 572 895 648 857 l 757 855 b 486 977 713 932 614 977 b 64 483 218 977 64 796 b 413 -7 64 188 181 24 l 371 -119 b 507 -184 466 -119 507 -139 b 351 -255 507 -233 459 -255 l 351 -326 b 589 -186 515 -326 589 -282 b 463 -73 589 -122 551 -82 l 481 -14 b 503 -14 488 -14 496 -14 z "},"Ĉ":{"ha":814,"x_min":0,"x_max":0,"o":"m 503 -14 b 740 33 585 -14 664 1 l 718 113 b 517 68 652 83 586 68 b 155 490 276 68 155 209 b 488 895 155 748 286 895 b 694 791 572 895 648 857 l 757 855 b 486 977 713 932 614 977 b 64 483 218 977 64 796 b 503 -14 64 152 212 -14 z m 247 1072 l 355 1072 l 473 1188 l 591 1072 l 699 1072 l 511 1248 l 435 1248 z "},"Ċ":{"ha":814,"x_min":0,"x_max":0,"o":"m 503 -14 b 740 33 585 -14 664 1 l 718 113 b 517 68 652 83 586 68 b 155 490 276 68 155 209 b 488 895 155 748 286 895 b 694 791 572 895 648 857 l 757 855 b 486 977 713 932 614 977 b 64 483 218 977 64 796 b 503 -14 64 152 212 -14 z m 471 1087 b 547 1162 513 1087 547 1121 b 471 1238 547 1204 513 1238 b 396 1162 430 1238 396 1204 b 471 1087 396 1121 430 1087 z "},"Ȼ":{"ha":814,"x_min":0,"x_max":0,"o":"m 368 -224 l 409 -7 b 503 -14 439 -12 469 -14 b 740 33 585 -14 664 1 l 718 113 b 517 68 652 83 586 68 b 425 77 484 68 454 71 l 577 879 b 694 791 625 863 665 832 l 757 855 b 593 965 726 909 669 947 l 628 1147 l 553 1160 l 519 976 b 486 977 509 977 497 977 b 64 483 218 977 64 796 b 339 8 64 221 157 63 l 298 -211 z m 355 96 b 155 490 222 149 155 281 b 488 895 155 748 286 895 b 504 894 493 895 498 895 z "},"D":{"ha":814,"x_min":0,"x_max":0,"o":"m 101 0 l 323 0 b 753 468 611 0 753 155 b 323 963 753 799 611 963 l 101 963 z m 187 83 l 187 880 l 323 880 b 665 468 551 880 665 743 b 323 83 665 211 551 83 z "},"Ð":{"ha":814,"x_min":0,"x_max":0,"o":"m 8 438 l 101 438 l 101 0 l 323 0 b 753 468 611 0 753 155 b 323 963 753 799 611 963 l 101 963 l 101 521 l 8 521 z m 187 83 l 187 438 l 441 438 l 441 521 l 187 521 l 187 880 l 323 880 b 665 468 551 880 665 743 b 323 83 665 211 551 83 z "},"Ď":{"ha":814,"x_min":0,"x_max":0,"o":"m 101 0 l 323 0 b 753 468 611 0 753 155 b 323 963 753 799 611 963 l 101 963 z m 187 83 l 187 880 l 323 880 b 665 468 551 880 665 743 b 323 83 665 211 551 83 z m 326 1072 l 402 1072 l 590 1248 l 482 1248 l 364 1133 l 246 1248 l 138 1248 z "},"Đ":{"ha":814,"x_min":0,"x_max":0,"o":"m 101 0 l 323 0 b 753 468 611 0 753 155 b 323 963 753 799 611 963 l 101 963 l 101 521 l 8 521 l 8 438 l 101 438 z m 187 83 l 187 438 l 441 438 l 441 521 l 187 521 l 187 880 l 323 880 b 665 468 551 880 665 743 b 323 83 665 211 551 83 z "},"E":{"ha":814,"x_min":0,"x_max":0,"o":"m 119 0 l 735 0 l 735 83 l 205 83 l 205 441 l 613 441 l 613 524 l 205 524 l 205 880 l 735 880 l 735 963 l 119 963 z "},"É":{"ha":814,"x_min":0,"x_max":0,"o":"m 119 0 l 735 0 l 735 83 l 205 83 l 205 441 l 613 441 l 613 524 l 205 524 l 205 880 l 735 880 l 735 963 l 119 963 z m 372 1072 l 475 1072 l 643 1241 l 524 1241 z "},"Ĕ":{"ha":814,"x_min":0,"x_max":0,"o":"m 119 0 l 735 0 l 735 83 l 205 83 l 205 441 l 613 441 l 613 524 l 205 524 l 205 880 l 735 880 l 735 963 l 119 963 z m 427 1065 b 672 1261 582 1065 672 1137 l 591 1261 b 427 1134 591 1181 531 1134 b 263 1261 323 1134 263 1181 l 182 1261 b 427 1065 182 1137 273 1065 z "},"Ě":{"ha":814,"x_min":0,"x_max":0,"o":"m 119 0 l 735 0 l 735 83 l 205 83 l 205 441 l 613 441 l 613 524 l 205 524 l 205 880 l 735 880 l 735 963 l 119 963 z m 389 1072 l 465 1072 l 653 1248 l 545 1248 l 427 1133 l 309 1248 l 201 1248 z "},"Ê":{"ha":814,"x_min":0,"x_max":0,"o":"m 119 0 l 735 0 l 735 83 l 205 83 l 205 441 l 613 441 l 613 524 l 205 524 l 205 880 l 735 880 l 735 963 l 119 963 z m 203 1072 l 311 1072 l 429 1188 l 547 1072 l 654 1072 l 467 1248 l 391 1248 z "},"Ế":{"ha":814,"x_min":0,"x_max":0,"o":"m 119 0 l 735 0 l 735 83 l 205 83 l 205 441 l 613 441 l 613 524 l 205 524 l 205 880 l 735 880 l 735 963 l 119 963 z m 203 1072 l 311 1072 l 429 1188 l 547 1072 l 654 1072 l 467 1248 l 391 1248 z m 581 1240 l 684 1240 l 852 1409 l 732 1409 z "},"Ệ":{"ha":814,"x_min":0,"x_max":0,"o":"m 119 0 l 735 0 l 735 83 l 205 83 l 205 441 l 613 441 l 613 524 l 205 524 l 205 880 l 735 880 l 735 963 l 119 963 z m 203 1072 l 311 1072 l 429 1188 l 547 1072 l 654 1072 l 467 1248 l 391 1248 z m 427 -269 b 503 -195 469 -269 503 -236 b 427 -119 503 -153 469 -119 b 352 -195 386 -119 352 -153 b 427 -269 352 -236 386 -269 z "},"Ề":{"ha":814,"x_min":0,"x_max":0,"o":"m 119 0 l 735 0 l 735 83 l 205 83 l 205 441 l 613 441 l 613 524 l 205 524 l 205 880 l 735 880 l 735 963 l 119 963 z m 203 1072 l 311 1072 l 429 1188 l 547 1072 l 654 1072 l 467 1248 l 391 1248 z m 591 1240 l 694 1240 l 543 1409 l 423 1409 z "},"Ể":{"ha":814,"x_min":0,"x_max":0,"o":"m 119 0 l 735 0 l 735 83 l 205 83 l 205 441 l 613 441 l 613 524 l 205 524 l 205 880 l 735 880 l 735 963 l 119 963 z m 603 1205 l 682 1205 b 701 1234 682 1217 689 1226 b 787 1354 766 1272 787 1306 b 646 1459 787 1424 740 1459 b 479 1409 573 1459 514 1442 l 512 1350 b 632 1386 544 1374 586 1386 b 705 1340 682 1386 705 1370 b 650 1277 705 1318 690 1301 b 603 1219 620 1257 603 1242 z m 203 1072 l 311 1072 l 429 1188 l 547 1072 l 654 1072 l 467 1248 l 391 1248 z "},"Ễ":{"ha":814,"x_min":0,"x_max":0,"o":"m 119 0 l 735 0 l 735 83 l 205 83 l 205 441 l 613 441 l 613 524 l 205 524 l 205 880 l 735 880 l 735 963 l 119 963 z m 182 1320 l 262 1320 l 262 1374 b 321 1447 262 1423 281 1447 b 428 1400 347 1447 383 1430 b 570 1343 485 1362 531 1343 b 687 1497 648 1343 687 1394 l 687 1539 l 608 1539 l 608 1490 b 560 1419 608 1442 591 1419 b 449 1470 534 1419 499 1436 b 313 1523 396 1506 353 1523 b 182 1367 226 1523 182 1472 z m 203 1072 l 311 1072 l 429 1188 l 547 1072 l 654 1072 l 467 1248 l 391 1248 z "},"Ë":{"ha":814,"x_min":0,"x_max":0,"o":"m 119 0 l 735 0 l 735 83 l 205 83 l 205 441 l 613 441 l 613 524 l 205 524 l 205 880 l 735 880 l 735 963 l 119 963 z m 286 1087 b 361 1162 328 1087 361 1120 b 286 1238 361 1204 328 1238 b 211 1162 245 1238 211 1204 b 286 1087 211 1120 245 1087 z m 568 1087 b 644 1162 610 1087 644 1120 b 568 1238 644 1204 610 1238 b 493 1162 527 1238 493 1204 b 568 1087 493 1120 527 1087 z "},"Ė":{"ha":814,"x_min":0,"x_max":0,"o":"m 119 0 l 735 0 l 735 83 l 205 83 l 205 441 l 613 441 l 613 524 l 205 524 l 205 880 l 735 880 l 735 963 l 119 963 z m 427 1087 b 503 1162 469 1087 503 1121 b 427 1238 503 1204 469 1238 b 352 1162 386 1238 352 1204 b 427 1087 352 1121 386 1087 z "},"Ẹ":{"ha":814,"x_min":0,"x_max":0,"o":"m 119 0 l 735 0 l 735 83 l 205 83 l 205 441 l 613 441 l 613 524 l 205 524 l 205 880 l 735 880 l 735 963 l 119 963 z m 427 -269 b 503 -195 469 -269 503 -236 b 427 -119 503 -153 469 -119 b 352 -195 386 -119 352 -153 b 427 -269 352 -236 386 -269 z "},"È":{"ha":814,"x_min":0,"x_max":0,"o":"m 119 0 l 735 0 l 735 83 l 205 83 l 205 441 l 613 441 l 613 524 l 205 524 l 205 880 l 735 880 l 735 963 l 119 963 z m 382 1072 l 485 1072 l 334 1241 l 214 1241 z "},"Ẻ":{"ha":814,"x_min":0,"x_max":0,"o":"m 119 0 l 735 0 l 735 83 l 205 83 l 205 441 l 613 441 l 613 524 l 205 524 l 205 880 l 735 880 l 735 963 l 119 963 z m 394 1037 l 473 1037 b 492 1065 473 1048 480 1058 b 578 1185 557 1104 578 1138 b 437 1291 578 1256 531 1291 b 271 1240 364 1291 305 1274 l 303 1182 b 423 1218 335 1206 377 1218 b 496 1172 473 1218 496 1202 b 441 1109 496 1150 481 1133 b 394 1051 411 1089 394 1074 z "},"Ē":{"ha":814,"x_min":0,"x_max":0,"o":"m 119 0 l 735 0 l 735 83 l 205 83 l 205 441 l 613 441 l 613 524 l 205 524 l 205 880 l 735 880 l 735 963 l 119 963 z m 165 1094 l 690 1094 l 690 1177 l 165 1177 z "},"Ę":{"ha":814,"x_min":0,"x_max":0,"o":"m 651 -288 b 714 -281 669 -288 692 -286 l 721 -208 b 669 -212 702 -210 684 -212 b 568 -132 604 -212 568 -183 b 734 0 568 -53 629 0 l 735 0 l 735 83 l 205 83 l 205 441 l 613 441 l 613 524 l 205 524 l 205 880 l 735 880 l 735 963 l 119 963 l 119 0 l 574 0 l 574 -9 b 493 -146 522 -36 493 -86 b 651 -288 493 -236 551 -288 z "},"Ɛ":{"ha":814,"x_min":0,"x_max":0,"o":"m 463 977 b 136 741 247 977 136 888 b 359 517 136 627 199 540 l 359 510 b 98 249 222 503 98 414 b 457 -14 98 90 236 -14 b 735 33 587 -14 652 -3 l 714 112 b 454 68 616 78 564 68 b 186 263 287 68 186 142 b 452 465 186 393 293 465 l 553 465 l 568 547 b 223 718 321 555 223 606 b 464 895 223 827 306 895 b 693 801 559 895 642 856 l 754 867 b 463 977 703 932 600 977 z "},"Ǝ":{"ha":814,"x_min":0,"x_max":0,"o":"m 694 0 l 694 963 l 79 963 l 79 880 l 608 880 l 608 524 l 201 524 l 201 441 l 608 441 l 608 83 l 79 83 l 79 0 z "},"Ʃ":{"ha":814,"x_min":0,"x_max":0,"o":"m 113 0 l 715 0 l 715 81 l 221 81 l 556 484 l 225 880 l 701 880 l 701 963 l 113 963 l 113 880 l 441 484 l 113 81 z "},"Ẽ":{"ha":814,"x_min":0,"x_max":0,"o":"m 119 0 l 735 0 l 735 83 l 205 83 l 205 441 l 613 441 l 613 524 l 205 524 l 205 880 l 735 880 l 735 963 l 119 963 z m 182 1062 l 262 1062 l 262 1116 b 321 1190 262 1166 281 1190 b 428 1142 347 1190 383 1172 b 570 1085 485 1104 531 1085 b 687 1239 648 1085 687 1136 l 687 1282 l 608 1282 l 608 1232 b 560 1161 608 1184 591 1161 b 449 1213 534 1161 499 1179 b 313 1265 396 1248 353 1265 b 182 1109 226 1265 182 1214 z "},"Ʒ":{"ha":814,"x_min":0,"x_max":0,"o":"m 382 -14 b 723 266 596 -14 723 91 b 347 545 723 439 595 534 l 678 871 l 678 963 l 121 963 l 121 881 l 576 881 l 218 526 l 229 470 l 303 470 b 634 266 522 470 634 400 b 385 70 634 142 543 70 b 124 165 277 70 214 96 l 61 102 b 382 -14 144 25 249 -14 z "},"F":{"ha":814,"x_min":0,"x_max":0,"o":"m 133 0 l 219 0 l 219 400 l 645 400 l 645 483 l 219 483 l 219 880 l 749 880 l 749 963 l 133 963 z "},"G":{"ha":814,"x_min":0,"x_max":0,"o":"m 471 -14 b 724 27 589 -14 686 15 l 724 459 l 409 459 l 409 376 l 640 376 l 640 91 b 488 68 600 80 549 68 b 141 490 264 68 141 218 b 474 895 141 747 263 895 b 681 802 557 895 632 861 l 745 866 b 466 977 694 937 593 977 b 51 483 203 977 51 797 b 471 -14 51 162 200 -14 z "},"Ğ":{"ha":814,"x_min":0,"x_max":0,"o":"m 471 -14 b 724 27 589 -14 686 15 l 724 459 l 409 459 l 409 376 l 640 376 l 640 91 b 488 68 600 80 549 68 b 141 490 264 68 141 218 b 474 895 141 747 263 895 b 681 802 557 895 632 861 l 745 866 b 466 977 694 937 593 977 b 51 483 203 977 51 797 b 471 -14 51 162 200 -14 z m 458 1065 b 703 1261 612 1065 703 1137 l 622 1261 b 458 1134 622 1181 562 1134 b 294 1261 354 1134 294 1181 l 213 1261 b 458 1065 213 1137 303 1065 z "},"Ǧ":{"ha":814,"x_min":0,"x_max":0,"o":"m 471 -14 b 724 27 589 -14 686 15 l 724 459 l 409 459 l 409 376 l 640 376 l 640 91 b 488 68 600 80 549 68 b 141 490 264 68 141 218 b 474 895 141 747 263 895 b 681 802 557 895 632 861 l 745 866 b 466 977 694 937 593 977 b 51 483 203 977 51 797 b 471 -14 51 162 200 -14 z m 420 1072 l 496 1072 l 684 1248 l 576 1248 l 458 1133 l 340 1248 l 232 1248 z "},"Ĝ":{"ha":814,"x_min":0,"x_max":0,"o":"m 471 -14 b 724 27 589 -14 686 15 l 724 459 l 409 459 l 409 376 l 640 376 l 640 91 b 488 68 600 80 549 68 b 141 490 264 68 141 218 b 474 895 141 747 263 895 b 681 802 557 895 632 861 l 745 866 b 466 977 694 937 593 977 b 51 483 203 977 51 797 b 471 -14 51 162 200 -14 z m 233 1072 l 341 1072 l 459 1188 l 577 1072 l 685 1072 l 497 1248 l 421 1248 z "},"Ģ":{"ha":814,"x_min":0,"x_max":0,"o":"m 471 -14 b 724 27 589 -14 686 15 l 724 459 l 409 459 l 409 376 l 640 376 l 640 91 b 488 68 600 80 549 68 b 141 490 264 68 141 218 b 474 895 141 747 263 895 b 681 802 557 895 632 861 l 745 866 b 466 977 694 937 593 977 b 51 483 203 977 51 797 b 471 -14 51 162 200 -14 z m 374 -326 l 456 -326 l 519 -95 l 425 -95 z "},"Ġ":{"ha":814,"x_min":0,"x_max":0,"o":"m 471 -14 b 724 27 589 -14 686 15 l 724 459 l 409 459 l 409 376 l 640 376 l 640 91 b 488 68 600 80 549 68 b 141 490 264 68 141 218 b 474 895 141 747 263 895 b 681 802 557 895 632 861 l 745 866 b 466 977 694 937 593 977 b 51 483 203 977 51 797 b 471 -14 51 162 200 -14 z m 458 1087 b 533 1162 499 1087 533 1121 b 458 1238 533 1204 499 1238 b 382 1162 416 1238 382 1204 b 458 1087 382 1121 416 1087 z "},"Ǥ":{"ha":814,"x_min":0,"x_max":0,"o":"m 471 -14 b 710 27 583 -14 674 15 l 710 275 l 814 275 l 814 358 l 710 358 l 710 459 l 627 459 l 627 358 l 429 358 l 429 275 l 627 275 l 627 90 b 488 68 590 79 543 68 b 141 490 264 68 141 218 b 474 895 141 747 263 895 b 681 802 557 895 632 861 l 745 866 b 466 977 694 937 593 977 b 51 483 203 977 51 797 b 471 -14 51 162 200 -14 z "},"H":{"ha":814,"x_min":0,"x_max":0,"o":"m 622 0 l 708 0 l 708 963 l 622 963 l 622 521 l 192 521 l 192 963 l 106 963 l 106 0 l 192 0 l 192 438 l 622 438 z "},"Ħ":{"ha":814,"x_min":0,"x_max":0,"o":"m 28 703 l 106 703 l 106 0 l 192 0 l 192 438 l 622 438 l 622 0 l 708 0 l 708 703 l 785 703 l 785 785 l 708 785 l 708 963 l 622 963 l 622 785 l 192 785 l 192 963 l 106 963 l 106 785 l 28 785 z m 192 521 l 192 703 l 622 703 l 622 521 z "},"Ȟ":{"ha":814,"x_min":0,"x_max":0,"o":"m 622 0 l 708 0 l 708 963 l 622 963 l 622 521 l 192 521 l 192 963 l 106 963 l 106 0 l 192 0 l 192 438 l 622 438 z m 369 1072 l 445 1072 l 633 1248 l 525 1248 l 407 1133 l 289 1248 l 181 1248 z "},"Ĥ":{"ha":814,"x_min":0,"x_max":0,"o":"m 622 0 l 708 0 l 708 963 l 622 963 l 622 521 l 192 521 l 192 963 l 106 963 l 106 0 l 192 0 l 192 438 l 622 438 z m 182 1072 l 290 1072 l 408 1188 l 526 1072 l 634 1072 l 446 1248 l 370 1248 z "},"Ḥ":{"ha":814,"x_min":0,"x_max":0,"o":"m 622 0 l 708 0 l 708 963 l 622 963 l 622 521 l 192 521 l 192 963 l 106 963 l 106 0 l 192 0 l 192 438 l 622 438 z m 407 -269 b 482 -195 448 -269 482 -236 b 407 -119 482 -153 448 -119 b 332 -195 366 -119 332 -153 b 407 -269 332 -236 366 -269 z "},"I":{"ha":814,"x_min":0,"x_max":0,"o":"m 125 0 l 689 0 l 689 83 l 449 83 l 449 880 l 689 880 l 689 963 l 125 963 l 125 880 l 363 880 l 363 83 l 125 83 z "},"Ĳ":{"ha":814,"x_min":0,"x_max":0,"o":"m 444 -14 b 723 277 625 -14 723 90 l 723 963 l 468 963 l 468 880 l 637 880 l 637 277 b 448 68 637 142 570 68 b 264 250 330 68 264 133 l 178 250 b 444 -14 178 80 271 -14 z m 37 346 l 406 346 l 406 429 l 263 429 l 263 880 l 393 880 l 393 963 l 37 963 l 37 880 l 179 880 l 179 429 l 37 429 z "},"Í":{"ha":814,"x_min":0,"x_max":0,"o":"m 125 0 l 689 0 l 689 83 l 449 83 l 449 880 l 689 880 l 689 963 l 125 963 l 125 880 l 363 880 l 363 83 l 125 83 z m 352 1072 l 455 1072 l 623 1241 l 503 1241 z "},"Ĭ":{"ha":814,"x_min":0,"x_max":0,"o":"m 125 0 l 689 0 l 689 83 l 449 83 l 449 880 l 689 880 l 689 963 l 125 963 l 125 880 l 363 880 l 363 83 l 125 83 z m 407 1065 b 652 1261 562 1065 652 1137 l 571 1261 b 407 1134 571 1181 511 1134 b 243 1261 303 1134 243 1181 l 162 1261 b 407 1065 162 1137 252 1065 z "},"Î":{"ha":814,"x_min":0,"x_max":0,"o":"m 125 0 l 689 0 l 689 83 l 449 83 l 449 880 l 689 880 l 689 963 l 125 963 l 125 880 l 363 880 l 363 83 l 125 83 z m 182 1072 l 290 1072 l 408 1188 l 526 1072 l 634 1072 l 446 1248 l 370 1248 z "},"Ï":{"ha":814,"x_min":0,"x_max":0,"o":"m 125 0 l 689 0 l 689 83 l 449 83 l 449 880 l 689 880 l 689 963 l 125 963 l 125 880 l 363 880 l 363 83 l 125 83 z m 266 1087 b 341 1162 307 1087 341 1120 b 266 1238 341 1204 307 1238 b 191 1162 224 1238 191 1204 b 266 1087 191 1120 224 1087 z m 548 1087 b 623 1162 589 1087 623 1120 b 548 1238 623 1204 589 1238 b 473 1162 507 1238 473 1204 b 548 1087 473 1120 507 1087 z "},"İ":{"ha":814,"x_min":0,"x_max":0,"o":"m 125 0 l 689 0 l 689 83 l 449 83 l 449 880 l 689 880 l 689 963 l 125 963 l 125 880 l 363 880 l 363 83 l 125 83 z m 407 1087 b 482 1162 448 1087 482 1121 b 407 1238 482 1204 448 1238 b 332 1162 366 1238 332 1204 b 407 1087 332 1121 366 1087 z "},"Ị":{"ha":814,"x_min":0,"x_max":0,"o":"m 125 0 l 689 0 l 689 83 l 449 83 l 449 880 l 689 880 l 689 963 l 125 963 l 125 880 l 363 880 l 363 83 l 125 83 z m 407 -269 b 482 -195 448 -269 482 -236 b 407 -119 482 -153 448 -119 b 332 -195 366 -119 332 -153 b 407 -269 332 -236 366 -269 z "},"Ì":{"ha":814,"x_min":0,"x_max":0,"o":"m 125 0 l 689 0 l 689 83 l 449 83 l 449 880 l 689 880 l 689 963 l 125 963 l 125 880 l 363 880 l 363 83 l 125 83 z m 361 1072 l 465 1072 l 313 1241 l 194 1241 z "},"Ỉ":{"ha":814,"x_min":0,"x_max":0,"o":"m 125 0 l 689 0 l 689 83 l 449 83 l 449 880 l 689 880 l 689 963 l 125 963 l 125 880 l 363 880 l 363 83 l 125 83 z m 374 1037 l 452 1037 b 472 1065 452 1048 460 1058 b 557 1185 537 1104 557 1138 b 417 1291 557 1256 511 1291 b 250 1240 344 1291 285 1274 l 283 1182 b 403 1218 315 1206 357 1218 b 476 1172 452 1218 476 1202 b 421 1109 476 1150 460 1133 b 374 1051 391 1089 374 1074 z "},"Ī":{"ha":814,"x_min":0,"x_max":0,"o":"m 125 0 l 689 0 l 689 83 l 449 83 l 449 880 l 689 880 l 689 963 l 125 963 l 125 880 l 363 880 l 363 83 l 125 83 z m 144 1094 l 669 1094 l 669 1177 l 144 1177 z "},"Į":{"ha":814,"x_min":0,"x_max":0,"o":"m 429 -288 b 492 -281 448 -288 471 -286 l 500 -208 b 447 -212 481 -210 462 -212 b 346 -132 382 -212 346 -183 b 522 0 346 -53 410 0 l 689 0 l 689 83 l 449 83 l 449 880 l 689 880 l 689 963 l 125 963 l 125 880 l 363 880 l 363 83 l 125 83 l 125 0 l 353 0 l 353 -9 b 271 -146 301 -36 271 -86 b 429 -288 271 -236 329 -288 z "},"Ɩ":{"ha":814,"x_min":0,"x_max":0,"o":"m 546 -14 b 718 10 608 -14 659 -7 l 707 93 b 568 71 650 78 608 71 b 395 251 444 71 395 129 l 395 1017 l 77 1017 l 77 937 l 304 937 l 304 249 b 546 -14 304 71 382 -14 z "},"Ĩ":{"ha":814,"x_min":0,"x_max":0,"o":"m 125 0 l 689 0 l 689 83 l 449 83 l 449 880 l 689 880 l 689 963 l 125 963 l 125 880 l 363 880 l 363 83 l 125 83 z m 161 1062 l 241 1062 l 241 1116 b 301 1190 241 1166 261 1190 b 408 1142 327 1190 363 1172 b 549 1085 465 1104 511 1085 b 667 1239 627 1085 667 1136 l 667 1282 l 587 1282 l 587 1232 b 540 1161 587 1184 571 1161 b 429 1213 513 1161 479 1179 b 293 1265 376 1248 332 1265 b 161 1109 205 1265 161 1214 z "},"J":{"ha":814,"x_min":0,"x_max":0,"o":"m 389 -14 b 709 323 599 -14 709 102 l 709 963 l 332 963 l 332 880 l 623 880 l 623 323 b 393 68 623 155 545 68 b 156 323 237 68 156 155 l 69 323 b 389 -14 69 102 178 -14 z "},"Ĵ":{"ha":814,"x_min":0,"x_max":0,"o":"m 389 -14 b 709 323 599 -14 709 102 l 709 963 l 332 963 l 332 880 l 623 880 l 623 323 b 393 68 623 155 545 68 b 156 323 237 68 156 155 l 69 323 b 389 -14 69 102 178 -14 z m 311 1072 l 419 1072 l 537 1188 l 655 1072 l 763 1072 l 575 1248 l 499 1248 z "},"K":{"ha":814,"x_min":0,"x_max":0,"o":"m 113 0 l 199 0 l 199 326 b 469 403 303 330 393 357 l 673 0 l 777 0 l 543 458 b 731 963 665 570 731 747 l 643 963 b 199 410 643 640 488 419 l 199 963 l 113 963 z "},"Ḱ":{"ha":814,"x_min":0,"x_max":0,"o":"m 113 0 l 199 0 l 199 326 b 469 403 303 330 393 357 l 673 0 l 777 0 l 543 458 b 731 963 665 570 731 747 l 643 963 b 199 410 643 640 488 419 l 199 963 l 113 963 z m 366 1072 l 469 1072 l 636 1241 l 517 1241 z "},"Ķ":{"ha":814,"x_min":0,"x_max":0,"o":"m 113 0 l 199 0 l 199 326 b 469 403 303 330 393 357 l 673 0 l 777 0 l 543 458 b 731 963 665 570 731 747 l 643 963 b 199 410 643 640 488 419 l 199 963 l 113 963 z m 323 -326 l 406 -326 l 469 -95 l 374 -95 z "},"Ḳ":{"ha":814,"x_min":0,"x_max":0,"o":"m 113 0 l 199 0 l 199 326 b 469 403 303 330 393 357 l 673 0 l 777 0 l 543 458 b 731 963 665 570 731 747 l 643 963 b 199 410 643 640 488 419 l 199 963 l 113 963 z m 420 -269 b 496 -195 462 -269 496 -236 b 420 -119 496 -153 462 -119 b 345 -195 379 -119 345 -153 b 420 -269 345 -236 379 -269 z "},"Ḵ":{"ha":814,"x_min":0,"x_max":0,"o":"m 113 0 l 199 0 l 199 326 b 469 403 303 330 393 357 l 673 0 l 777 0 l 543 458 b 731 963 665 570 731 747 l 643 963 b 199 410 643 640 488 419 l 199 963 l 113 963 z m 140 -224 l 701 -224 l 701 -141 l 140 -141 z "},"L":{"ha":814,"x_min":0,"x_max":0,"o":"m 119 0 l 735 0 l 735 83 l 205 83 l 205 963 l 119 963 z "},"Ĺ":{"ha":814,"x_min":0,"x_max":0,"o":"m 119 0 l 735 0 l 735 83 l 205 83 l 205 963 l 119 963 z m 107 1072 l 210 1072 l 378 1241 l 258 1241 z "},"Ƚ":{"ha":814,"x_min":0,"x_max":0,"o":"m -14 453 l 119 453 l 119 0 l 735 0 l 735 83 l 205 83 l 205 453 l 545 453 l 545 536 l 205 536 l 205 963 l 119 963 l 119 536 l -14 536 z "},"Ľ":{"ha":814,"x_min":0,"x_max":0,"o":"m 119 0 l 735 0 l 735 83 l 205 83 l 205 963 l 119 963 z m 532 806 l 613 806 l 669 1063 l 578 1063 z "},"Ļ":{"ha":814,"x_min":0,"x_max":0,"o":"m 119 0 l 735 0 l 735 83 l 205 83 l 205 963 l 119 963 z m 323 -326 l 406 -326 l 469 -95 l 374 -95 z "},"Ŀ":{"ha":814,"x_min":0,"x_max":0,"o":"m 119 0 l 735 0 l 735 83 l 205 83 l 205 963 l 119 963 z m 543 553 b 621 631 586 553 621 587 b 543 709 621 674 586 709 b 464 631 499 709 464 674 b 543 553 464 587 499 553 z "},"Ḷ":{"ha":814,"x_min":0,"x_max":0,"o":"m 119 0 l 735 0 l 735 83 l 205 83 l 205 963 l 119 963 z m 420 -269 b 496 -195 462 -269 496 -236 b 420 -119 496 -153 462 -119 b 345 -195 379 -119 345 -153 b 420 -269 345 -236 379 -269 z "},"Ḻ":{"ha":814,"x_min":0,"x_max":0,"o":"m 119 0 l 735 0 l 735 83 l 205 83 l 205 963 l 119 963 z m 140 -224 l 701 -224 l 701 -141 l 140 -141 z "},"Ɫ":{"ha":814,"x_min":0,"x_max":0,"o":"m 238 0 l 735 0 l 735 83 l 317 83 l 317 469 b 457 418 370 431 404 418 b 581 574 544 418 581 465 l 581 640 l 503 640 l 503 569 b 448 489 503 513 487 489 b 317 550 411 489 378 506 l 317 963 l 238 963 l 238 601 b 151 622 208 616 182 622 b 11 465 53 622 11 575 l 11 399 l 89 399 l 89 471 b 157 551 89 526 109 551 b 238 525 184 551 208 543 z "},"Ł":{"ha":814,"x_min":0,"x_max":0,"o":"m 39 309 l 142 369 l 142 0 l 735 0 l 735 83 l 228 83 l 228 420 l 586 632 l 586 719 l 228 507 l 228 963 l 142 963 l 142 456 l 39 395 z "},"M":{"ha":814,"x_min":0,"x_max":0,"o":"m 98 0 l 182 0 l 182 866 l 192 866 l 361 429 l 453 429 l 622 866 l 632 866 l 632 0 l 716 0 l 716 963 l 578 963 l 410 522 l 404 522 l 235 963 l 98 963 z "},"N":{"ha":814,"x_min":0,"x_max":0,"o":"m 579 0 l 703 0 l 703 963 l 618 963 l 618 117 l 611 117 l 235 963 l 111 963 l 111 0 l 195 0 l 195 846 l 203 846 z "},"Ń":{"ha":814,"x_min":0,"x_max":0,"o":"m 579 0 l 703 0 l 703 963 l 618 963 l 618 117 l 611 117 l 235 963 l 111 963 l 111 0 l 195 0 l 195 846 l 203 846 z m 352 1072 l 455 1072 l 623 1241 l 503 1241 z "},"Ň":{"ha":814,"x_min":0,"x_max":0,"o":"m 579 0 l 703 0 l 703 963 l 618 963 l 618 117 l 611 117 l 235 963 l 111 963 l 111 0 l 195 0 l 195 846 l 203 846 z m 369 1072 l 445 1072 l 633 1248 l 525 1248 l 407 1133 l 289 1248 l 181 1248 z "},"Ņ":{"ha":814,"x_min":0,"x_max":0,"o":"m 579 0 l 703 0 l 703 963 l 618 963 l 618 117 l 611 117 l 235 963 l 111 963 l 111 0 l 195 0 l 195 846 l 203 846 z m 309 -326 l 392 -326 l 455 -95 l 361 -95 z "},"Ŋ":{"ha":814,"x_min":0,"x_max":0,"o":"m 427 -326 l 497 -315 b 703 -47 641 -293 703 -216 l 703 963 l 618 963 l 618 117 l 611 117 l 235 963 l 111 963 l 111 0 l 195 0 l 195 846 l 203 846 l 579 0 l 618 0 l 618 -41 b 488 -234 618 -165 581 -218 l 420 -246 z "},"Ɲ":{"ha":814,"x_min":0,"x_max":0,"o":"m -45 -319 l -10 -315 b 195 -47 134 -297 195 -216 l 195 846 l 203 846 l 579 0 l 703 0 l 703 963 l 618 963 l 618 117 l 611 117 l 235 963 l 111 963 l 111 -41 b -19 -234 111 -165 75 -221 l -52 -239 z "},"Ṉ":{"ha":814,"x_min":0,"x_max":0,"o":"m 579 0 l 703 0 l 703 963 l 618 963 l 618 117 l 611 117 l 235 963 l 111 963 l 111 0 l 195 0 l 195 846 l 203 846 z m 127 -224 l 687 -224 l 687 -141 l 127 -141 z "},"Ñ":{"ha":814,"x_min":0,"x_max":0,"o":"m 579 0 l 703 0 l 703 963 l 618 963 l 618 117 l 611 117 l 235 963 l 111 963 l 111 0 l 195 0 l 195 846 l 203 846 z m 161 1062 l 241 1062 l 241 1116 b 301 1190 241 1166 261 1190 b 408 1142 327 1190 363 1172 b 549 1085 465 1104 511 1085 b 667 1239 627 1085 667 1136 l 667 1282 l 587 1282 l 587 1232 b 540 1161 587 1184 571 1161 b 429 1213 513 1161 479 1179 b 293 1265 376 1248 332 1265 b 161 1109 205 1265 161 1214 z "},"O":{"ha":814,"x_min":0,"x_max":0,"o":"m 407 -14 b 751 475 635 -14 751 148 b 407 977 751 810 635 977 b 62 475 178 977 62 810 b 407 -14 62 148 178 -14 z m 407 64 b 151 475 237 64 151 201 b 407 895 151 755 237 895 b 663 475 577 895 663 755 b 407 64 663 201 577 64 z "},"Ó":{"ha":814,"x_min":0,"x_max":0,"o":"m 407 -14 b 751 475 635 -14 751 148 b 407 977 751 810 635 977 b 62 475 178 977 62 810 b 407 -14 62 148 178 -14 z m 407 64 b 151 475 237 64 151 201 b 407 895 151 755 237 895 b 663 475 577 895 663 755 b 407 64 663 201 577 64 z m 352 1072 l 455 1072 l 623 1241 l 503 1241 z "},"Ŏ":{"ha":814,"x_min":0,"x_max":0,"o":"m 407 -14 b 751 475 635 -14 751 148 b 407 977 751 810 635 977 b 62 475 178 977 62 810 b 407 -14 62 148 178 -14 z m 407 64 b 151 475 237 64 151 201 b 407 895 151 755 237 895 b 663 475 577 895 663 755 b 407 64 663 201 577 64 z m 407 1065 b 652 1261 562 1065 652 1137 l 571 1261 b 407 1134 571 1181 511 1134 b 243 1261 303 1134 243 1181 l 162 1261 b 407 1065 162 1137 252 1065 z "},"Ô":{"ha":814,"x_min":0,"x_max":0,"o":"m 407 -14 b 751 475 635 -14 751 148 b 407 977 751 810 635 977 b 62 475 178 977 62 810 b 407 -14 62 148 178 -14 z m 407 64 b 151 475 237 64 151 201 b 407 895 151 755 237 895 b 663 475 577 895 663 755 b 407 64 663 201 577 64 z m 182 1072 l 290 1072 l 408 1188 l 526 1072 l 634 1072 l 446 1248 l 370 1248 z "},"Ố":{"ha":814,"x_min":0,"x_max":0,"o":"m 407 -14 b 751 475 635 -14 751 148 b 407 977 751 810 635 977 b 62 475 178 977 62 810 b 407 -14 62 148 178 -14 z m 407 64 b 151 475 237 64 151 201 b 407 895 151 755 237 895 b 663 475 577 895 663 755 b 407 64 663 201 577 64 z m 182 1072 l 290 1072 l 408 1188 l 526 1072 l 634 1072 l 446 1248 l 370 1248 z m 561 1240 l 664 1240 l 831 1409 l 712 1409 z "},"Ộ":{"ha":814,"x_min":0,"x_max":0,"o":"m 407 -14 b 751 475 635 -14 751 148 b 407 977 751 810 635 977 b 62 475 178 977 62 810 b 407 -14 62 148 178 -14 z m 407 64 b 151 475 237 64 151 201 b 407 895 151 755 237 895 b 663 475 577 895 663 755 b 407 64 663 201 577 64 z m 182 1072 l 290 1072 l 408 1188 l 526 1072 l 634 1072 l 446 1248 l 370 1248 z m 407 -269 b 482 -195 448 -269 482 -236 b 407 -119 482 -153 448 -119 b 332 -195 366 -119 332 -153 b 407 -269 332 -236 366 -269 z "},"Ồ":{"ha":814,"x_min":0,"x_max":0,"o":"m 407 -14 b 751 475 635 -14 751 148 b 407 977 751 810 635 977 b 62 475 178 977 62 810 b 407 -14 62 148 178 -14 z m 407 64 b 151 475 237 64 151 201 b 407 895 151 755 237 895 b 663 475 577 895 663 755 b 407 64 663 201 577 64 z m 182 1072 l 290 1072 l 408 1188 l 526 1072 l 634 1072 l 446 1248 l 370 1248 z m 570 1240 l 673 1240 l 522 1409 l 403 1409 z "},"Ổ":{"ha":814,"x_min":0,"x_max":0,"o":"m 407 -14 b 751 475 635 -14 751 148 b 407 977 751 810 635 977 b 62 475 178 977 62 810 b 407 -14 62 148 178 -14 z m 407 64 b 151 475 237 64 151 201 b 407 895 151 755 237 895 b 663 475 577 895 663 755 b 407 64 663 201 577 64 z m 583 1205 l 661 1205 b 681 1234 661 1217 669 1226 b 766 1354 746 1272 766 1306 b 626 1459 766 1424 720 1459 b 459 1409 553 1459 494 1442 l 492 1350 b 612 1386 524 1374 566 1386 b 685 1340 661 1386 685 1370 b 630 1277 685 1318 669 1301 b 583 1219 600 1257 583 1242 z m 182 1072 l 290 1072 l 408 1188 l 526 1072 l 634 1072 l 446 1248 l 370 1248 z "},"Ỗ":{"ha":814,"x_min":0,"x_max":0,"o":"m 407 -14 b 751 475 635 -14 751 148 b 407 977 751 810 635 977 b 62 475 178 977 62 810 b 407 -14 62 148 178 -14 z m 407 64 b 151 475 237 64 151 201 b 407 895 151 755 237 895 b 663 475 577 895 663 755 b 407 64 663 201 577 64 z m 161 1320 l 241 1320 l 241 1374 b 301 1447 241 1423 261 1447 b 408 1400 327 1447 363 1430 b 549 1343 465 1362 511 1343 b 667 1497 627 1343 667 1394 l 667 1539 l 587 1539 l 587 1490 b 540 1419 587 1442 571 1419 b 429 1470 513 1419 479 1436 b 293 1523 376 1506 332 1523 b 161 1367 205 1523 161 1472 z m 182 1072 l 290 1072 l 408 1188 l 526 1072 l 634 1072 l 446 1248 l 370 1248 z "},"Ö":{"ha":814,"x_min":0,"x_max":0,"o":"m 407 -14 b 751 475 635 -14 751 148 b 407 977 751 810 635 977 b 62 475 178 977 62 810 b 407 -14 62 148 178 -14 z m 407 64 b 151 475 237 64 151 201 b 407 895 151 755 237 895 b 663 475 577 895 663 755 b 407 64 663 201 577 64 z m 266 1087 b 341 1162 307 1087 341 1120 b 266 1238 341 1204 307 1238 b 191 1162 224 1238 191 1204 b 266 1087 191 1120 224 1087 z m 548 1087 b 623 1162 589 1087 623 1120 b 548 1238 623 1204 589 1238 b 473 1162 507 1238 473 1204 b 548 1087 473 1120 507 1087 z "},"Ọ":{"ha":814,"x_min":0,"x_max":0,"o":"m 407 -14 b 751 475 635 -14 751 148 b 407 977 751 810 635 977 b 62 475 178 977 62 810 b 407 -14 62 148 178 -14 z m 407 64 b 151 475 237 64 151 201 b 407 895 151 755 237 895 b 663 475 577 895 663 755 b 407 64 663 201 577 64 z m 407 -269 b 482 -195 448 -269 482 -236 b 407 -119 482 -153 448 -119 b 332 -195 366 -119 332 -153 b 407 -269 332 -236 366 -269 z "},"Ò":{"ha":814,"x_min":0,"x_max":0,"o":"m 407 -14 b 751 475 635 -14 751 148 b 407 977 751 810 635 977 b 62 475 178 977 62 810 b 407 -14 62 148 178 -14 z m 407 64 b 151 475 237 64 151 201 b 407 895 151 755 237 895 b 663 475 577 895 663 755 b 407 64 663 201 577 64 z m 361 1072 l 465 1072 l 313 1241 l 194 1241 z "},"Ỏ":{"ha":814,"x_min":0,"x_max":0,"o":"m 407 -14 b 751 475 635 -14 751 148 b 407 977 751 810 635 977 b 62 475 178 977 62 810 b 407 -14 62 148 178 -14 z m 407 64 b 151 475 237 64 151 201 b 407 895 151 755 237 895 b 663 475 577 895 663 755 b 407 64 663 201 577 64 z m 374 1037 l 452 1037 b 472 1065 452 1048 460 1058 b 557 1185 537 1104 557 1138 b 417 1291 557 1256 511 1291 b 250 1240 344 1291 285 1274 l 283 1182 b 403 1218 315 1206 357 1218 b 476 1172 452 1218 476 1202 b 421 1109 476 1150 460 1133 b 374 1051 391 1089 374 1074 z "},"Ơ":{"ha":814,"x_min":0,"x_max":0,"o":"m 407 -14 b 751 475 635 -14 751 148 b 663 854 751 644 722 771 b 838 1121 783 886 838 968 l 752 1121 b 606 922 752 999 707 939 l 597 921 b 407 977 547 958 483 977 b 62 475 178 977 62 810 b 407 -14 62 148 178 -14 z m 407 64 b 151 475 237 64 151 201 b 407 895 151 755 237 895 b 663 475 577 895 663 755 b 407 64 663 201 577 64 z "},"Ớ":{"ha":814,"x_min":0,"x_max":0,"o":"m 407 -14 b 751 475 635 -14 751 148 b 663 854 751 644 722 771 b 838 1121 783 886 838 968 l 752 1121 b 606 922 752 999 707 939 l 597 921 b 407 977 547 958 483 977 b 62 475 178 977 62 810 b 407 -14 62 148 178 -14 z m 407 64 b 151 475 237 64 151 201 b 407 895 151 755 237 895 b 663 475 577 895 663 755 b 407 64 663 201 577 64 z m 352 1072 l 455 1072 l 623 1241 l 503 1241 z "},"Ợ":{"ha":814,"x_min":0,"x_max":0,"o":"m 407 -14 b 751 475 635 -14 751 148 b 663 854 751 644 722 771 b 838 1121 783 886 838 968 l 752 1121 b 606 922 752 999 707 939 l 597 921 b 407 977 547 958 483 977 b 62 475 178 977 62 810 b 407 -14 62 148 178 -14 z m 407 64 b 151 475 237 64 151 201 b 407 895 151 755 237 895 b 663 475 577 895 663 755 b 407 64 663 201 577 64 z m 407 -269 b 482 -195 448 -269 482 -236 b 407 -119 482 -153 448 -119 b 332 -195 366 -119 332 -153 b 407 -269 332 -236 366 -269 z "},"Ờ":{"ha":814,"x_min":0,"x_max":0,"o":"m 407 -14 b 751 475 635 -14 751 148 b 663 854 751 644 722 771 b 838 1121 783 886 838 968 l 752 1121 b 606 922 752 999 707 939 l 597 921 b 407 977 547 958 483 977 b 62 475 178 977 62 810 b 407 -14 62 148 178 -14 z m 407 64 b 151 475 237 64 151 201 b 407 895 151 755 237 895 b 663 475 577 895 663 755 b 407 64 663 201 577 64 z m 361 1072 l 465 1072 l 313 1241 l 194 1241 z "},"Ở":{"ha":814,"x_min":0,"x_max":0,"o":"m 407 -14 b 751 475 635 -14 751 148 b 663 854 751 644 722 771 b 838 1121 783 886 838 968 l 752 1121 b 606 922 752 999 707 939 l 597 921 b 407 977 547 958 483 977 b 62 475 178 977 62 810 b 407 -14 62 148 178 -14 z m 407 64 b 151 475 237 64 151 201 b 407 895 151 755 237 895 b 663 475 577 895 663 755 b 407 64 663 201 577 64 z m 374 1037 l 452 1037 b 472 1065 452 1048 460 1058 b 557 1185 537 1104 557 1138 b 417 1291 557 1256 511 1291 b 250 1240 344 1291 285 1274 l 283 1182 b 403 1218 315 1206 357 1218 b 476 1172 452 1218 476 1202 b 421 1109 476 1150 460 1133 b 374 1051 391 1089 374 1074 z "},"Ỡ":{"ha":814,"x_min":0,"x_max":0,"o":"m 407 -14 b 751 475 635 -14 751 148 b 663 854 751 644 722 771 b 838 1121 783 886 838 968 l 752 1121 b 606 922 752 999 707 939 l 597 921 b 407 977 547 958 483 977 b 62 475 178 977 62 810 b 407 -14 62 148 178 -14 z m 407 64 b 151 475 237 64 151 201 b 407 895 151 755 237 895 b 663 475 577 895 663 755 b 407 64 663 201 577 64 z m 161 1062 l 241 1062 l 241 1116 b 301 1190 241 1166 261 1190 b 408 1142 327 1190 363 1172 b 549 1085 465 1104 511 1085 b 667 1239 627 1085 667 1136 l 667 1282 l 587 1282 l 587 1232 b 540 1161 587 1184 571 1161 b 429 1213 513 1161 479 1179 b 293 1265 376 1248 332 1265 b 161 1109 205 1265 161 1214 z "},"Ő":{"ha":814,"x_min":0,"x_max":0,"o":"m 407 -14 b 751 475 635 -14 751 148 b 407 977 751 810 635 977 b 62 475 178 977 62 810 b 407 -14 62 148 178 -14 z m 407 64 b 151 475 237 64 151 201 b 407 895 151 755 237 895 b 663 475 577 895 663 755 b 407 64 663 201 577 64 z m 221 1072 l 326 1072 l 450 1241 l 332 1241 z m 458 1072 l 564 1072 l 688 1241 l 569 1241 z "},"Ō":{"ha":814,"x_min":0,"x_max":0,"o":"m 407 -14 b 751 475 635 -14 751 148 b 407 977 751 810 635 977 b 62 475 178 977 62 810 b 407 -14 62 148 178 -14 z m 407 64 b 151 475 237 64 151 201 b 407 895 151 755 237 895 b 663 475 577 895 663 755 b 407 64 663 201 577 64 z m 144 1094 l 669 1094 l 669 1177 l 144 1177 z "},"Ṓ":{"ha":814,"x_min":0,"x_max":0,"o":"m 407 -14 b 751 475 635 -14 751 148 b 407 977 751 810 635 977 b 62 475 178 977 62 810 b 407 -14 62 148 178 -14 z m 407 64 b 151 475 237 64 151 201 b 407 895 151 755 237 895 b 663 475 577 895 663 755 b 407 64 663 201 577 64 z m 144 1094 l 669 1094 l 669 1177 l 144 1177 z m 352 1275 l 455 1275 l 623 1444 l 503 1444 z "},"Ṑ":{"ha":814,"x_min":0,"x_max":0,"o":"m 407 -14 b 751 475 635 -14 751 148 b 407 977 751 810 635 977 b 62 475 178 977 62 810 b 407 -14 62 148 178 -14 z m 407 64 b 151 475 237 64 151 201 b 407 895 151 755 237 895 b 663 475 577 895 663 755 b 407 64 663 201 577 64 z m 144 1094 l 669 1094 l 669 1177 l 144 1177 z m 361 1275 l 465 1275 l 313 1444 l 194 1444 z "},"Ǫ":{"ha":814,"x_min":0,"x_max":0,"o":"m 435 -288 b 497 -281 452 -288 475 -286 l 505 -208 b 452 -212 485 -210 467 -212 b 351 -132 383 -212 351 -178 b 511 -1 351 -54 416 -29 b 523 3 515 1 519 2 b 526 4 524 3 525 4 l 526 4 b 751 475 675 54 751 210 b 407 977 751 810 635 977 b 62 475 178 977 62 810 b 361 -12 62 170 163 9 l 361 -21 b 276 -151 307 -41 276 -89 b 435 -288 276 -238 334 -288 z m 407 64 b 151 475 237 64 151 201 b 407 895 151 755 237 895 b 663 475 577 895 663 755 b 407 64 663 201 577 64 z "},"Ɔ":{"ha":814,"x_min":0,"x_max":0,"o":"m 338 -14 b 753 484 615 -14 753 174 b 324 977 753 802 607 977 b 85 930 240 977 161 962 l 108 852 b 306 893 172 880 236 893 b 663 478 542 893 663 742 b 346 70 663 223 546 70 b 102 165 248 70 191 92 l 38 102 b 338 -14 116 25 220 -14 z "},"Ø":{"ha":814,"x_min":0,"x_max":0,"o":"m 132 -91 l 207 47 b 407 -14 260 7 326 -14 b 751 475 635 -14 751 148 b 655 865 751 651 719 781 l 730 1002 l 669 1039 l 602 918 b 407 977 551 957 486 977 b 62 475 178 977 62 810 b 155 100 62 307 93 182 l 70 -54 z m 407 64 b 250 124 342 64 290 84 l 606 776 b 663 475 644 706 663 606 b 407 64 663 201 577 64 z m 203 189 b 151 475 168 256 151 352 b 407 895 151 755 237 895 b 559 839 469 895 519 876 z "},"Ǿ":{"ha":814,"x_min":0,"x_max":0,"o":"m 132 -91 l 207 47 b 407 -14 260 7 326 -14 b 751 475 635 -14 751 148 b 655 865 751 651 719 781 l 730 1002 l 669 1039 l 602 918 b 407 977 551 957 486 977 b 62 475 178 977 62 810 b 155 100 62 307 93 182 l 70 -54 z m 407 64 b 250 124 342 64 290 84 l 606 776 b 663 475 644 706 663 606 b 407 64 663 201 577 64 z m 203 189 b 151 475 168 256 151 352 b 407 895 151 755 237 895 b 559 839 469 895 519 876 z m 352 1072 l 455 1072 l 623 1241 l 503 1241 z "},"Õ":{"ha":814,"x_min":0,"x_max":0,"o":"m 407 -14 b 751 475 635 -14 751 148 b 407 977 751 810 635 977 b 62 475 178 977 62 810 b 407 -14 62 148 178 -14 z m 407 64 b 151 475 237 64 151 201 b 407 895 151 755 237 895 b 663 475 577 895 663 755 b 407 64 663 201 577 64 z m 161 1062 l 241 1062 l 241 1116 b 301 1190 241 1166 261 1190 b 408 1142 327 1190 363 1172 b 549 1085 465 1104 511 1085 b 667 1239 627 1085 667 1136 l 667 1282 l 587 1282 l 587 1232 b 540 1161 587 1184 571 1161 b 429 1213 513 1161 479 1179 b 293 1265 376 1248 332 1265 b 161 1109 205 1265 161 1214 z "},"Œ":{"ha":814,"x_min":0,"x_max":0,"o":"m 353 -14 b 475 0 404 -14 443 0 l 734 0 l 734 81 l 507 81 l 507 442 l 694 442 l 694 522 l 507 522 l 507 882 l 734 882 l 734 963 l 475 963 b 353 977 433 963 401 977 b 63 475 169 977 63 793 b 353 -14 63 164 169 -14 z m 359 68 b 153 475 228 68 153 216 b 353 895 153 741 225 895 b 425 880 380 895 405 889 l 425 73 b 359 68 406 70 382 68 z "},"P":{"ha":814,"x_min":0,"x_max":0,"o":"m 119 0 l 205 0 l 205 321 l 401 321 b 749 646 625 321 749 437 b 401 963 749 850 625 963 l 119 963 z m 205 404 l 205 880 l 401 880 b 660 646 567 880 660 797 b 401 404 660 490 567 404 z "},"Þ":{"ha":814,"x_min":0,"x_max":0,"o":"m 119 0 l 205 0 l 205 161 l 401 161 b 749 481 622 161 749 277 b 401 802 749 686 622 802 l 205 802 l 205 963 l 119 963 z m 205 243 l 205 720 l 401 720 b 660 481 566 720 660 633 b 401 243 660 330 566 243 z "},"Q":{"ha":814,"x_min":0,"x_max":0,"o":"m 653 -312 l 686 -312 l 696 -231 l 653 -231 b 446 -15 520 -231 446 -154 l 446 -12 b 751 475 649 6 751 167 b 407 977 751 810 635 977 b 62 475 178 977 62 810 b 361 -12 62 171 163 9 l 361 -14 b 653 -312 361 -207 465 -312 z m 407 64 b 151 475 237 64 151 201 b 407 895 151 755 237 895 b 663 475 577 895 663 755 b 407 64 663 201 577 64 z "},"R":{"ha":814,"x_min":0,"x_max":0,"o":"m 106 0 l 192 0 l 192 389 l 444 389 b 464 390 451 389 457 389 l 660 0 l 764 0 l 552 405 b 728 680 665 440 728 536 b 444 963 728 861 625 963 l 106 963 z m 192 472 l 192 880 l 444 880 b 640 667 568 880 640 802 b 444 472 640 543 568 472 z "},"Ŕ":{"ha":814,"x_min":0,"x_max":0,"o":"m 106 0 l 192 0 l 192 389 l 444 389 b 464 390 451 389 457 389 l 660 0 l 764 0 l 552 405 b 728 680 665 440 728 536 b 444 963 728 861 625 963 l 106 963 z m 192 472 l 192 880 l 444 880 b 640 667 568 880 640 802 b 444 472 640 543 568 472 z m 325 1072 l 428 1072 l 595 1241 l 476 1241 z "},"Ř":{"ha":814,"x_min":0,"x_max":0,"o":"m 106 0 l 192 0 l 192 389 l 444 389 b 464 390 451 389 457 389 l 660 0 l 764 0 l 552 405 b 728 680 665 440 728 536 b 444 963 728 861 625 963 l 106 963 z m 192 472 l 192 880 l 444 880 b 640 667 568 880 640 802 b 444 472 640 543 568 472 z m 342 1072 l 418 1072 l 606 1248 l 498 1248 l 380 1133 l 262 1248 l 154 1248 z "},"Ŗ":{"ha":814,"x_min":0,"x_max":0,"o":"m 106 0 l 192 0 l 192 389 l 444 389 b 464 390 451 389 457 389 l 660 0 l 764 0 l 552 405 b 728 680 665 440 728 536 b 444 963 728 861 625 963 l 106 963 z m 192 472 l 192 880 l 444 880 b 640 667 568 880 640 802 b 444 472 640 543 568 472 z m 316 -326 l 399 -326 l 462 -95 l 368 -95 z "},"Ṛ":{"ha":814,"x_min":0,"x_max":0,"o":"m 106 0 l 192 0 l 192 389 l 444 389 b 464 390 451 389 457 389 l 660 0 l 764 0 l 552 405 b 728 680 665 440 728 536 b 444 963 728 861 625 963 l 106 963 z m 192 472 l 192 880 l 444 880 b 640 667 568 880 640 802 b 444 472 640 543 568 472 z m 414 -269 b 489 -195 455 -269 489 -236 b 414 -119 489 -153 455 -119 b 338 -195 372 -119 338 -153 b 414 -269 338 -236 372 -269 z "},"S":{"ha":814,"x_min":0,"x_max":0,"o":"m 374 -14 b 706 233 596 -14 706 68 b 528 481 706 343 646 422 l 320 586 b 214 732 251 621 214 664 b 410 895 214 840 280 895 b 649 799 490 895 566 864 l 710 861 b 409 977 627 940 530 977 b 124 726 222 977 124 890 b 285 503 124 623 180 554 l 513 385 b 616 230 582 351 616 299 b 385 68 616 122 540 68 b 111 124 296 68 205 87 l 98 35 b 374 -14 179 3 270 -14 z "},"Ś":{"ha":814,"x_min":0,"x_max":0,"o":"m 374 -14 b 706 233 596 -14 706 68 b 528 481 706 343 646 422 l 320 586 b 214 732 251 621 214 664 b 410 895 214 840 280 895 b 649 799 490 895 566 864 l 710 861 b 409 977 627 940 530 977 b 124 726 222 977 124 890 b 285 503 124 623 180 554 l 513 385 b 616 230 582 351 616 299 b 385 68 616 122 540 68 b 111 124 296 68 205 87 l 98 35 b 374 -14 179 3 270 -14 z m 366 1072 l 469 1072 l 636 1241 l 517 1241 z "},"Š":{"ha":814,"x_min":0,"x_max":0,"o":"m 374 -14 b 706 233 596 -14 706 68 b 528 481 706 343 646 422 l 320 586 b 214 732 251 621 214 664 b 410 895 214 840 280 895 b 649 799 490 895 566 864 l 710 861 b 409 977 627 940 530 977 b 124 726 222 977 124 890 b 285 503 124 623 180 554 l 513 385 b 616 230 582 351 616 299 b 385 68 616 122 540 68 b 111 124 296 68 205 87 l 98 35 b 374 -14 179 3 270 -14 z m 382 1072 l 458 1072 l 646 1248 l 538 1248 l 420 1133 l 302 1248 l 195 1248 z "},"Ş":{"ha":814,"x_min":0,"x_max":0,"o":"m 313 -326 b 552 -186 478 -326 552 -282 b 426 -73 552 -122 513 -82 l 445 -10 b 706 233 620 6 706 87 b 528 481 706 343 646 422 l 320 586 b 214 732 251 621 214 664 b 410 895 214 840 280 895 b 649 799 490 895 566 864 l 710 861 b 409 977 627 940 530 977 b 124 726 222 977 124 890 b 285 503 124 623 180 554 l 513 385 b 616 230 582 351 616 299 b 385 68 616 122 540 68 b 111 124 296 68 205 87 l 98 35 b 373 -14 179 3 270 -14 l 334 -119 b 470 -184 429 -119 470 -139 b 313 -255 470 -233 422 -255 z "},"Ŝ":{"ha":814,"x_min":0,"x_max":0,"o":"m 374 -14 b 706 233 596 -14 706 68 b 528 481 706 343 646 422 l 320 586 b 214 732 251 621 214 664 b 410 895 214 840 280 895 b 649 799 490 895 566 864 l 710 861 b 409 977 627 940 530 977 b 124 726 222 977 124 890 b 285 503 124 623 180 554 l 513 385 b 616 230 582 351 616 299 b 385 68 616 122 540 68 b 111 124 296 68 205 87 l 98 35 b 374 -14 179 3 270 -14 z m 196 1072 l 304 1072 l 422 1188 l 540 1072 l 648 1072 l 460 1248 l 384 1248 z "},"Ș":{"ha":814,"x_min":0,"x_max":0,"o":"m 374 -14 b 706 233 596 -14 706 68 b 528 481 706 343 646 422 l 320 586 b 214 732 251 621 214 664 b 410 895 214 840 280 895 b 649 799 490 895 566 864 l 710 861 b 409 977 627 940 530 977 b 124 726 222 977 124 890 b 285 503 124 623 180 554 l 513 385 b 616 230 582 351 616 299 b 385 68 616 122 540 68 b 111 124 296 68 205 87 l 98 35 b 374 -14 179 3 270 -14 z m 316 -326 l 399 -326 l 462 -95 l 368 -95 z "},"Ṣ":{"ha":814,"x_min":0,"x_max":0,"o":"m 374 -14 b 706 233 596 -14 706 68 b 528 481 706 343 646 422 l 320 586 b 214 732 251 621 214 664 b 410 895 214 840 280 895 b 649 799 490 895 566 864 l 710 861 b 409 977 627 940 530 977 b 124 726 222 977 124 890 b 285 503 124 623 180 554 l 513 385 b 616 230 582 351 616 299 b 385 68 616 122 540 68 b 111 124 296 68 205 87 l 98 35 b 374 -14 179 3 270 -14 z m 414 -269 b 489 -195 455 -269 489 -236 b 414 -119 489 -153 455 -119 b 338 -195 372 -119 338 -153 b 414 -269 338 -236 372 -269 z "},"ẞ":{"ha":814,"x_min":0,"x_max":0,"o":"m 106 0 l 193 0 l 193 631 b 445 893 193 814 268 894 b 621 836 509 893 564 875 l 421 530 l 503 505 b 683 286 617 469 683 388 b 459 71 683 149 602 71 b 329 83 417 71 370 75 l 311 2 b 448 -14 345 -7 395 -14 b 773 288 654 -14 773 96 b 551 578 773 425 693 530 l 738 861 l 737 861 b 445 977 654 941 564 977 b 106 631 208 977 106 873 z "},"Ə":{"ha":814,"x_min":0,"x_max":0,"o":"m 407 -14 b 751 475 635 -14 751 148 b 339 977 751 810 612 977 b 125 945 265 977 193 966 l 140 865 b 339 895 201 884 269 895 b 661 519 543 895 650 770 l 66 519 b 63 439 64 494 63 467 b 407 -14 63 136 178 -14 z m 661 435 b 407 68 652 190 568 68 b 153 435 238 68 153 190 z "},"T":{"ha":814,"x_min":0,"x_max":0,"o":"m 364 0 l 450 0 l 450 880 l 749 880 l 749 963 l 65 963 l 65 880 l 364 880 z "},"Ŧ":{"ha":814,"x_min":0,"x_max":0,"o":"m 130 421 l 364 421 l 364 0 l 450 0 l 450 421 l 684 421 l 684 504 l 450 504 l 450 880 l 749 880 l 749 963 l 65 963 l 65 880 l 364 880 l 364 504 l 130 504 z "},"Ť":{"ha":814,"x_min":0,"x_max":0,"o":"m 364 0 l 450 0 l 450 880 l 749 880 l 749 963 l 65 963 l 65 880 l 364 880 z m 369 1072 l 445 1072 l 633 1248 l 525 1248 l 407 1133 l 289 1248 l 181 1248 z "},"Ţ":{"ha":814,"x_min":0,"x_max":0,"o":"m 364 0 l 368 0 l 323 -119 b 460 -184 418 -119 460 -139 b 303 -255 460 -233 412 -255 l 303 -326 b 542 -186 468 -326 542 -282 b 416 -73 542 -122 503 -82 l 438 0 l 450 0 l 450 880 l 749 880 l 749 963 l 65 963 l 65 880 l 364 880 z "},"Ț":{"ha":814,"x_min":0,"x_max":0,"o":"m 364 0 l 450 0 l 450 880 l 749 880 l 749 963 l 65 963 l 65 880 l 364 880 z m 306 -326 l 389 -326 l 452 -95 l 357 -95 z "},"Ⱦ":{"ha":814,"x_min":0,"x_max":0,"o":"m 275 -229 l 364 50 l 364 0 l 450 0 l 450 317 l 631 880 l 749 880 l 749 963 l 657 963 l 715 1143 l 644 1164 l 581 963 l 65 963 l 65 880 l 364 880 l 364 283 l 208 -208 z m 450 551 l 450 880 l 554 880 z "},"Ṯ":{"ha":814,"x_min":0,"x_max":0,"o":"m 364 0 l 450 0 l 450 880 l 749 880 l 749 963 l 65 963 l 65 880 l 364 880 z m 123 -224 l 684 -224 l 684 -141 l 123 -141 z "},"U":{"ha":814,"x_min":0,"x_max":0,"o":"m 404 -14 b 708 309 603 -14 708 94 l 708 963 l 622 963 l 622 309 b 407 70 622 151 549 70 b 192 309 258 70 192 151 l 192 963 l 106 963 l 106 309 b 404 -14 106 94 205 -14 z "},"Ú":{"ha":814,"x_min":0,"x_max":0,"o":"m 404 -14 b 708 309 603 -14 708 94 l 708 963 l 622 963 l 622 309 b 407 70 622 151 549 70 b 192 309 258 70 192 151 l 192 963 l 106 963 l 106 309 b 404 -14 106 94 205 -14 z m 352 1072 l 455 1072 l 623 1241 l 503 1241 z "},"Ŭ":{"ha":814,"x_min":0,"x_max":0,"o":"m 404 -14 b 708 309 603 -14 708 94 l 708 963 l 622 963 l 622 309 b 407 70 622 151 549 70 b 192 309 258 70 192 151 l 192 963 l 106 963 l 106 309 b 404 -14 106 94 205 -14 z m 407 1065 b 652 1261 562 1065 652 1137 l 571 1261 b 407 1134 571 1181 511 1134 b 243 1261 303 1134 243 1181 l 162 1261 b 407 1065 162 1137 252 1065 z "},"Û":{"ha":814,"x_min":0,"x_max":0,"o":"m 404 -14 b 708 309 603 -14 708 94 l 708 963 l 622 963 l 622 309 b 407 70 622 151 549 70 b 192 309 258 70 192 151 l 192 963 l 106 963 l 106 309 b 404 -14 106 94 205 -14 z m 182 1072 l 290 1072 l 408 1188 l 526 1072 l 634 1072 l 446 1248 l 370 1248 z "},"Ü":{"ha":814,"x_min":0,"x_max":0,"o":"m 404 -14 b 708 309 603 -14 708 94 l 708 963 l 622 963 l 622 309 b 407 70 622 151 549 70 b 192 309 258 70 192 151 l 192 963 l 106 963 l 106 309 b 404 -14 106 94 205 -14 z m 266 1087 b 341 1162 307 1087 341 1120 b 266 1238 341 1204 307 1238 b 191 1162 224 1238 191 1204 b 266 1087 191 1120 224 1087 z m 548 1087 b 623 1162 589 1087 623 1120 b 548 1238 623 1204 589 1238 b 473 1162 507 1238 473 1204 b 548 1087 473 1120 507 1087 z "},"Ụ":{"ha":814,"x_min":0,"x_max":0,"o":"m 404 -14 b 708 309 603 -14 708 94 l 708 963 l 622 963 l 622 309 b 407 70 622 151 549 70 b 192 309 258 70 192 151 l 192 963 l 106 963 l 106 309 b 404 -14 106 94 205 -14 z m 407 -269 b 482 -195 448 -269 482 -236 b 407 -119 482 -153 448 -119 b 332 -195 366 -119 332 -153 b 407 -269 332 -236 366 -269 z "},"Ù":{"ha":814,"x_min":0,"x_max":0,"o":"m 404 -14 b 708 309 603 -14 708 94 l 708 963 l 622 963 l 622 309 b 407 70 622 151 549 70 b 192 309 258 70 192 151 l 192 963 l 106 963 l 106 309 b 404 -14 106 94 205 -14 z m 361 1072 l 465 1072 l 313 1241 l 194 1241 z "},"Ủ":{"ha":814,"x_min":0,"x_max":0,"o":"m 404 -14 b 708 309 603 -14 708 94 l 708 963 l 622 963 l 622 309 b 407 70 622 151 549 70 b 192 309 258 70 192 151 l 192 963 l 106 963 l 106 309 b 404 -14 106 94 205 -14 z m 374 1037 l 452 1037 b 472 1065 452 1048 460 1058 b 557 1185 537 1104 557 1138 b 417 1291 557 1256 511 1291 b 250 1240 344 1291 285 1274 l 283 1182 b 403 1218 315 1206 357 1218 b 476 1172 452 1218 476 1202 b 421 1109 476 1150 460 1133 b 374 1051 391 1089 374 1074 z "},"Ư":{"ha":814,"x_min":0,"x_max":0,"o":"m 404 -14 b 708 309 603 -14 708 94 l 708 899 b 871 1121 820 924 871 991 l 786 1121 b 664 970 786 1028 748 984 l 623 963 l 622 963 l 622 309 b 407 70 622 151 549 70 b 192 309 258 70 192 151 l 192 963 l 106 963 l 106 309 b 404 -14 106 94 205 -14 z "},"Ứ":{"ha":814,"x_min":0,"x_max":0,"o":"m 404 -14 b 708 309 603 -14 708 94 l 708 899 b 871 1121 820 924 871 991 l 786 1121 b 664 970 786 1028 748 984 l 623 963 l 622 963 l 622 309 b 407 70 622 151 549 70 b 192 309 258 70 192 151 l 192 963 l 106 963 l 106 309 b 404 -14 106 94 205 -14 z m 352 1072 l 455 1072 l 623 1241 l 503 1241 z "},"Ự":{"ha":814,"x_min":0,"x_max":0,"o":"m 404 -14 b 708 309 603 -14 708 94 l 708 899 b 871 1121 820 924 871 991 l 786 1121 b 664 970 786 1028 748 984 l 623 963 l 622 963 l 622 309 b 407 70 622 151 549 70 b 192 309 258 70 192 151 l 192 963 l 106 963 l 106 309 b 404 -14 106 94 205 -14 z m 407 -269 b 482 -195 448 -269 482 -236 b 407 -119 482 -153 448 -119 b 332 -195 366 -119 332 -153 b 407 -269 332 -236 366 -269 z "},"Ừ":{"ha":814,"x_min":0,"x_max":0,"o":"m 404 -14 b 708 309 603 -14 708 94 l 708 899 b 871 1121 820 924 871 991 l 786 1121 b 664 970 786 1028 748 984 l 623 963 l 622 963 l 622 309 b 407 70 622 151 549 70 b 192 309 258 70 192 151 l 192 963 l 106 963 l 106 309 b 404 -14 106 94 205 -14 z m 361 1072 l 465 1072 l 313 1241 l 194 1241 z "},"Ử":{"ha":814,"x_min":0,"x_max":0,"o":"m 404 -14 b 708 309 603 -14 708 94 l 708 899 b 871 1121 820 924 871 991 l 786 1121 b 664 970 786 1028 748 984 l 623 963 l 622 963 l 622 309 b 407 70 622 151 549 70 b 192 309 258 70 192 151 l 192 963 l 106 963 l 106 309 b 404 -14 106 94 205 -14 z m 374 1037 l 452 1037 b 472 1065 452 1048 460 1058 b 557 1185 537 1104 557 1138 b 417 1291 557 1256 511 1291 b 250 1240 344 1291 285 1274 l 283 1182 b 403 1218 315 1206 357 1218 b 476 1172 452 1218 476 1202 b 421 1109 476 1150 460 1133 b 374 1051 391 1089 374 1074 z "},"Ữ":{"ha":814,"x_min":0,"x_max":0,"o":"m 404 -14 b 708 309 603 -14 708 94 l 708 899 b 871 1121 820 924 871 991 l 786 1121 b 664 970 786 1028 748 984 l 623 963 l 622 963 l 622 309 b 407 70 622 151 549 70 b 192 309 258 70 192 151 l 192 963 l 106 963 l 106 309 b 404 -14 106 94 205 -14 z m 161 1062 l 241 1062 l 241 1116 b 301 1190 241 1166 261 1190 b 408 1142 327 1190 363 1172 b 549 1085 465 1104 511 1085 b 667 1239 627 1085 667 1136 l 667 1282 l 587 1282 l 587 1232 b 540 1161 587 1184 571 1161 b 429 1213 513 1161 479 1179 b 293 1265 376 1248 332 1265 b 161 1109 205 1265 161 1214 z "},"Ű":{"ha":814,"x_min":0,"x_max":0,"o":"m 404 -14 b 708 309 603 -14 708 94 l 708 963 l 622 963 l 622 309 b 407 70 622 151 549 70 b 192 309 258 70 192 151 l 192 963 l 106 963 l 106 309 b 404 -14 106 94 205 -14 z m 221 1072 l 326 1072 l 450 1241 l 332 1241 z m 458 1072 l 564 1072 l 688 1241 l 569 1241 z "},"Ū":{"ha":814,"x_min":0,"x_max":0,"o":"m 404 -14 b 708 309 603 -14 708 94 l 708 963 l 622 963 l 622 309 b 407 70 622 151 549 70 b 192 309 258 70 192 151 l 192 963 l 106 963 l 106 309 b 404 -14 106 94 205 -14 z m 144 1094 l 669 1094 l 669 1177 l 144 1177 z "},"Ų":{"ha":814,"x_min":0,"x_max":0,"o":"m 437 -288 b 500 -281 455 -288 477 -286 l 507 -208 b 454 -212 487 -210 469 -212 b 353 -132 385 -212 353 -178 b 500 -3 353 -58 412 -31 b 708 309 636 27 708 132 l 708 963 l 622 963 l 622 309 b 407 70 622 151 549 70 b 192 309 258 70 192 151 l 192 963 l 106 963 l 106 309 b 363 -12 106 109 192 2 l 363 -21 b 279 -151 310 -41 279 -89 b 437 -288 279 -238 336 -288 z "},"Ʊ":{"ha":814,"x_min":0,"x_max":0,"o":"m 81 963 l 81 881 l 237 881 l 237 873 b 62 425 130 814 62 680 b 407 -14 62 140 183 -14 b 751 425 631 -14 751 140 b 593 873 751 684 690 818 l 593 881 l 732 881 l 732 963 l 471 963 l 471 881 b 663 443 598 831 663 686 b 407 68 663 199 573 68 b 151 443 241 68 151 199 b 359 881 151 682 221 827 l 359 963 z "},"Ů":{"ha":814,"x_min":0,"x_max":0,"o":"m 404 -14 b 708 309 603 -14 708 94 l 708 963 l 622 963 l 622 309 b 407 70 622 151 549 70 b 192 309 258 70 192 151 l 192 963 l 106 963 l 106 309 b 404 -14 106 94 205 -14 z m 407 1009 b 559 1149 500 1009 559 1063 b 407 1289 559 1234 500 1289 b 254 1149 313 1289 254 1234 b 407 1009 254 1063 313 1009 z m 407 1069 b 321 1149 354 1069 321 1101 b 407 1228 321 1197 354 1228 b 493 1149 460 1228 493 1197 b 407 1069 493 1101 460 1069 z "},"Ũ":{"ha":814,"x_min":0,"x_max":0,"o":"m 404 -14 b 708 309 603 -14 708 94 l 708 963 l 622 963 l 622 309 b 407 70 622 151 549 70 b 192 309 258 70 192 151 l 192 963 l 106 963 l 106 309 b 404 -14 106 94 205 -14 z m 161 1062 l 241 1062 l 241 1116 b 301 1190 241 1166 261 1190 b 408 1142 327 1190 363 1172 b 549 1085 465 1104 511 1085 b 667 1239 627 1085 667 1136 l 667 1282 l 587 1282 l 587 1232 b 540 1161 587 1184 571 1161 b 429 1213 513 1161 479 1179 b 293 1265 376 1248 332 1265 b 161 1109 205 1265 161 1214 z "},"V":{"ha":814,"x_min":0,"x_max":0,"o":"m 343 0 l 471 0 l 772 963 l 683 963 l 411 73 l 403 73 l 131 963 l 41 963 z "},"Ɣ":{"ha":814,"x_min":0,"x_max":0,"o":"m 407 -313 b 597 -153 524 -313 597 -252 b 480 30 597 -90 567 -37 l 772 963 l 683 963 l 411 73 l 403 73 l 131 963 l 41 963 l 334 30 b 216 -153 247 -37 216 -90 b 407 -313 216 -252 290 -313 z m 300 -143 b 407 5 300 -101 328 -61 b 513 -143 486 -61 513 -101 b 407 -235 513 -200 473 -235 b 300 -143 341 -235 300 -200 z "},"Ʋ":{"ha":814,"x_min":0,"x_max":0,"o":"m 448 963 l 448 880 l 530 880 b 622 771 593 880 622 846 l 622 309 b 407 70 622 151 549 70 b 192 309 258 70 192 151 l 192 963 l 106 963 l 106 309 b 404 -14 106 94 205 -14 b 708 309 603 -14 708 94 l 708 782 b 546 963 708 907 659 963 z "},"Ʌ":{"ha":814,"x_min":0,"x_max":0,"o":"m 41 0 l 132 0 l 403 889 l 411 889 l 682 0 l 772 0 l 469 963 l 345 963 z "},"W":{"ha":814,"x_min":0,"x_max":0,"o":"m 160 0 l 300 0 l 403 642 l 411 642 l 514 0 l 654 0 l 789 963 l 703 963 l 585 73 l 572 73 l 464 719 l 351 719 l 242 73 l 229 73 l 111 963 l 24 963 z "},"Ẃ":{"ha":814,"x_min":0,"x_max":0,"o":"m 160 0 l 300 0 l 403 642 l 411 642 l 514 0 l 654 0 l 789 963 l 703 963 l 585 73 l 572 73 l 464 719 l 351 719 l 242 73 l 229 73 l 111 963 l 24 963 z m 352 1072 l 455 1072 l 623 1241 l 503 1241 z "},"Ŵ":{"ha":814,"x_min":0,"x_max":0,"o":"m 160 0 l 300 0 l 403 642 l 411 642 l 514 0 l 654 0 l 789 963 l 703 963 l 585 73 l 572 73 l 464 719 l 351 719 l 242 73 l 229 73 l 111 963 l 24 963 z m 182 1072 l 290 1072 l 408 1188 l 526 1072 l 634 1072 l 446 1248 l 370 1248 z "},"Ẅ":{"ha":814,"x_min":0,"x_max":0,"o":"m 160 0 l 300 0 l 403 642 l 411 642 l 514 0 l 654 0 l 789 963 l 703 963 l 585 73 l 572 73 l 464 719 l 351 719 l 242 73 l 229 73 l 111 963 l 24 963 z m 266 1087 b 341 1162 307 1087 341 1120 b 266 1238 341 1204 307 1238 b 191 1162 224 1238 191 1204 b 266 1087 191 1120 224 1087 z m 548 1087 b 623 1162 589 1087 623 1120 b 548 1238 623 1204 589 1238 b 473 1162 507 1238 473 1204 b 548 1087 473 1120 507 1087 z "},"Ẁ":{"ha":814,"x_min":0,"x_max":0,"o":"m 160 0 l 300 0 l 403 642 l 411 642 l 514 0 l 654 0 l 789 963 l 703 963 l 585 73 l 572 73 l 464 719 l 351 719 l 242 73 l 229 73 l 111 963 l 24 963 z m 361 1072 l 465 1072 l 313 1241 l 194 1241 z "},"X":{"ha":814,"x_min":0,"x_max":0,"o":"m 662 0 l 759 0 l 450 476 l 759 963 l 662 963 l 407 545 l 152 963 l 55 963 l 363 476 l 55 0 l 152 0 l 407 408 z "},"Y":{"ha":814,"x_min":0,"x_max":0,"o":"m 364 0 l 450 0 l 450 344 l 786 963 l 692 963 l 411 434 l 403 434 l 122 963 l 28 963 l 364 344 z "},"Ý":{"ha":814,"x_min":0,"x_max":0,"o":"m 364 0 l 450 0 l 450 344 l 786 963 l 692 963 l 411 434 l 403 434 l 122 963 l 28 963 l 364 344 z m 352 1072 l 455 1072 l 623 1241 l 503 1241 z "},"Ŷ":{"ha":814,"x_min":0,"x_max":0,"o":"m 364 0 l 450 0 l 450 344 l 786 963 l 692 963 l 411 434 l 403 434 l 122 963 l 28 963 l 364 344 z m 182 1072 l 290 1072 l 408 1188 l 526 1072 l 634 1072 l 446 1248 l 370 1248 z "},"Ÿ":{"ha":814,"x_min":0,"x_max":0,"o":"m 364 0 l 450 0 l 450 344 l 786 963 l 692 963 l 411 434 l 403 434 l 122 963 l 28 963 l 364 344 z m 266 1087 b 341 1162 307 1087 341 1120 b 266 1238 341 1204 307 1238 b 191 1162 224 1238 191 1204 b 266 1087 191 1120 224 1087 z m 548 1087 b 623 1162 589 1087 623 1120 b 548 1238 623 1204 589 1238 b 473 1162 507 1238 473 1204 b 548 1087 473 1120 507 1087 z "},"Ỵ":{"ha":814,"x_min":0,"x_max":0,"o":"m 364 0 l 450 0 l 450 344 l 786 963 l 692 963 l 411 434 l 403 434 l 122 963 l 28 963 l 364 344 z m 407 -269 b 482 -195 448 -269 482 -236 b 407 -119 482 -153 448 -119 b 332 -195 366 -119 332 -153 b 407 -269 332 -236 366 -269 z "},"Ỳ":{"ha":814,"x_min":0,"x_max":0,"o":"m 364 0 l 450 0 l 450 344 l 786 963 l 692 963 l 411 434 l 403 434 l 122 963 l 28 963 l 364 344 z m 361 1072 l 465 1072 l 313 1241 l 194 1241 z "},"Ỷ":{"ha":814,"x_min":0,"x_max":0,"o":"m 364 0 l 450 0 l 450 344 l 786 963 l 692 963 l 411 434 l 403 434 l 122 963 l 28 963 l 364 344 z m 374 1037 l 452 1037 b 472 1065 452 1048 460 1058 b 557 1185 537 1104 557 1138 b 417 1291 557 1256 511 1291 b 250 1240 344 1291 285 1274 l 283 1182 b 403 1218 315 1206 357 1218 b 476 1172 452 1218 476 1202 b 421 1109 476 1150 460 1133 b 374 1051 391 1089 374 1074 z "},"Ȳ":{"ha":814,"x_min":0,"x_max":0,"o":"m 364 0 l 450 0 l 450 344 l 786 963 l 692 963 l 411 434 l 403 434 l 122 963 l 28 963 l 364 344 z m 144 1094 l 669 1094 l 669 1177 l 144 1177 z "},"Ỹ":{"ha":814,"x_min":0,"x_max":0,"o":"m 364 0 l 450 0 l 450 344 l 786 963 l 692 963 l 411 434 l 403 434 l 122 963 l 28 963 l 364 344 z m 161 1062 l 241 1062 l 241 1116 b 301 1190 241 1166 261 1190 b 408 1142 327 1190 363 1172 b 549 1085 465 1104 511 1085 b 667 1239 627 1085 667 1136 l 667 1282 l 587 1282 l 587 1232 b 540 1161 587 1184 571 1161 b 429 1213 513 1161 479 1179 b 293 1265 376 1248 332 1265 b 161 1109 205 1265 161 1214 z "},"Z":{"ha":814,"x_min":0,"x_max":0,"o":"m 113 0 l 715 0 l 715 83 l 211 83 l 701 880 l 701 963 l 113 963 l 113 880 l 602 880 l 113 83 z "},"Ź":{"ha":814,"x_min":0,"x_max":0,"o":"m 113 0 l 715 0 l 715 83 l 211 83 l 701 880 l 701 963 l 113 963 l 113 880 l 602 880 l 113 83 z m 352 1072 l 455 1072 l 623 1241 l 503 1241 z "},"Ž":{"ha":814,"x_min":0,"x_max":0,"o":"m 113 0 l 715 0 l 715 83 l 211 83 l 701 880 l 701 963 l 113 963 l 113 880 l 602 880 l 113 83 z m 369 1072 l 445 1072 l 633 1248 l 525 1248 l 407 1133 l 289 1248 l 181 1248 z "},"Ż":{"ha":814,"x_min":0,"x_max":0,"o":"m 113 0 l 715 0 l 715 83 l 211 83 l 701 880 l 701 963 l 113 963 l 113 880 l 602 880 l 113 83 z m 407 1087 b 482 1162 448 1087 482 1121 b 407 1238 482 1204 448 1238 b 332 1162 366 1238 332 1204 b 407 1087 332 1121 366 1087 z "},"ᴀ":{"ha":814,"x_min":0,"x_max":0,"o":"m 41 0 l 134 0 l 210 184 l 604 184 l 680 0 l 773 0 l 469 732 l 345 732 z m 241 260 l 403 654 l 411 654 l 573 260 z "},"ɢ":{"ha":814,"x_min":0,"x_max":0,"o":"m 458 -10 b 739 20 590 -10 697 12 l 739 359 l 441 359 l 441 276 l 649 276 l 649 92 b 475 75 604 83 545 75 b 157 372 270 75 157 179 b 470 657 157 553 271 657 b 704 589 564 657 646 632 l 756 665 b 462 742 702 714 595 742 b 64 367 210 742 64 606 b 458 -10 64 121 203 -10 z "},"ɪ":{"ha":814,"x_min":0,"x_max":0,"o":"m 125 0 l 689 0 l 689 80 l 452 80 l 452 639 l 689 639 l 689 719 l 125 719 l 125 639 l 361 639 l 361 80 l 125 80 z "},"ʟ":{"ha":814,"x_min":0,"x_max":0,"o":"m 119 0 l 736 0 l 736 80 l 209 80 l 209 732 l 119 732 z "},"a":{"ha":814,"x_min":0,"x_max":0,"o":"m 583 -7 l 774 0 l 774 67 l 651 78 l 651 413 b 312 724 651 623 547 720 l 178 726 l 164 642 l 317 639 b 563 427 486 635 563 573 l 563 396 b 391 408 515 404 456 408 b 76 180 184 408 76 330 b 303 -14 76 57 159 -14 b 567 152 445 -14 551 52 l 576 152 z m 563 321 l 563 254 b 311 66 563 151 460 66 b 165 185 218 66 165 109 b 389 330 165 282 239 330 b 563 321 446 330 510 330 z "},"á":{"ha":814,"x_min":0,"x_max":0,"o":"m 583 -7 l 774 0 l 774 67 l 651 78 l 651 413 b 312 724 651 623 547 720 l 178 726 l 164 642 l 317 639 b 563 427 486 635 563 573 l 563 396 b 391 408 515 404 456 408 b 76 180 184 408 76 330 b 303 -14 76 57 159 -14 b 567 152 445 -14 551 52 l 576 152 z m 563 321 l 563 254 b 311 66 563 151 460 66 b 165 185 218 66 165 109 b 389 330 165 282 239 330 b 563 321 446 330 510 330 z m 345 846 l 434 846 l 590 1104 l 492 1104 z "},"ă":{"ha":814,"x_min":0,"x_max":0,"o":"m 583 -7 l 774 0 l 774 67 l 651 78 l 651 413 b 312 724 651 623 547 720 l 178 726 l 164 642 l 317 639 b 563 427 486 635 563 573 l 563 396 b 391 408 515 404 456 408 b 76 180 184 408 76 330 b 303 -14 76 57 159 -14 b 567 152 445 -14 551 52 l 576 152 z m 563 321 l 563 254 b 311 66 563 151 460 66 b 165 185 218 66 165 109 b 389 330 165 282 239 330 b 563 321 446 330 510 330 z m 393 840 b 623 1058 539 840 623 919 l 623 1087 l 543 1087 l 543 1058 b 393 909 543 962 490 909 b 243 1058 297 909 243 962 l 243 1087 l 163 1087 l 163 1058 b 393 840 163 919 248 840 z "},"ắ":{"ha":814,"x_min":0,"x_max":0,"o":"m 583 -7 l 774 0 l 774 67 l 651 78 l 651 413 b 312 724 651 623 547 720 l 178 726 l 164 642 l 317 639 b 563 427 486 635 563 573 l 563 396 b 391 408 515 404 456 408 b 76 180 184 408 76 330 b 303 -14 76 57 159 -14 b 567 152 445 -14 551 52 l 576 152 z m 563 321 l 563 254 b 311 66 563 151 460 66 b 165 185 218 66 165 109 b 389 330 165 282 239 330 b 563 321 446 330 510 330 z m 393 840 b 623 1058 539 840 623 919 l 623 1087 l 543 1087 l 543 1058 b 393 909 543 962 490 909 b 243 1058 297 909 243 962 l 243 1087 l 163 1087 l 163 1058 b 393 840 163 919 248 840 z m 345 1172 l 434 1172 l 590 1430 l 492 1430 z "},"ặ":{"ha":814,"x_min":0,"x_max":0,"o":"m 583 -7 l 774 0 l 774 67 l 651 78 l 651 413 b 312 724 651 623 547 720 l 178 726 l 164 642 l 317 639 b 563 427 486 635 563 573 l 563 396 b 391 408 515 404 456 408 b 76 180 184 408 76 330 b 303 -14 76 57 159 -14 b 567 152 445 -14 551 52 l 576 152 z m 563 321 l 563 254 b 311 66 563 151 460 66 b 165 185 218 66 165 109 b 389 330 165 282 239 330 b 563 321 446 330 510 330 z m 393 840 b 623 1058 539 840 623 919 l 623 1087 l 543 1087 l 543 1058 b 393 909 543 962 490 909 b 243 1058 297 909 243 962 l 243 1087 l 163 1087 l 163 1058 b 393 840 163 919 248 840 z m 407 -269 b 482 -195 448 -269 482 -236 b 407 -119 482 -153 448 -119 b 332 -195 366 -119 332 -153 b 407 -269 332 -236 366 -269 z "},"ằ":{"ha":814,"x_min":0,"x_max":0,"o":"m 583 -7 l 774 0 l 774 67 l 651 78 l 651 413 b 312 724 651 623 547 720 l 178 726 l 164 642 l 317 639 b 563 427 486 635 563 573 l 563 396 b 391 408 515 404 456 408 b 76 180 184 408 76 330 b 303 -14 76 57 159 -14 b 567 152 445 -14 551 52 l 576 152 z m 563 321 l 563 254 b 311 66 563 151 460 66 b 165 185 218 66 165 109 b 389 330 165 282 239 330 b 563 321 446 330 510 330 z m 393 840 b 623 1058 539 840 623 919 l 623 1087 l 543 1087 l 543 1058 b 393 909 543 962 490 909 b 243 1058 297 909 243 962 l 243 1087 l 163 1087 l 163 1058 b 393 840 163 919 248 840 z m 366 1172 l 454 1172 l 307 1430 l 210 1430 z "},"ẳ":{"ha":814,"x_min":0,"x_max":0,"o":"m 583 -7 l 774 0 l 774 67 l 651 78 l 651 413 b 312 724 651 623 547 720 l 178 726 l 164 642 l 317 639 b 563 427 486 635 563 573 l 563 396 b 391 408 515 404 456 408 b 76 180 184 408 76 330 b 303 -14 76 57 159 -14 b 567 152 445 -14 551 52 l 576 152 z m 563 321 l 563 254 b 311 66 563 151 460 66 b 165 185 218 66 165 109 b 389 330 165 282 239 330 b 563 321 446 330 510 330 z m 393 840 b 623 1058 539 840 623 919 l 623 1087 l 543 1087 l 543 1058 b 393 909 543 962 490 909 b 243 1058 297 909 243 962 l 243 1087 l 163 1087 l 163 1058 b 393 840 163 919 248 840 z m 354 1172 l 433 1172 l 433 1178 b 522 1360 433 1256 522 1265 b 390 1473 522 1432 475 1473 b 250 1425 332 1473 279 1455 l 286 1364 b 380 1397 310 1384 347 1397 b 441 1351 420 1397 441 1381 b 354 1187 441 1296 354 1272 z "},"ẵ":{"ha":814,"x_min":0,"x_max":0,"o":"m 583 -7 l 774 0 l 774 67 l 651 78 l 651 413 b 312 724 651 623 547 720 l 178 726 l 164 642 l 317 639 b 563 427 486 635 563 573 l 563 396 b 391 408 515 404 456 408 b 76 180 184 408 76 330 b 303 -14 76 57 159 -14 b 567 152 445 -14 551 52 l 576 152 z m 563 321 l 563 254 b 311 66 563 151 460 66 b 165 185 218 66 165 109 b 389 330 165 282 239 330 b 563 321 446 330 510 330 z m 163 1177 l 243 1177 l 243 1211 b 307 1293 243 1266 264 1293 b 398 1246 336 1293 368 1265 b 520 1194 446 1215 487 1194 b 637 1356 598 1194 637 1248 l 637 1411 l 558 1411 l 558 1350 b 512 1274 558 1299 543 1274 b 406 1326 490 1274 455 1293 b 295 1374 369 1352 335 1374 b 163 1204 207 1374 163 1318 z m 393 840 b 623 1058 539 840 623 919 l 623 1087 l 543 1087 l 543 1058 b 393 909 543 962 490 909 b 243 1058 297 909 243 962 l 243 1087 l 163 1087 l 163 1058 b 393 840 163 919 248 840 z "},"ǎ":{"ha":814,"x_min":0,"x_max":0,"o":"m 583 -7 l 774 0 l 774 67 l 651 78 l 651 413 b 312 724 651 623 547 720 l 178 726 l 164 642 l 317 639 b 563 427 486 635 563 573 l 563 396 b 391 408 515 404 456 408 b 76 180 184 408 76 330 b 303 -14 76 57 159 -14 b 567 152 445 -14 551 52 l 576 152 z m 563 321 l 563 254 b 311 66 563 151 460 66 b 165 185 218 66 165 109 b 389 330 165 282 239 330 b 563 321 446 330 510 330 z m 360 821 l 427 821 l 614 1078 l 511 1078 l 393 901 l 275 1078 l 172 1078 z "},"â":{"ha":814,"x_min":0,"x_max":0,"o":"m 583 -7 l 774 0 l 774 67 l 651 78 l 651 413 b 312 724 651 623 547 720 l 178 726 l 164 642 l 317 639 b 563 427 486 635 563 573 l 563 396 b 391 408 515 404 456 408 b 76 180 184 408 76 330 b 303 -14 76 57 159 -14 b 567 152 445 -14 551 52 l 576 152 z m 563 321 l 563 254 b 311 66 563 151 460 66 b 165 185 218 66 165 109 b 389 330 165 282 239 330 b 563 321 446 330 510 330 z m 172 846 l 275 846 l 393 1023 l 511 846 l 614 846 l 427 1104 l 360 1104 z "},"ấ":{"ha":814,"x_min":0,"x_max":0,"o":"m 583 -7 l 774 0 l 774 67 l 651 78 l 651 413 b 312 724 651 623 547 720 l 178 726 l 164 642 l 317 639 b 563 427 486 635 563 573 l 563 396 b 391 408 515 404 456 408 b 76 180 184 408 76 330 b 303 -14 76 57 159 -14 b 567 152 445 -14 551 52 l 576 152 z m 563 321 l 563 254 b 311 66 563 151 460 66 b 165 185 218 66 165 109 b 389 330 165 282 239 330 b 563 321 446 330 510 330 z m 172 846 l 275 846 l 393 1023 l 511 846 l 614 846 l 427 1104 l 360 1104 z m 587 1077 l 676 1077 l 832 1335 l 734 1335 z "},"ậ":{"ha":814,"x_min":0,"x_max":0,"o":"m 583 -7 l 774 0 l 774 67 l 651 78 l 651 413 b 312 724 651 623 547 720 l 178 726 l 164 642 l 317 639 b 563 427 486 635 563 573 l 563 396 b 391 408 515 404 456 408 b 76 180 184 408 76 330 b 303 -14 76 57 159 -14 b 567 152 445 -14 551 52 l 576 152 z m 563 321 l 563 254 b 311 66 563 151 460 66 b 165 185 218 66 165 109 b 389 330 165 282 239 330 b 563 321 446 330 510 330 z m 172 846 l 275 846 l 393 1023 l 511 846 l 614 846 l 427 1104 l 360 1104 z m 407 -269 b 482 -195 448 -269 482 -236 b 407 -119 482 -153 448 -119 b 332 -195 366 -119 332 -153 b 407 -269 332 -236 366 -269 z "},"ầ":{"ha":814,"x_min":0,"x_max":0,"o":"m 583 -7 l 774 0 l 774 67 l 651 78 l 651 413 b 312 724 651 623 547 720 l 178 726 l 164 642 l 317 639 b 563 427 486 635 563 573 l 563 396 b 391 408 515 404 456 408 b 76 180 184 408 76 330 b 303 -14 76 57 159 -14 b 567 152 445 -14 551 52 l 576 152 z m 563 321 l 563 254 b 311 66 563 151 460 66 b 165 185 218 66 165 109 b 389 330 165 282 239 330 b 563 321 446 330 510 330 z m 172 846 l 275 846 l 393 1023 l 511 846 l 614 846 l 427 1104 l 360 1104 z m 608 1077 l 696 1077 l 549 1335 l 452 1335 z "},"ẩ":{"ha":814,"x_min":0,"x_max":0,"o":"m 583 -7 l 774 0 l 774 67 l 651 78 l 651 413 b 312 724 651 623 547 720 l 178 726 l 164 642 l 317 639 b 563 427 486 635 563 573 l 563 396 b 391 408 515 404 456 408 b 76 180 184 408 76 330 b 303 -14 76 57 159 -14 b 567 152 445 -14 551 52 l 576 152 z m 563 321 l 563 254 b 311 66 563 151 460 66 b 165 185 218 66 165 109 b 389 330 165 282 239 330 b 563 321 446 330 510 330 z m 172 846 l 275 846 l 393 1023 l 511 846 l 614 846 l 427 1104 l 360 1104 z m 596 1077 l 675 1077 l 675 1083 b 764 1265 675 1161 764 1170 b 632 1378 764 1337 717 1378 b 492 1330 574 1378 522 1360 l 528 1269 b 622 1302 552 1289 589 1302 b 683 1256 662 1302 683 1286 b 596 1093 683 1201 596 1177 z "},"ẫ":{"ha":814,"x_min":0,"x_max":0,"o":"m 583 -7 l 774 0 l 774 67 l 651 78 l 651 413 b 312 724 651 623 547 720 l 178 726 l 164 642 l 317 639 b 563 427 486 635 563 573 l 563 396 b 391 408 515 404 456 408 b 76 180 184 408 76 330 b 303 -14 76 57 159 -14 b 567 152 445 -14 551 52 l 576 152 z m 563 321 l 563 254 b 311 66 563 151 460 66 b 165 185 218 66 165 109 b 389 330 165 282 239 330 b 563 321 446 330 510 330 z m 163 1204 l 243 1204 l 243 1238 b 307 1320 243 1293 264 1320 b 398 1273 336 1320 368 1293 b 520 1221 446 1242 487 1221 b 637 1383 598 1221 637 1275 l 637 1438 l 558 1438 l 558 1377 b 512 1301 558 1326 543 1301 b 406 1353 490 1301 455 1320 b 295 1401 369 1379 335 1401 b 163 1232 207 1401 163 1345 z m 172 846 l 275 846 l 393 1023 l 511 846 l 614 846 l 427 1104 l 360 1104 z "},"ä":{"ha":814,"x_min":0,"x_max":0,"o":"m 583 -7 l 774 0 l 774 67 l 651 78 l 651 413 b 312 724 651 623 547 720 l 178 726 l 164 642 l 317 639 b 563 427 486 635 563 573 l 563 396 b 391 408 515 404 456 408 b 76 180 184 408 76 330 b 303 -14 76 57 159 -14 b 567 152 445 -14 551 52 l 576 152 z m 563 321 l 563 254 b 311 66 563 151 460 66 b 165 185 218 66 165 109 b 389 330 165 282 239 330 b 563 321 446 330 510 330 z m 252 855 b 328 930 294 855 328 889 b 252 1006 328 972 294 1006 b 177 930 211 1006 177 972 b 252 855 177 889 211 855 z m 537 855 b 612 930 578 855 612 889 b 537 1006 612 972 578 1006 b 462 930 496 1006 462 972 b 537 855 462 889 496 855 z "},"ạ":{"ha":814,"x_min":0,"x_max":0,"o":"m 583 -7 l 774 0 l 774 67 l 651 78 l 651 413 b 312 724 651 623 547 720 l 178 726 l 164 642 l 317 639 b 563 427 486 635 563 573 l 563 396 b 391 408 515 404 456 408 b 76 180 184 408 76 330 b 303 -14 76 57 159 -14 b 567 152 445 -14 551 52 l 576 152 z m 563 321 l 563 254 b 311 66 563 151 460 66 b 165 185 218 66 165 109 b 389 330 165 282 239 330 b 563 321 446 330 510 330 z m 407 -269 b 482 -195 448 -269 482 -236 b 407 -119 482 -153 448 -119 b 332 -195 366 -119 332 -153 b 407 -269 332 -236 366 -269 z "},"à":{"ha":814,"x_min":0,"x_max":0,"o":"m 583 -7 l 774 0 l 774 67 l 651 78 l 651 413 b 312 724 651 623 547 720 l 178 726 l 164 642 l 317 639 b 563 427 486 635 563 573 l 563 396 b 391 408 515 404 456 408 b 76 180 184 408 76 330 b 303 -14 76 57 159 -14 b 567 152 445 -14 551 52 l 576 152 z m 563 321 l 563 254 b 311 66 563 151 460 66 b 165 185 218 66 165 109 b 389 330 165 282 239 330 b 563 321 446 330 510 330 z m 366 846 l 454 846 l 307 1104 l 210 1104 z "},"ả":{"ha":814,"x_min":0,"x_max":0,"o":"m 583 -7 l 774 0 l 774 67 l 651 78 l 651 413 b 312 724 651 623 547 720 l 178 726 l 164 642 l 317 639 b 563 427 486 635 563 573 l 563 396 b 391 408 515 404 456 408 b 76 180 184 408 76 330 b 303 -14 76 57 159 -14 b 567 152 445 -14 551 52 l 576 152 z m 563 321 l 563 254 b 311 66 563 151 460 66 b 165 185 218 66 165 109 b 389 330 165 282 239 330 b 563 321 446 330 510 330 z m 354 846 l 433 846 l 433 852 b 522 1035 433 930 522 939 b 390 1147 522 1107 475 1147 b 250 1099 332 1147 279 1129 l 286 1038 b 380 1072 310 1059 347 1072 b 441 1025 420 1072 441 1055 b 354 862 441 970 354 947 z "},"ɑ":{"ha":814,"x_min":0,"x_max":0,"o":"m 356 -14 b 570 135 478 -14 556 53 l 581 135 l 587 -7 l 779 0 l 779 66 l 663 78 l 663 719 l 573 719 l 573 584 l 564 584 b 359 732 547 676 479 732 b 67 353 173 732 67 594 b 356 -14 67 117 172 -14 z m 573 314 b 370 68 573 153 503 68 b 158 353 230 68 158 165 b 371 650 158 542 235 650 b 573 405 503 650 573 567 z "},"ā":{"ha":814,"x_min":0,"x_max":0,"o":"m 583 -7 l 774 0 l 774 67 l 651 78 l 651 413 b 312 724 651 623 547 720 l 178 726 l 164 642 l 317 639 b 563 427 486 635 563 573 l 563 396 b 391 408 515 404 456 408 b 76 180 184 408 76 330 b 303 -14 76 57 159 -14 b 567 152 445 -14 551 52 l 576 152 z m 563 321 l 563 254 b 311 66 563 151 460 66 b 165 185 218 66 165 109 b 389 330 165 282 239 330 b 563 321 446 330 510 330 z m 113 846 l 673 846 l 673 930 l 113 930 z "},"ą":{"ha":814,"x_min":0,"x_max":0,"o":"m 690 -288 b 753 -281 708 -288 731 -286 l 760 -208 b 707 -212 741 -210 722 -212 b 606 -132 643 -212 606 -183 b 751 -1 606 -58 659 -7 l 774 0 l 774 67 l 651 78 l 651 413 b 312 724 651 623 547 720 l 178 726 l 164 642 l 317 639 b 563 427 486 635 563 573 l 563 396 b 391 408 515 404 456 408 b 76 180 184 408 76 330 b 303 -14 76 57 159 -14 b 567 152 445 -14 551 52 l 576 152 l 583 -7 l 613 -5 l 613 -15 b 532 -146 562 -41 532 -89 b 690 -288 532 -236 589 -288 z m 563 321 l 563 254 b 311 66 563 151 460 66 b 165 185 218 66 165 109 b 389 330 165 282 239 330 b 563 321 446 330 510 330 z "},"å":{"ha":814,"x_min":0,"x_max":0,"o":"m 583 -7 l 774 0 l 774 67 l 651 78 l 651 413 b 312 724 651 623 547 720 l 178 726 l 164 642 l 317 639 b 563 427 486 635 563 573 l 563 396 b 391 408 515 404 456 408 b 76 180 184 408 76 330 b 303 -14 76 57 159 -14 b 567 152 445 -14 551 52 l 576 152 z m 563 321 l 563 254 b 311 66 563 151 460 66 b 165 185 218 66 165 109 b 389 330 165 282 239 330 b 563 321 446 330 510 330 z m 393 812 b 544 959 489 812 544 866 b 393 1105 544 1052 489 1105 b 243 959 298 1105 243 1052 b 393 812 243 866 298 812 z m 393 877 b 315 959 343 877 315 907 b 393 1041 315 1011 343 1041 b 471 959 444 1041 471 1011 b 393 877 471 907 444 877 z "},"ǻ":{"ha":814,"x_min":0,"x_max":0,"o":"m 583 -7 l 774 0 l 774 67 l 651 78 l 651 413 b 312 724 651 623 547 720 l 178 726 l 164 642 l 317 639 b 563 427 486 635 563 573 l 563 396 b 391 408 515 404 456 408 b 76 180 184 408 76 330 b 303 -14 76 57 159 -14 b 567 152 445 -14 551 52 l 576 152 z m 393 812 b 544 959 489 812 544 866 b 433 1102 544 1038 504 1088 l 556 1305 l 458 1305 l 340 1099 b 243 959 278 1082 243 1033 b 393 812 243 866 298 812 z m 563 321 l 563 254 b 311 66 563 151 460 66 b 165 185 218 66 165 109 b 389 330 165 282 239 330 b 563 321 446 330 510 330 z m 393 877 b 315 959 343 877 315 907 b 393 1041 315 1011 343 1041 b 471 959 444 1041 471 1011 b 393 877 471 907 444 877 z "},"ã":{"ha":814,"x_min":0,"x_max":0,"o":"m 583 -7 l 774 0 l 774 67 l 651 78 l 651 413 b 312 724 651 623 547 720 l 178 726 l 164 642 l 317 639 b 563 427 486 635 563 573 l 563 396 b 391 408 515 404 456 408 b 76 180 184 408 76 330 b 303 -14 76 57 159 -14 b 567 152 445 -14 551 52 l 576 152 z m 563 321 l 563 254 b 311 66 563 151 460 66 b 165 185 218 66 165 109 b 389 330 165 282 239 330 b 563 321 446 330 510 330 z m 163 852 l 243 852 l 243 886 b 307 968 243 941 264 968 b 398 920 336 968 368 940 b 520 868 446 890 487 868 b 637 1031 598 868 637 922 l 637 1085 l 558 1085 l 558 1024 b 512 949 558 974 543 949 b 406 1000 490 949 455 967 b 295 1048 369 1027 335 1048 b 163 879 207 1048 163 992 z "},"æ":{"ha":814,"x_min":0,"x_max":0,"o":"m 211 -14 b 402 174 319 -14 385 55 l 409 174 b 644 -14 448 51 528 -14 b 748 2 680 -14 718 -7 l 735 85 b 661 71 711 76 683 71 b 449 310 539 71 464 158 l 777 310 b 781 380 780 331 781 357 b 588 732 781 612 715 732 b 406 559 500 732 437 671 b 161 724 370 661 285 719 l 109 726 l 95 643 l 148 641 b 361 452 283 635 361 567 l 361 407 b 258 415 332 412 296 415 b 20 187 104 415 20 334 b 211 -14 20 62 92 -14 z m 361 254 b 223 66 361 139 308 66 b 106 189 151 66 106 112 b 255 337 106 286 158 337 b 361 330 291 337 330 337 z m 446 385 b 585 649 450 557 498 649 b 694 385 659 649 694 564 z "},"ǽ":{"ha":814,"x_min":0,"x_max":0,"o":"m 211 -14 b 402 174 319 -14 385 55 l 409 174 b 644 -14 448 51 528 -14 b 748 2 680 -14 718 -7 l 735 85 b 661 71 711 76 683 71 b 449 310 539 71 464 158 l 777 310 b 781 380 780 331 781 357 b 588 732 781 612 715 732 b 406 559 500 732 437 671 b 161 724 370 661 285 719 l 109 726 l 95 643 l 148 641 b 361 452 283 635 361 567 l 361 407 b 258 415 332 412 296 415 b 20 187 104 415 20 334 b 211 -14 20 62 92 -14 z m 361 254 b 223 66 361 139 308 66 b 106 189 151 66 106 112 b 255 337 106 286 158 337 b 361 330 291 337 330 337 z m 446 385 b 585 649 450 557 498 649 b 694 385 659 649 694 564 z m 359 846 l 448 846 l 604 1104 l 506 1104 z "},"b":{"ha":814,"x_min":0,"x_max":0,"o":"m 281 -14 b 734 407 569 -14 734 140 b 444 732 734 614 629 732 b 219 589 317 732 243 685 l 210 589 l 210 1017 l 121 1017 l 121 0 b 281 -14 176 -8 227 -14 z m 210 404 b 437 650 210 569 286 650 b 644 407 570 650 644 562 b 309 68 644 192 522 68 b 210 74 276 68 241 70 z "},"c":{"ha":814,"x_min":0,"x_max":0,"o":"m 476 -14 b 705 9 551 -14 631 -9 l 694 92 b 484 71 626 79 555 71 b 195 368 295 71 195 173 b 452 648 195 547 290 648 b 659 532 537 648 612 614 l 733 583 b 457 732 692 678 591 732 b 103 361 230 732 103 595 b 476 -14 103 116 233 -14 z "},"ć":{"ha":814,"x_min":0,"x_max":0,"o":"m 476 -14 b 705 9 551 -14 631 -9 l 694 92 b 484 71 626 79 555 71 b 195 368 295 71 195 173 b 452 648 195 547 290 648 b 659 532 537 648 612 614 l 733 583 b 457 732 692 678 591 732 b 103 361 230 732 103 595 b 476 -14 103 116 233 -14 z m 393 846 l 481 846 l 637 1104 l 540 1104 z "},"č":{"ha":814,"x_min":0,"x_max":0,"o":"m 476 -14 b 705 9 551 -14 631 -9 l 694 92 b 484 71 626 79 555 71 b 195 368 295 71 195 173 b 452 648 195 547 290 648 b 659 532 537 648 612 614 l 733 583 b 457 732 692 678 591 732 b 103 361 230 732 103 595 b 476 -14 103 116 233 -14 z m 408 821 l 474 821 l 662 1078 l 559 1078 l 441 901 l 323 1078 l 220 1078 z "},"ç":{"ha":814,"x_min":0,"x_max":0,"o":"m 476 -14 b 705 9 551 -14 631 -9 l 694 92 b 484 71 626 79 555 71 b 195 368 295 71 195 173 b 452 648 195 547 290 648 b 659 532 537 648 612 614 l 733 583 b 457 732 692 678 591 732 b 103 361 230 732 103 595 b 402 -9 103 142 207 16 l 361 -119 b 497 -184 456 -119 497 -139 b 340 -255 497 -233 449 -255 l 340 -326 b 579 -186 505 -326 579 -282 b 453 -73 579 -122 541 -82 l 471 -14 b 476 -14 473 -14 475 -14 z "},"ĉ":{"ha":814,"x_min":0,"x_max":0,"o":"m 476 -14 b 705 9 551 -14 631 -9 l 694 92 b 484 71 626 79 555 71 b 195 368 295 71 195 173 b 452 648 195 547 290 648 b 659 532 537 648 612 614 l 733 583 b 457 732 692 678 591 732 b 103 361 230 732 103 595 b 476 -14 103 116 233 -14 z m 220 846 l 323 846 l 441 1023 l 559 846 l 662 846 l 474 1104 l 408 1104 z "},"ċ":{"ha":814,"x_min":0,"x_max":0,"o":"m 476 -14 b 705 9 551 -14 631 -9 l 694 92 b 484 71 626 79 555 71 b 195 368 295 71 195 173 b 452 648 195 547 290 648 b 659 532 537 648 612 614 l 733 583 b 457 732 692 678 591 732 b 103 361 230 732 103 595 b 476 -14 103 116 233 -14 z m 439 855 b 515 930 481 855 515 889 b 439 1006 515 972 481 1006 b 364 930 398 1006 364 972 b 439 855 364 889 398 855 z "},"d":{"ha":814,"x_min":0,"x_max":0,"o":"m 363 -14 b 592 157 498 -14 574 51 l 600 157 l 613 -7 l 689 -2 l 689 1017 l 599 1017 l 599 568 l 591 568 b 366 732 572 675 492 732 b 76 353 175 732 76 602 b 363 -14 76 112 174 -14 z m 599 349 b 382 68 599 165 525 68 b 167 353 241 68 167 166 b 382 650 167 549 240 650 b 599 370 524 650 599 554 z "},"ð":{"ha":814,"x_min":0,"x_max":0,"o":"m 393 -14 b 721 325 600 -14 721 111 l 721 389 b 588 830 721 581 680 723 l 736 880 l 718 958 l 524 892 b 260 1028 455 949 368 993 l 231 970 b 441 865 315 941 385 907 l 163 772 l 182 694 l 510 804 b 626 480 585 722 622 616 l 618 480 b 378 624 590 572 500 624 b 87 300 193 624 87 506 b 393 -14 87 102 199 -14 z m 395 70 b 179 300 259 70 179 155 b 401 541 179 454 259 541 b 627 324 537 541 618 463 l 627 279 b 395 70 618 146 533 70 z "},"ď":{"ha":814,"x_min":0,"x_max":0,"o":"m 363 -14 b 592 157 498 -14 574 51 l 600 157 l 613 -7 l 689 -2 l 689 1017 l 599 1017 l 599 568 l 591 568 b 366 732 572 675 492 732 b 76 353 175 732 76 602 b 363 -14 76 112 174 -14 z m 599 349 b 382 68 599 165 525 68 b 167 353 241 68 167 166 b 382 650 167 549 240 650 b 599 370 524 650 599 554 z m 782 806 l 857 806 l 911 1063 l 822 1063 z "},"đ":{"ha":814,"x_min":0,"x_max":0,"o":"m 313 845 l 599 845 l 599 568 l 591 568 b 366 732 572 675 492 732 b 76 353 175 732 76 602 b 363 -14 76 112 174 -14 b 592 157 498 -14 574 51 l 600 157 l 613 -7 l 689 -2 l 689 845 l 772 845 l 772 925 l 689 925 l 689 1017 l 599 1017 l 599 925 l 313 925 z m 599 349 b 382 68 599 165 525 68 b 167 353 241 68 167 166 b 382 650 167 549 240 650 b 599 370 524 650 599 554 z "},"e":{"ha":814,"x_min":0,"x_max":0,"o":"m 477 -14 b 675 5 541 -14 612 -7 l 663 89 b 493 70 608 77 547 70 b 192 328 314 70 207 163 l 707 328 b 711 399 709 347 711 372 b 417 732 711 612 603 732 b 103 366 218 732 103 599 b 477 -14 103 124 239 -14 z m 192 406 b 418 649 203 560 285 649 b 624 406 549 649 624 561 z "},"é":{"ha":814,"x_min":0,"x_max":0,"o":"m 477 -14 b 675 5 541 -14 612 -7 l 663 89 b 493 70 608 77 547 70 b 192 328 314 70 207 163 l 707 328 b 711 399 709 347 711 372 b 417 732 711 612 603 732 b 103 366 218 732 103 599 b 477 -14 103 124 239 -14 z m 192 406 b 418 649 203 560 285 649 b 624 406 549 649 624 561 z m 366 846 l 454 846 l 610 1104 l 513 1104 z "},"ĕ":{"ha":814,"x_min":0,"x_max":0,"o":"m 477 -14 b 675 5 541 -14 612 -7 l 663 89 b 493 70 608 77 547 70 b 192 328 314 70 207 163 l 707 328 b 711 399 709 347 711 372 b 417 732 711 612 603 732 b 103 366 218 732 103 599 b 477 -14 103 124 239 -14 z m 192 406 b 418 649 203 560 285 649 b 624 406 549 649 624 561 z m 414 840 b 644 1058 559 840 644 919 l 644 1087 l 564 1087 l 564 1058 b 414 909 564 962 510 909 b 264 1058 317 909 264 962 l 264 1087 l 184 1087 l 184 1058 b 414 840 184 919 268 840 z "},"ě":{"ha":814,"x_min":0,"x_max":0,"o":"m 477 -14 b 675 5 541 -14 612 -7 l 663 89 b 493 70 608 77 547 70 b 192 328 314 70 207 163 l 707 328 b 711 399 709 347 711 372 b 417 732 711 612 603 732 b 103 366 218 732 103 599 b 477 -14 103 124 239 -14 z m 192 406 b 418 649 203 560 285 649 b 624 406 549 649 624 561 z m 380 821 l 447 821 l 635 1078 l 532 1078 l 414 901 l 296 1078 l 193 1078 z "},"ê":{"ha":814,"x_min":0,"x_max":0,"o":"m 477 -14 b 675 5 541 -14 612 -7 l 663 89 b 493 70 608 77 547 70 b 192 328 314 70 207 163 l 707 328 b 711 399 709 347 711 372 b 417 732 711 612 603 732 b 103 366 218 732 103 599 b 477 -14 103 124 239 -14 z m 192 406 b 418 649 203 560 285 649 b 624 406 549 649 624 561 z m 193 846 l 296 846 l 414 1023 l 532 846 l 635 846 l 447 1104 l 380 1104 z "},"ế":{"ha":814,"x_min":0,"x_max":0,"o":"m 477 -14 b 675 5 541 -14 612 -7 l 663 89 b 493 70 608 77 547 70 b 192 328 314 70 207 163 l 707 328 b 711 399 709 347 711 372 b 417 732 711 612 603 732 b 103 366 218 732 103 599 b 477 -14 103 124 239 -14 z m 192 406 b 418 649 203 560 285 649 b 624 406 549 649 624 561 z m 193 846 l 296 846 l 414 1023 l 532 846 l 635 846 l 447 1104 l 380 1104 z m 608 1077 l 696 1077 l 852 1335 l 755 1335 z "},"ệ":{"ha":814,"x_min":0,"x_max":0,"o":"m 477 -14 b 675 5 541 -14 612 -7 l 663 89 b 493 70 608 77 547 70 b 192 328 314 70 207 163 l 707 328 b 711 399 709 347 711 372 b 417 732 711 612 603 732 b 103 366 218 732 103 599 b 477 -14 103 124 239 -14 z m 192 406 b 418 649 203 560 285 649 b 624 406 549 649 624 561 z m 193 846 l 296 846 l 414 1023 l 532 846 l 635 846 l 447 1104 l 380 1104 z m 427 -269 b 503 -195 469 -269 503 -236 b 427 -119 503 -153 469 -119 b 352 -195 386 -119 352 -153 b 427 -269 352 -236 386 -269 z "},"ề":{"ha":814,"x_min":0,"x_max":0,"o":"m 477 -14 b 675 5 541 -14 612 -7 l 663 89 b 493 70 608 77 547 70 b 192 328 314 70 207 163 l 707 328 b 711 399 709 347 711 372 b 417 732 711 612 603 732 b 103 366 218 732 103 599 b 477 -14 103 124 239 -14 z m 192 406 b 418 649 203 560 285 649 b 624 406 549 649 624 561 z m 193 846 l 296 846 l 414 1023 l 532 846 l 635 846 l 447 1104 l 380 1104 z m 628 1077 l 717 1077 l 570 1335 l 472 1335 z "},"ể":{"ha":814,"x_min":0,"x_max":0,"o":"m 477 -14 b 675 5 541 -14 612 -7 l 663 89 b 493 70 608 77 547 70 b 192 328 314 70 207 163 l 707 328 b 711 399 709 347 711 372 b 417 732 711 612 603 732 b 103 366 218 732 103 599 b 477 -14 103 124 239 -14 z m 192 406 b 418 649 203 560 285 649 b 624 406 549 649 624 561 z m 193 846 l 296 846 l 414 1023 l 532 846 l 635 846 l 447 1104 l 380 1104 z m 616 1077 l 695 1077 l 695 1083 b 784 1265 695 1161 784 1170 b 652 1378 784 1337 737 1378 b 513 1330 595 1378 542 1360 l 548 1269 b 642 1302 572 1289 609 1302 b 703 1256 682 1302 703 1286 b 616 1093 703 1201 616 1177 z "},"ễ":{"ha":814,"x_min":0,"x_max":0,"o":"m 477 -14 b 675 5 541 -14 612 -7 l 663 89 b 493 70 608 77 547 70 b 192 328 314 70 207 163 l 707 328 b 711 399 709 347 711 372 b 417 732 711 612 603 732 b 103 366 218 732 103 599 b 477 -14 103 124 239 -14 z m 192 406 b 418 649 203 560 285 649 b 624 406 549 649 624 561 z m 184 1204 l 264 1204 l 264 1238 b 328 1320 264 1293 285 1320 b 418 1273 357 1320 388 1293 b 541 1221 467 1242 507 1221 b 657 1383 618 1221 657 1275 l 657 1438 l 578 1438 l 578 1377 b 532 1301 578 1326 563 1301 b 427 1353 510 1301 475 1320 b 315 1401 389 1379 355 1401 b 184 1232 227 1401 184 1345 z m 193 846 l 296 846 l 414 1023 l 532 846 l 635 846 l 447 1104 l 380 1104 z "},"ë":{"ha":814,"x_min":0,"x_max":0,"o":"m 477 -14 b 675 5 541 -14 612 -7 l 663 89 b 493 70 608 77 547 70 b 192 328 314 70 207 163 l 707 328 b 711 399 709 347 711 372 b 417 732 711 612 603 732 b 103 366 218 732 103 599 b 477 -14 103 124 239 -14 z m 192 406 b 418 649 203 560 285 649 b 624 406 549 649 624 561 z m 273 855 b 348 930 314 855 348 889 b 273 1006 348 972 314 1006 b 197 930 231 1006 197 972 b 273 855 197 889 231 855 z m 557 855 b 633 930 599 855 633 889 b 557 1006 633 972 599 1006 b 482 930 516 1006 482 972 b 557 855 482 889 516 855 z "},"ė":{"ha":814,"x_min":0,"x_max":0,"o":"m 477 -14 b 675 5 541 -14 612 -7 l 663 89 b 493 70 608 77 547 70 b 192 328 314 70 207 163 l 707 328 b 711 399 709 347 711 372 b 417 732 711 612 603 732 b 103 366 218 732 103 599 b 477 -14 103 124 239 -14 z m 192 406 b 418 649 203 560 285 649 b 624 406 549 649 624 561 z m 412 855 b 488 930 454 855 488 889 b 412 1006 488 972 454 1006 b 337 930 371 1006 337 972 b 412 855 337 889 371 855 z "},"ẹ":{"ha":814,"x_min":0,"x_max":0,"o":"m 477 -14 b 675 5 541 -14 612 -7 l 663 89 b 493 70 608 77 547 70 b 192 328 314 70 207 163 l 707 328 b 711 399 709 347 711 372 b 417 732 711 612 603 732 b 103 366 218 732 103 599 b 477 -14 103 124 239 -14 z m 192 406 b 418 649 203 560 285 649 b 624 406 549 649 624 561 z m 427 -269 b 503 -195 469 -269 503 -236 b 427 -119 503 -153 469 -119 b 352 -195 386 -119 352 -153 b 427 -269 352 -236 386 -269 z "},"è":{"ha":814,"x_min":0,"x_max":0,"o":"m 477 -14 b 675 5 541 -14 612 -7 l 663 89 b 493 70 608 77 547 70 b 192 328 314 70 207 163 l 707 328 b 711 399 709 347 711 372 b 417 732 711 612 603 732 b 103 366 218 732 103 599 b 477 -14 103 124 239 -14 z m 192 406 b 418 649 203 560 285 649 b 624 406 549 649 624 561 z m 386 846 l 475 846 l 328 1104 l 230 1104 z "},"ẻ":{"ha":814,"x_min":0,"x_max":0,"o":"m 477 -14 b 675 5 541 -14 612 -7 l 663 89 b 493 70 608 77 547 70 b 192 328 314 70 207 163 l 707 328 b 711 399 709 347 711 372 b 417 732 711 612 603 732 b 103 366 218 732 103 599 b 477 -14 103 124 239 -14 z m 192 406 b 418 649 203 560 285 649 b 624 406 549 649 624 561 z m 374 846 l 453 846 l 453 852 b 542 1035 453 930 542 939 b 410 1147 542 1107 495 1147 b 271 1099 353 1147 300 1129 l 306 1038 b 400 1072 330 1059 367 1072 b 461 1025 440 1072 461 1055 b 374 862 461 970 374 947 z "},"ē":{"ha":814,"x_min":0,"x_max":0,"o":"m 477 -14 b 675 5 541 -14 612 -7 l 663 89 b 493 70 608 77 547 70 b 192 328 314 70 207 163 l 707 328 b 711 399 709 347 711 372 b 417 732 711 612 603 732 b 103 366 218 732 103 599 b 477 -14 103 124 239 -14 z m 192 406 b 418 649 203 560 285 649 b 624 406 549 649 624 561 z m 134 846 l 694 846 l 694 930 l 134 930 z "},"ę":{"ha":814,"x_min":0,"x_max":0,"o":"m 591 -288 b 654 -281 609 -288 631 -286 l 661 -208 b 608 -212 642 -210 623 -212 b 507 -132 540 -212 507 -178 b 675 5 507 -50 577 -23 l 663 89 b 493 70 608 77 547 70 b 192 328 314 70 207 163 l 707 328 b 711 399 709 347 711 372 b 417 732 711 612 603 732 b 103 366 218 732 103 599 b 477 -14 103 124 239 -14 b 509 -13 487 -14 498 -14 l 509 -24 b 433 -151 460 -45 433 -91 b 591 -288 433 -238 490 -288 z m 192 406 b 418 649 203 560 285 649 b 624 406 549 649 624 561 z "},"ɛ":{"ha":814,"x_min":0,"x_max":0,"o":"m 425 -14 b 694 19 533 -14 625 -1 l 669 104 b 430 70 610 89 542 70 b 217 188 288 70 217 109 b 528 315 217 273 320 315 l 551 315 l 564 397 b 237 532 345 407 237 452 b 450 649 237 610 308 649 b 672 613 534 649 608 637 l 701 693 b 435 732 646 720 559 732 b 144 553 241 732 144 673 b 320 371 144 463 202 402 l 320 357 b 123 181 189 337 123 279 b 425 -14 123 50 223 -14 z "},"ʃ":{"ha":814,"x_min":0,"x_max":0,"o":"m 85 -323 l 140 -316 b 417 28 333 -290 417 -203 l 417 692 b 636 946 417 862 490 946 b 764 937 673 946 711 943 l 779 1017 b 640 1031 732 1027 690 1031 b 326 685 430 1031 326 916 l 326 6 b 140 -233 326 -150 270 -213 l 81 -241 z "},"ẽ":{"ha":814,"x_min":0,"x_max":0,"o":"m 477 -14 b 675 5 541 -14 612 -7 l 663 89 b 493 70 608 77 547 70 b 192 328 314 70 207 163 l 707 328 b 711 399 709 347 711 372 b 417 732 711 612 603 732 b 103 366 218 732 103 599 b 477 -14 103 124 239 -14 z m 192 406 b 418 649 203 560 285 649 b 624 406 549 649 624 561 z m 184 852 l 264 852 l 264 886 b 328 968 264 941 285 968 b 418 920 357 968 388 940 b 541 868 467 890 507 868 b 657 1031 618 868 657 922 l 657 1085 l 578 1085 l 578 1024 b 532 949 578 974 563 949 b 427 1000 510 949 475 967 b 315 1048 389 1027 355 1048 b 184 879 227 1048 184 992 z "},"ǝ":{"ha":814,"x_min":0,"x_max":0,"o":"m 397 -14 b 711 353 596 -14 711 120 b 337 732 711 595 575 732 b 138 709 273 732 201 726 l 151 627 b 321 649 206 641 267 649 b 622 391 500 649 607 556 l 107 391 b 103 320 104 372 103 347 b 397 -14 103 107 211 -14 z m 622 313 b 395 70 610 159 529 70 b 190 313 265 70 190 158 z "},"ə":{"ha":814,"x_min":0,"x_max":0,"o":"m 397 -14 b 711 353 596 -14 711 120 b 337 732 711 595 575 732 b 138 709 273 732 201 726 l 151 627 b 321 649 206 641 267 649 b 622 391 500 649 607 556 l 107 391 b 103 320 104 372 103 347 b 397 -14 103 107 211 -14 z m 622 313 b 395 70 610 159 529 70 b 190 313 265 70 190 158 z "},"ʒ":{"ha":814,"x_min":0,"x_max":0,"o":"m 367 -312 b 709 -11 585 -312 709 -187 b 360 279 709 169 582 277 l 351 279 l 665 628 l 665 713 l 128 713 l 128 633 l 562 633 l 216 251 l 230 203 l 347 203 b 616 -12 517 203 616 125 b 374 -227 616 -144 527 -227 b 123 -128 269 -227 204 -198 l 64 -191 b 367 -312 140 -271 242 -312 z "},"f":{"ha":814,"x_min":0,"x_max":0,"o":"m 299 0 l 390 0 l 390 457 l 700 457 l 700 537 l 390 537 l 390 665 b 609 946 390 853 463 946 b 736 937 646 946 684 943 l 751 1017 b 613 1031 705 1027 663 1031 b 299 658 403 1031 299 907 l 299 537 l 57 537 l 57 457 l 299 457 z "},"g":{"ha":814,"x_min":0,"x_max":0,"o":"m 134 -324 l 334 -317 b 689 64 581 -309 689 -193 l 689 719 l 608 719 l 600 568 l 593 568 b 366 732 574 675 494 732 b 76 353 175 732 76 602 b 363 -14 76 112 174 -14 b 590 157 497 -14 572 51 l 599 157 l 599 42 b 347 -233 598 -136 522 -227 l 130 -241 z m 599 370 l 599 349 b 382 68 599 165 525 68 b 167 353 241 68 167 166 b 382 650 167 549 240 650 b 599 370 524 650 599 554 z "},"ɣ":{"ha":814,"x_min":0,"x_max":0,"o":"m 407 -313 b 600 -153 526 -313 600 -252 b 480 30 600 -90 568 -37 l 749 719 l 652 719 l 412 77 l 404 77 l 162 719 l 65 719 l 334 30 b 214 -153 245 -37 214 -90 b 407 -313 214 -252 288 -313 z m 300 -143 b 407 5 300 -101 328 -61 b 513 -143 486 -61 513 -101 b 407 -233 513 -199 473 -233 b 300 -143 341 -233 300 -199 z "},"ğ":{"ha":814,"x_min":0,"x_max":0,"o":"m 134 -324 l 334 -317 b 689 64 581 -309 689 -193 l 689 719 l 608 719 l 600 568 l 593 568 b 366 732 574 675 494 732 b 76 353 175 732 76 602 b 363 -14 76 112 174 -14 b 590 157 497 -14 572 51 l 599 157 l 599 42 b 347 -233 598 -136 522 -227 l 130 -241 z m 599 370 l 599 349 b 382 68 599 165 525 68 b 167 353 241 68 167 166 b 382 650 167 549 240 650 b 599 370 524 650 599 554 z m 393 840 b 623 1058 539 840 623 919 l 623 1087 l 543 1087 l 543 1058 b 393 909 543 962 490 909 b 243 1058 297 909 243 962 l 243 1087 l 163 1087 l 163 1058 b 393 840 163 919 248 840 z "},"ǧ":{"ha":814,"x_min":0,"x_max":0,"o":"m 134 -324 l 334 -317 b 689 64 581 -309 689 -193 l 689 719 l 608 719 l 600 568 l 593 568 b 366 732 574 675 494 732 b 76 353 175 732 76 602 b 363 -14 76 112 174 -14 b 590 157 497 -14 572 51 l 599 157 l 599 42 b 347 -233 598 -136 522 -227 l 130 -241 z m 599 370 l 599 349 b 382 68 599 165 525 68 b 167 353 241 68 167 166 b 382 650 167 549 240 650 b 599 370 524 650 599 554 z m 360 821 l 427 821 l 614 1078 l 511 1078 l 393 901 l 275 1078 l 172 1078 z "},"ĝ":{"ha":814,"x_min":0,"x_max":0,"o":"m 134 -324 l 334 -317 b 689 64 581 -309 689 -193 l 689 719 l 608 719 l 600 568 l 593 568 b 366 732 574 675 494 732 b 76 353 175 732 76 602 b 363 -14 76 112 174 -14 b 590 157 497 -14 572 51 l 599 157 l 599 42 b 347 -233 598 -136 522 -227 l 130 -241 z m 599 370 l 599 349 b 382 68 599 165 525 68 b 167 353 241 68 167 166 b 382 650 167 549 240 650 b 599 370 524 650 599 554 z m 172 846 l 275 846 l 393 1023 l 511 846 l 614 846 l 427 1104 l 360 1104 z "},"ģ":{"ha":814,"x_min":0,"x_max":0,"o":"m 134 -324 l 334 -317 b 689 64 581 -309 689 -193 l 689 719 l 608 719 l 600 568 l 593 568 b 366 732 574 675 494 732 b 76 353 175 732 76 602 b 363 -14 76 112 174 -14 b 590 157 497 -14 572 51 l 599 157 l 599 42 b 347 -233 598 -136 522 -227 l 130 -241 z m 599 370 l 599 349 b 382 68 599 165 525 68 b 167 353 241 68 167 166 b 382 650 167 549 240 650 b 599 370 524 650 599 554 z m 349 819 l 441 819 l 473 1077 l 395 1077 z "},"ġ":{"ha":814,"x_min":0,"x_max":0,"o":"m 134 -324 l 334 -317 b 689 64 581 -309 689 -193 l 689 719 l 608 719 l 600 568 l 593 568 b 366 732 574 675 494 732 b 76 353 175 732 76 602 b 363 -14 76 112 174 -14 b 590 157 497 -14 572 51 l 599 157 l 599 42 b 347 -233 598 -136 522 -227 l 130 -241 z m 599 370 l 599 349 b 382 68 599 165 525 68 b 167 353 241 68 167 166 b 382 650 167 549 240 650 b 599 370 524 650 599 554 z m 392 855 b 467 930 433 855 467 889 b 392 1006 467 972 433 1006 b 317 930 351 1006 317 972 b 392 855 317 889 351 855 z "},"ʔ":{"ha":814,"x_min":0,"x_max":0,"o":"m 340 0 l 431 0 l 431 236 b 532 473 431 328 458 401 b 678 766 632 568 678 648 b 384 1031 678 934 570 1031 b 96 901 271 1031 176 987 l 154 840 b 382 947 227 911 300 947 b 587 759 512 947 587 878 b 477 534 587 670 555 606 b 340 245 383 446 340 362 z "},"ʕ":{"ha":814,"x_min":0,"x_max":0,"o":"m 385 0 l 475 0 l 475 245 b 338 534 475 362 431 446 b 228 759 260 606 228 670 b 432 947 228 878 302 947 b 661 840 514 947 588 911 l 718 901 b 431 1031 638 987 543 1031 b 136 766 244 1031 136 934 b 282 473 136 648 182 568 b 385 236 356 401 385 328 z "},"ǥ":{"ha":814,"x_min":0,"x_max":0,"o":"m 30 -144 l 551 -144 b 347 -233 510 -200 444 -229 l 130 -241 l 134 -324 l 334 -317 b 653 -144 500 -311 603 -257 l 784 -144 l 784 -80 l 674 -80 b 689 64 684 -38 689 9 l 689 719 l 608 719 l 600 568 l 593 568 b 366 732 574 675 494 732 b 76 353 175 732 76 602 b 363 -14 76 112 174 -14 b 590 157 497 -14 572 51 l 599 157 l 599 42 b 583 -80 599 -5 593 -45 l 30 -80 z m 599 370 l 599 349 b 382 68 599 165 525 68 b 167 353 241 68 167 166 b 382 650 167 549 240 650 b 599 370 524 650 599 554 z "},"h":{"ha":814,"x_min":0,"x_max":0,"o":"m 599 0 l 689 0 l 689 468 b 435 732 689 636 596 732 b 223 589 313 732 243 685 l 215 589 l 215 1017 l 125 1017 l 125 0 l 215 0 l 215 406 b 427 650 215 570 287 650 b 599 470 535 650 599 585 z "},"ħ":{"ha":814,"x_min":0,"x_max":0,"o":"m 15 845 l 125 845 l 125 0 l 215 0 l 215 406 b 427 650 215 570 287 650 b 599 470 535 650 599 585 l 599 0 l 689 0 l 689 468 b 435 732 689 636 596 732 b 223 589 313 732 243 685 l 215 589 l 215 845 l 500 845 l 500 925 l 215 925 l 215 1017 l 125 1017 l 125 925 l 15 925 z "},"ȟ":{"ha":814,"x_min":0,"x_max":0,"o":"m 599 0 l 689 0 l 689 468 b 435 732 689 636 596 732 b 223 589 313 732 243 685 l 215 589 l 215 1017 l 125 1017 l 125 0 l 215 0 l 215 406 b 427 650 215 570 287 650 b 599 470 535 650 599 585 z m 132 1126 l 208 1126 l 396 1302 l 288 1302 l 170 1187 l 52 1302 l -56 1302 z "},"ĥ":{"ha":814,"x_min":0,"x_max":0,"o":"m 599 0 l 689 0 l 689 468 b 435 732 689 636 596 732 b 223 589 313 732 243 685 l 215 589 l 215 1017 l 125 1017 l 125 0 l 215 0 l 215 406 b 427 650 215 570 287 650 b 599 470 535 650 599 585 z m -55 1126 l 53 1126 l 171 1242 l 289 1126 l 397 1126 l 209 1302 l 133 1302 z "},"ḥ":{"ha":814,"x_min":0,"x_max":0,"o":"m 599 0 l 689 0 l 689 468 b 435 732 689 636 596 732 b 223 589 313 732 243 685 l 215 589 l 215 1017 l 125 1017 l 125 0 l 215 0 l 215 406 b 427 650 215 570 287 650 b 599 470 535 650 599 585 z m 407 -269 b 482 -195 448 -269 482 -236 b 407 -119 482 -153 448 -119 b 332 -195 366 -119 332 -153 b 407 -269 332 -236 366 -269 z "},"i":{"ha":814,"x_min":0,"x_max":0,"o":"m 119 0 l 736 0 l 736 80 l 500 80 l 500 719 l 160 719 l 160 639 l 409 639 l 409 80 l 119 80 z m 448 876 b 526 954 491 876 526 911 b 448 1033 526 998 491 1033 b 369 954 404 1033 369 998 b 448 876 369 911 404 876 z "},"ı":{"ha":814,"x_min":0,"x_max":0,"o":"m 119 0 l 736 0 l 736 80 l 500 80 l 500 719 l 160 719 l 160 639 l 409 639 l 409 80 l 119 80 z "},"í":{"ha":814,"x_min":0,"x_max":0,"o":"m 119 0 l 736 0 l 736 80 l 500 80 l 500 719 l 160 719 l 160 639 l 409 639 l 409 80 l 119 80 z m 393 846 l 481 846 l 637 1104 l 540 1104 z "},"ĭ":{"ha":814,"x_min":0,"x_max":0,"o":"m 119 0 l 736 0 l 736 80 l 500 80 l 500 719 l 160 719 l 160 639 l 409 639 l 409 80 l 119 80 z m 441 840 b 671 1058 587 840 671 919 l 671 1087 l 591 1087 l 591 1058 b 441 909 591 962 537 909 b 291 1058 345 909 291 962 l 291 1087 l 211 1087 l 211 1058 b 441 840 211 919 295 840 z "},"î":{"ha":814,"x_min":0,"x_max":0,"o":"m 119 0 l 736 0 l 736 80 l 500 80 l 500 719 l 160 719 l 160 639 l 409 639 l 409 80 l 119 80 z m 220 846 l 323 846 l 441 1023 l 559 846 l 662 846 l 474 1104 l 408 1104 z "},"ï":{"ha":814,"x_min":0,"x_max":0,"o":"m 119 0 l 736 0 l 736 80 l 500 80 l 500 719 l 160 719 l 160 639 l 409 639 l 409 80 l 119 80 z m 300 855 b 375 930 341 855 375 889 b 300 1006 375 972 341 1006 b 224 930 258 1006 224 972 b 300 855 224 889 258 855 z m 585 855 b 660 930 626 855 660 889 b 585 1006 660 972 626 1006 b 509 930 543 1006 509 972 b 585 855 509 889 543 855 z "},"ị":{"ha":814,"x_min":0,"x_max":0,"o":"m 119 0 l 736 0 l 736 80 l 500 80 l 500 719 l 160 719 l 160 639 l 409 639 l 409 80 l 119 80 z m 448 876 b 526 954 491 876 526 911 b 448 1033 526 998 491 1033 b 369 954 404 1033 369 998 b 448 876 369 911 404 876 z m 454 -269 b 530 -195 496 -269 530 -236 b 454 -119 530 -153 496 -119 b 379 -195 413 -119 379 -153 b 454 -269 379 -236 413 -269 z "},"ì":{"ha":814,"x_min":0,"x_max":0,"o":"m 119 0 l 736 0 l 736 80 l 500 80 l 500 719 l 160 719 l 160 639 l 409 639 l 409 80 l 119 80 z m 413 846 l 502 846 l 355 1104 l 257 1104 z "},"ỉ":{"ha":814,"x_min":0,"x_max":0,"o":"m 119 0 l 736 0 l 736 80 l 500 80 l 500 719 l 160 719 l 160 639 l 409 639 l 409 80 l 119 80 z m 401 846 l 480 846 l 480 852 b 569 1035 480 930 569 939 b 437 1147 569 1107 522 1147 b 298 1099 380 1147 327 1129 l 333 1038 b 427 1072 357 1059 394 1072 b 488 1025 467 1072 488 1055 b 401 862 488 970 401 947 z "},"ĳ":{"ha":814,"x_min":0,"x_max":0,"o":"m 179 -326 l 286 -317 b 642 64 535 -298 644 -193 l 640 260 l 640 719 l 550 719 l 550 237 l 550 237 l 551 42 b 300 -233 553 -138 475 -217 l 175 -244 z m 192 0 l 283 0 l 283 719 l 192 719 z m 237 876 b 315 954 280 876 315 911 b 237 1033 315 998 280 1033 b 158 954 193 1033 158 998 b 237 876 158 911 193 876 z m 595 876 b 673 954 638 876 673 911 b 595 1033 673 998 638 1033 b 516 954 551 1033 516 998 b 595 876 516 911 551 876 z "},"ī":{"ha":814,"x_min":0,"x_max":0,"o":"m 119 0 l 736 0 l 736 80 l 500 80 l 500 719 l 160 719 l 160 639 l 409 639 l 409 80 l 119 80 z m 161 846 l 721 846 l 721 930 l 161 930 z "},"į":{"ha":814,"x_min":0,"x_max":0,"o":"m 458 -288 b 521 -281 476 -288 499 -286 l 528 -208 b 475 -212 509 -210 490 -212 b 374 -132 411 -212 374 -183 b 542 0 374 -53 435 0 l 736 0 l 736 80 l 500 80 l 500 719 l 160 719 l 160 639 l 409 639 l 409 80 l 119 80 l 119 0 l 381 0 l 381 -9 b 300 -146 330 -32 300 -86 b 458 -288 300 -236 357 -288 z m 448 876 b 526 954 491 876 526 911 b 448 1033 526 998 491 1033 b 369 954 404 1033 369 998 b 448 876 369 911 404 876 z "},"ɩ":{"ha":814,"x_min":0,"x_max":0,"o":"m 545 -14 b 711 15 605 -14 654 -5 l 699 98 b 572 73 647 81 608 73 b 408 278 434 73 408 134 l 408 719 l 99 719 l 99 638 l 319 638 l 319 271 b 545 -14 319 72 386 -14 z "},"ĩ":{"ha":814,"x_min":0,"x_max":0,"o":"m 119 0 l 736 0 l 736 80 l 500 80 l 500 719 l 160 719 l 160 639 l 409 639 l 409 80 l 119 80 z m 211 852 l 291 852 l 291 886 b 355 968 291 941 312 968 b 446 920 384 968 415 940 b 568 868 494 890 534 868 b 684 1031 646 868 684 922 l 684 1085 l 606 1085 l 606 1024 b 559 949 606 974 590 949 b 454 1000 537 949 503 967 b 342 1048 416 1027 382 1048 b 211 879 254 1048 211 992 z "},"j":{"ha":814,"x_min":0,"x_max":0,"o":"m 130 -326 l 237 -317 b 591 64 486 -298 591 -193 l 591 719 l 187 719 l 187 639 l 501 639 l 501 42 b 251 -233 501 -138 427 -216 l 126 -244 z m 532 876 b 611 954 576 876 611 911 b 532 1033 611 998 576 1033 b 454 954 489 1033 454 998 b 532 876 454 911 489 876 z "},"ȷ":{"ha":814,"x_min":0,"x_max":0,"o":"m 130 -326 l 237 -317 b 593 64 486 -298 595 -193 l 591 260 l 591 719 l 187 719 l 187 639 l 501 639 l 501 237 l 501 237 l 503 42 b 251 -233 505 -138 427 -217 l 126 -244 z "},"ǰ":{"ha":814,"x_min":0,"x_max":0,"o":"m 130 -326 l 237 -317 b 593 64 486 -298 595 -193 l 591 260 l 591 719 l 187 719 l 187 639 l 501 639 l 501 237 l 501 237 l 503 42 b 251 -233 505 -138 427 -217 l 126 -244 z m 513 821 l 579 821 l 767 1078 l 664 1078 l 546 901 l 428 1078 l 325 1078 z "},"ĵ":{"ha":814,"x_min":0,"x_max":0,"o":"m 130 -326 l 237 -317 b 593 64 486 -298 595 -193 l 591 260 l 591 719 l 187 719 l 187 639 l 501 639 l 501 237 l 501 237 l 503 42 b 251 -233 505 -138 427 -217 l 126 -244 z m 325 846 l 428 846 l 546 1023 l 664 846 l 767 846 l 579 1104 l 513 1104 z "},"k":{"ha":814,"x_min":0,"x_max":0,"o":"m 119 0 l 208 0 l 208 286 l 276 286 b 470 319 351 286 415 297 l 651 0 l 762 0 l 549 366 b 716 719 638 435 692 551 l 621 719 b 256 370 581 463 485 370 l 208 370 l 208 1017 l 119 1017 z "},"ķ":{"ha":814,"x_min":0,"x_max":0,"o":"m 119 0 l 208 0 l 208 286 l 276 286 b 470 319 351 286 415 297 l 651 0 l 762 0 l 549 366 b 716 719 638 435 692 551 l 621 719 b 256 370 581 463 485 370 l 208 370 l 208 1017 l 119 1017 z m 323 -326 l 406 -326 l 469 -95 l 374 -95 z "},"ḳ":{"ha":814,"x_min":0,"x_max":0,"o":"m 119 0 l 208 0 l 208 286 l 276 286 b 470 319 351 286 415 297 l 651 0 l 762 0 l 549 366 b 716 719 638 435 692 551 l 621 719 b 256 370 581 463 485 370 l 208 370 l 208 1017 l 119 1017 z m 420 -269 b 496 -195 462 -269 496 -236 b 420 -119 496 -153 462 -119 b 345 -195 379 -119 345 -153 b 420 -269 345 -236 379 -269 z "},"ĸ":{"ha":814,"x_min":0,"x_max":0,"o":"m 119 0 l 208 0 l 208 286 l 276 286 b 470 319 351 286 415 297 l 651 0 l 762 0 l 549 366 b 716 719 638 435 692 551 l 621 719 b 256 370 581 463 485 370 l 208 370 l 208 719 l 119 719 z "},"ḵ":{"ha":814,"x_min":0,"x_max":0,"o":"m 119 0 l 208 0 l 208 286 l 276 286 b 470 319 351 286 415 297 l 651 0 l 762 0 l 549 366 b 716 719 638 435 692 551 l 621 719 b 256 370 581 463 485 370 l 208 370 l 208 1017 l 119 1017 z m 140 -224 l 701 -224 l 701 -141 l 140 -141 z "},"l":{"ha":814,"x_min":0,"x_max":0,"o":"m 546 -14 b 718 10 608 -14 659 -7 l 707 93 b 568 71 650 78 608 71 b 395 251 444 71 395 129 l 395 1017 l 77 1017 l 77 937 l 304 937 l 304 249 b 546 -14 304 71 382 -14 z "},"ĺ":{"ha":814,"x_min":0,"x_max":0,"o":"m 546 -14 b 718 10 608 -14 659 -7 l 707 93 b 568 71 650 78 608 71 b 395 251 444 71 395 129 l 395 1017 l 77 1017 l 77 937 l 304 937 l 304 249 b 546 -14 304 71 382 -14 z m 295 1126 l 398 1126 l 566 1295 l 446 1295 z "},"ƛ":{"ha":814,"x_min":0,"x_max":0,"o":"m 99 649 l 360 730 l 56 0 l 151 0 l 355 500 b 370 648 374 550 380 590 l 383 652 l 530 148 b 724 -14 564 28 619 -14 b 785 -5 747 -14 763 -12 l 774 75 b 738 70 759 71 749 70 b 608 181 667 70 632 99 l 443 757 l 663 825 l 645 903 l 421 833 l 411 868 b 226 1017 379 979 327 1017 b 165 1009 203 1017 187 1015 l 176 930 b 212 934 191 932 201 934 b 330 836 275 934 309 908 l 338 808 l 80 727 z "},"ƚ":{"ha":814,"x_min":0,"x_max":0,"o":"m 71 453 l 304 453 l 304 249 b 546 -14 304 71 382 -14 b 718 10 608 -14 659 -7 l 707 93 b 568 71 650 78 608 71 b 395 251 444 71 395 129 l 395 453 l 629 453 l 629 536 l 395 536 l 395 1017 l 77 1017 l 77 937 l 304 937 l 304 536 l 71 536 z "},"ɬ":{"ha":814,"x_min":0,"x_max":0,"o":"m 205 420 l 304 420 l 304 249 b 546 -14 304 71 382 -14 b 718 10 608 -14 659 -7 l 707 93 b 568 71 650 78 608 71 b 395 251 444 71 395 129 l 395 420 l 629 420 l 629 505 l 395 505 l 395 1017 l 77 1017 l 77 937 l 304 937 l 304 690 l 296 690 b 178 781 286 750 250 781 b 24 601 80 781 24 715 b 205 420 24 486 90 420 z m 304 505 l 205 505 b 117 600 149 505 117 539 b 195 696 117 661 145 696 b 304 570 252 696 298 658 z "},"ľ":{"ha":814,"x_min":0,"x_max":0,"o":"m 546 -14 b 718 10 608 -14 659 -7 l 707 93 b 568 71 650 78 608 71 b 395 251 444 71 395 129 l 395 1017 l 77 1017 l 77 937 l 304 937 l 304 249 b 546 -14 304 71 382 -14 z m 542 806 l 627 806 l 692 1063 l 598 1063 z "},"ļ":{"ha":814,"x_min":0,"x_max":0,"o":"m 546 -14 b 718 10 608 -14 659 -7 l 707 93 b 568 71 650 78 608 71 b 395 251 444 71 395 129 l 395 1017 l 77 1017 l 77 937 l 304 937 l 304 249 b 546 -14 304 71 382 -14 z m 363 -326 l 446 -326 l 509 -95 l 415 -95 z "},"ŀ":{"ha":814,"x_min":0,"x_max":0,"o":"m 546 -14 b 718 10 608 -14 659 -7 l 707 93 b 568 71 650 78 608 71 b 395 251 444 71 395 129 l 395 1017 l 77 1017 l 77 937 l 304 937 l 304 249 b 546 -14 304 71 382 -14 z m 621 585 b 700 663 665 585 700 619 b 621 741 700 706 665 741 b 543 663 578 741 543 706 b 621 585 543 619 578 585 z "},"ḷ":{"ha":814,"x_min":0,"x_max":0,"o":"m 546 -14 b 718 10 608 -14 659 -7 l 707 93 b 568 71 650 78 608 71 b 395 251 444 71 395 129 l 395 1017 l 77 1017 l 77 937 l 304 937 l 304 249 b 546 -14 304 71 382 -14 z m 461 -269 b 536 -195 503 -269 536 -236 b 461 -119 536 -153 503 -119 b 386 -195 420 -119 386 -153 b 461 -269 386 -236 420 -269 z "},"ḻ":{"ha":814,"x_min":0,"x_max":0,"o":"m 546 -14 b 718 10 608 -14 659 -7 l 707 93 b 568 71 650 78 608 71 b 395 251 444 71 395 129 l 395 1017 l 77 1017 l 77 937 l 304 937 l 304 249 b 546 -14 304 71 382 -14 z m 181 -224 l 741 -224 l 741 -141 l 181 -141 z "},"ɫ":{"ha":814,"x_min":0,"x_max":0,"o":"m 64 399 l 142 399 l 142 471 b 210 551 142 526 162 551 b 304 516 241 551 267 541 l 304 249 b 546 -14 304 71 382 -14 b 718 10 608 -14 659 -7 l 707 93 b 568 71 650 78 608 71 b 395 251 444 71 395 129 l 395 452 b 510 418 435 427 467 418 b 634 574 597 418 634 465 l 634 640 l 556 640 l 556 569 b 501 489 556 513 540 489 b 395 532 469 489 441 501 l 395 1017 l 77 1017 l 77 937 l 304 937 l 304 593 b 203 622 269 614 240 622 b 64 465 106 622 64 575 z "},"ł":{"ha":814,"x_min":0,"x_max":0,"o":"m 87 309 l 304 436 l 304 249 b 546 -14 304 71 382 -14 b 718 10 608 -14 659 -7 l 707 93 b 568 71 650 78 608 71 b 395 251 444 71 395 129 l 395 490 l 633 629 l 633 719 l 395 579 l 395 1017 l 77 1017 l 77 937 l 304 937 l 304 526 l 87 398 z "},"m":{"ha":814,"x_min":0,"x_max":0,"o":"m 637 0 l 727 0 l 727 563 b 582 732 727 678 680 732 b 450 629 505 732 460 694 l 444 629 b 315 732 430 699 386 732 b 179 629 237 732 192 699 l 172 629 l 165 719 l 87 719 l 87 0 l 177 0 l 177 526 b 280 654 177 612 212 654 b 366 563 337 654 366 624 l 366 0 l 448 0 l 448 526 b 552 654 448 612 482 654 b 637 549 610 654 637 621 z "},"n":{"ha":814,"x_min":0,"x_max":0,"o":"m 599 0 l 689 0 l 689 468 b 435 732 689 636 596 732 b 223 589 313 732 243 685 l 214 589 l 207 719 l 125 719 l 125 0 l 215 0 l 215 406 b 427 648 215 568 287 648 b 599 470 535 648 599 584 z "},"ń":{"ha":814,"x_min":0,"x_max":0,"o":"m 599 0 l 689 0 l 689 468 b 435 732 689 636 596 732 b 223 589 313 732 243 685 l 214 589 l 207 719 l 125 719 l 125 0 l 215 0 l 215 406 b 427 648 215 568 287 648 b 599 470 535 648 599 584 z m 352 846 l 441 846 l 597 1104 l 499 1104 z "},"ŉ":{"ha":814,"x_min":0,"x_max":0,"o":"m 599 0 l 689 0 l 689 468 b 435 732 689 636 596 732 b 223 589 313 732 243 685 l 214 589 l 207 719 l 125 719 l 125 0 l 215 0 l 215 406 b 427 648 215 568 287 648 b 599 470 535 648 599 584 z m 9 846 l 92 846 l 182 1104 l 83 1104 z "},"ň":{"ha":814,"x_min":0,"x_max":0,"o":"m 599 0 l 689 0 l 689 468 b 435 732 689 636 596 732 b 223 589 313 732 243 685 l 214 589 l 207 719 l 125 719 l 125 0 l 215 0 l 215 406 b 427 648 215 568 287 648 b 599 470 535 648 599 584 z m 367 821 l 433 821 l 621 1078 l 518 1078 l 400 901 l 282 1078 l 179 1078 z "},"ņ":{"ha":814,"x_min":0,"x_max":0,"o":"m 599 0 l 689 0 l 689 468 b 435 732 689 636 596 732 b 223 589 313 732 243 685 l 214 589 l 207 719 l 125 719 l 125 0 l 215 0 l 215 406 b 427 648 215 568 287 648 b 599 470 535 648 599 584 z m 309 -326 l 392 -326 l 455 -95 l 361 -95 z "},"ŋ":{"ha":814,"x_min":0,"x_max":0,"o":"m 346 -321 l 382 -317 b 689 59 598 -302 689 -194 l 689 468 b 435 732 689 636 596 732 b 223 589 313 732 243 685 l 214 589 l 207 719 l 125 719 l 125 0 l 215 0 l 215 406 b 427 650 215 570 287 650 b 599 470 535 650 599 585 l 599 42 b 396 -233 599 -138 538 -216 l 342 -239 z "},"ɲ":{"ha":814,"x_min":0,"x_max":0,"o":"m 599 0 l 689 0 l 689 468 b 435 732 689 636 596 732 b 223 589 313 732 243 685 l 214 589 l 207 719 l 125 719 l 125 42 b -55 -233 125 -138 72 -220 l -81 -236 l -77 -317 l -65 -317 b 215 59 141 -305 215 -194 l 215 406 b 427 650 215 570 287 650 b 599 470 535 650 599 585 z "},"ṉ":{"ha":814,"x_min":0,"x_max":0,"o":"m 599 0 l 689 0 l 689 468 b 435 732 689 636 596 732 b 223 589 313 732 243 685 l 214 589 l 207 719 l 125 719 l 125 0 l 215 0 l 215 406 b 427 648 215 568 287 648 b 599 470 535 648 599 584 z m 127 -224 l 687 -224 l 687 -141 l 127 -141 z "},"ñ":{"ha":814,"x_min":0,"x_max":0,"o":"m 599 0 l 689 0 l 689 468 b 435 732 689 636 596 732 b 223 589 313 732 243 685 l 214 589 l 207 719 l 125 719 l 125 0 l 215 0 l 215 406 b 427 648 215 568 287 648 b 599 470 535 648 599 584 z m 170 852 l 250 852 l 250 886 b 314 968 250 941 271 968 b 405 920 343 968 374 940 b 527 868 453 890 494 868 b 644 1031 605 868 644 922 l 644 1085 l 565 1085 l 565 1024 b 519 949 565 974 549 949 b 413 1000 496 949 462 967 b 302 1048 376 1027 342 1048 b 170 879 214 1048 170 992 z "},"o":{"ha":814,"x_min":0,"x_max":0,"o":"m 407 -14 b 711 359 599 -14 711 122 b 407 732 711 597 599 732 b 103 359 215 732 103 597 b 407 -14 103 122 215 -14 z m 407 71 b 196 359 273 71 196 176 b 407 648 196 543 273 648 b 618 359 541 648 618 543 b 407 71 618 176 541 71 z "},"ó":{"ha":814,"x_min":0,"x_max":0,"o":"m 407 -14 b 711 359 599 -14 711 122 b 407 732 711 597 599 732 b 103 359 215 732 103 597 b 407 -14 103 122 215 -14 z m 407 71 b 196 359 273 71 196 176 b 407 648 196 543 273 648 b 618 359 541 648 618 543 b 407 71 618 176 541 71 z m 359 846 l 448 846 l 604 1104 l 506 1104 z "},"ŏ":{"ha":814,"x_min":0,"x_max":0,"o":"m 407 -14 b 711 359 599 -14 711 122 b 407 732 711 597 599 732 b 103 359 215 732 103 597 b 407 -14 103 122 215 -14 z m 407 71 b 196 359 273 71 196 176 b 407 648 196 543 273 648 b 618 359 541 648 618 543 b 407 71 618 176 541 71 z m 407 840 b 637 1058 553 840 637 919 l 637 1087 l 557 1087 l 557 1058 b 407 909 557 962 503 909 b 257 1058 311 909 257 962 l 257 1087 l 177 1087 l 177 1058 b 407 840 177 919 261 840 z "},"ô":{"ha":814,"x_min":0,"x_max":0,"o":"m 407 -14 b 711 359 599 -14 711 122 b 407 732 711 597 599 732 b 103 359 215 732 103 597 b 407 -14 103 122 215 -14 z m 407 71 b 196 359 273 71 196 176 b 407 648 196 543 273 648 b 618 359 541 648 618 543 b 407 71 618 176 541 71 z m 186 846 l 289 846 l 407 1023 l 525 846 l 628 846 l 440 1104 l 374 1104 z "},"ố":{"ha":814,"x_min":0,"x_max":0,"o":"m 407 -14 b 711 359 599 -14 711 122 b 407 732 711 597 599 732 b 103 359 215 732 103 597 b 407 -14 103 122 215 -14 z m 407 71 b 196 359 273 71 196 176 b 407 648 196 543 273 648 b 618 359 541 648 618 543 b 407 71 618 176 541 71 z m 186 846 l 289 846 l 407 1023 l 525 846 l 628 846 l 440 1104 l 374 1104 z m 601 1077 l 690 1077 l 846 1335 l 748 1335 z "},"ộ":{"ha":814,"x_min":0,"x_max":0,"o":"m 407 -14 b 711 359 599 -14 711 122 b 407 732 711 597 599 732 b 103 359 215 732 103 597 b 407 -14 103 122 215 -14 z m 407 71 b 196 359 273 71 196 176 b 407 648 196 543 273 648 b 618 359 541 648 618 543 b 407 71 618 176 541 71 z m 186 846 l 289 846 l 407 1023 l 525 846 l 628 846 l 440 1104 l 374 1104 z m 407 -269 b 482 -195 448 -269 482 -236 b 407 -119 482 -153 448 -119 b 332 -195 366 -119 332 -153 b 407 -269 332 -236 366 -269 z "},"ồ":{"ha":814,"x_min":0,"x_max":0,"o":"m 407 -14 b 711 359 599 -14 711 122 b 407 732 711 597 599 732 b 103 359 215 732 103 597 b 407 -14 103 122 215 -14 z m 407 71 b 196 359 273 71 196 176 b 407 648 196 543 273 648 b 618 359 541 648 618 543 b 407 71 618 176 541 71 z m 186 846 l 289 846 l 407 1023 l 525 846 l 628 846 l 440 1104 l 374 1104 z m 621 1077 l 710 1077 l 563 1335 l 465 1335 z "},"ổ":{"ha":814,"x_min":0,"x_max":0,"o":"m 407 -14 b 711 359 599 -14 711 122 b 407 732 711 597 599 732 b 103 359 215 732 103 597 b 407 -14 103 122 215 -14 z m 407 71 b 196 359 273 71 196 176 b 407 648 196 543 273 648 b 618 359 541 648 618 543 b 407 71 618 176 541 71 z m 186 846 l 289 846 l 407 1023 l 525 846 l 628 846 l 440 1104 l 374 1104 z m 610 1077 l 688 1077 l 688 1083 b 777 1265 688 1161 777 1170 b 646 1378 777 1337 730 1378 b 506 1330 588 1378 535 1360 l 541 1269 b 635 1302 566 1289 602 1302 b 696 1256 675 1302 696 1286 b 610 1093 696 1201 610 1177 z "},"ỗ":{"ha":814,"x_min":0,"x_max":0,"o":"m 407 -14 b 711 359 599 -14 711 122 b 407 732 711 597 599 732 b 103 359 215 732 103 597 b 407 -14 103 122 215 -14 z m 407 71 b 196 359 273 71 196 176 b 407 648 196 543 273 648 b 618 359 541 648 618 543 b 407 71 618 176 541 71 z m 177 1204 l 257 1204 l 257 1238 b 321 1320 257 1293 278 1320 b 412 1273 350 1320 381 1293 b 534 1221 460 1242 500 1221 b 650 1383 612 1221 650 1275 l 650 1438 l 572 1438 l 572 1377 b 526 1301 572 1326 556 1301 b 420 1353 503 1301 469 1320 b 309 1401 382 1379 349 1401 b 177 1232 220 1401 177 1345 z m 186 846 l 289 846 l 407 1023 l 525 846 l 628 846 l 440 1104 l 374 1104 z "},"ö":{"ha":814,"x_min":0,"x_max":0,"o":"m 407 -14 b 711 359 599 -14 711 122 b 407 732 711 597 599 732 b 103 359 215 732 103 597 b 407 -14 103 122 215 -14 z m 407 71 b 196 359 273 71 196 176 b 407 648 196 543 273 648 b 618 359 541 648 618 543 b 407 71 618 176 541 71 z m 266 855 b 341 930 307 855 341 889 b 266 1006 341 972 307 1006 b 191 930 224 1006 191 972 b 266 855 191 889 224 855 z m 551 855 b 626 930 592 855 626 889 b 551 1006 626 972 592 1006 b 475 930 509 1006 475 972 b 551 855 475 889 509 855 z "},"ọ":{"ha":814,"x_min":0,"x_max":0,"o":"m 407 -14 b 711 359 599 -14 711 122 b 407 732 711 597 599 732 b 103 359 215 732 103 597 b 407 -14 103 122 215 -14 z m 407 71 b 196 359 273 71 196 176 b 407 648 196 543 273 648 b 618 359 541 648 618 543 b 407 71 618 176 541 71 z m 407 -269 b 482 -195 448 -269 482 -236 b 407 -119 482 -153 448 -119 b 332 -195 366 -119 332 -153 b 407 -269 332 -236 366 -269 z "},"ò":{"ha":814,"x_min":0,"x_max":0,"o":"m 407 -14 b 711 359 599 -14 711 122 b 407 732 711 597 599 732 b 103 359 215 732 103 597 b 407 -14 103 122 215 -14 z m 407 71 b 196 359 273 71 196 176 b 407 648 196 543 273 648 b 618 359 541 648 618 543 b 407 71 618 176 541 71 z m 379 846 l 468 846 l 321 1104 l 223 1104 z "},"ỏ":{"ha":814,"x_min":0,"x_max":0,"o":"m 407 -14 b 711 359 599 -14 711 122 b 407 732 711 597 599 732 b 103 359 215 732 103 597 b 407 -14 103 122 215 -14 z m 407 71 b 196 359 273 71 196 176 b 407 648 196 543 273 648 b 618 359 541 648 618 543 b 407 71 618 176 541 71 z m 368 846 l 446 846 l 446 852 b 535 1035 446 930 535 939 b 404 1147 535 1107 488 1147 b 264 1099 346 1147 293 1129 l 299 1038 b 393 1072 323 1059 360 1072 b 454 1025 433 1072 454 1055 b 368 862 454 970 368 947 z "},"ơ":{"ha":814,"x_min":0,"x_max":0,"o":"m 407 -14 b 711 359 599 -14 711 122 b 610 658 711 493 675 595 b 793 911 732 692 793 774 l 702 911 b 534 726 702 803 646 745 l 500 720 b 407 732 472 728 441 732 b 103 359 215 732 103 597 b 407 -14 103 122 215 -14 z m 407 71 b 196 359 273 71 196 176 b 407 648 196 543 273 648 b 618 359 541 648 618 543 b 407 71 618 176 541 71 z "},"ớ":{"ha":814,"x_min":0,"x_max":0,"o":"m 407 -14 b 711 359 599 -14 711 122 b 610 658 711 493 675 595 b 793 911 732 692 793 774 l 702 911 b 534 726 702 803 646 745 l 500 720 b 407 732 472 728 441 732 b 103 359 215 732 103 597 b 407 -14 103 122 215 -14 z m 407 71 b 196 359 273 71 196 176 b 407 648 196 543 273 648 b 618 359 541 648 618 543 b 407 71 618 176 541 71 z m 359 846 l 448 846 l 604 1104 l 506 1104 z "},"ợ":{"ha":814,"x_min":0,"x_max":0,"o":"m 407 -14 b 711 359 599 -14 711 122 b 610 658 711 493 675 595 b 793 911 732 692 793 774 l 702 911 b 534 726 702 803 646 745 l 500 720 b 407 732 472 728 441 732 b 103 359 215 732 103 597 b 407 -14 103 122 215 -14 z m 407 71 b 196 359 273 71 196 176 b 407 648 196 543 273 648 b 618 359 541 648 618 543 b 407 71 618 176 541 71 z m 407 -269 b 482 -195 448 -269 482 -236 b 407 -119 482 -153 448 -119 b 332 -195 366 -119 332 -153 b 407 -269 332 -236 366 -269 z "},"ờ":{"ha":814,"x_min":0,"x_max":0,"o":"m 407 -14 b 711 359 599 -14 711 122 b 610 658 711 493 675 595 b 793 911 732 692 793 774 l 702 911 b 534 726 702 803 646 745 l 500 720 b 407 732 472 728 441 732 b 103 359 215 732 103 597 b 407 -14 103 122 215 -14 z m 407 71 b 196 359 273 71 196 176 b 407 648 196 543 273 648 b 618 359 541 648 618 543 b 407 71 618 176 541 71 z m 379 846 l 468 846 l 321 1104 l 223 1104 z "},"ở":{"ha":814,"x_min":0,"x_max":0,"o":"m 407 -14 b 711 359 599 -14 711 122 b 610 658 711 493 675 595 b 793 911 732 692 793 774 l 702 911 b 534 726 702 803 646 745 l 500 720 b 407 732 472 728 441 732 b 103 359 215 732 103 597 b 407 -14 103 122 215 -14 z m 407 71 b 196 359 273 71 196 176 b 407 648 196 543 273 648 b 618 359 541 648 618 543 b 407 71 618 176 541 71 z m 368 846 l 446 846 l 446 852 b 535 1035 446 930 535 939 b 404 1147 535 1107 488 1147 b 264 1099 346 1147 293 1129 l 299 1038 b 393 1072 323 1059 360 1072 b 454 1025 433 1072 454 1055 b 368 862 454 970 368 947 z "},"ỡ":{"ha":814,"x_min":0,"x_max":0,"o":"m 407 -14 b 711 359 599 -14 711 122 b 610 658 711 493 675 595 b 793 911 732 692 793 774 l 702 911 b 534 726 702 803 646 745 l 500 720 b 407 732 472 728 441 732 b 103 359 215 732 103 597 b 407 -14 103 122 215 -14 z m 407 71 b 196 359 273 71 196 176 b 407 648 196 543 273 648 b 618 359 541 648 618 543 b 407 71 618 176 541 71 z m 177 852 l 257 852 l 257 886 b 321 968 257 941 278 968 b 412 920 350 968 381 940 b 534 868 460 890 500 868 b 650 1031 612 868 650 922 l 650 1085 l 572 1085 l 572 1024 b 526 949 572 974 556 949 b 420 1000 503 949 469 967 b 309 1048 382 1027 349 1048 b 177 879 220 1048 177 992 z "},"ő":{"ha":814,"x_min":0,"x_max":0,"o":"m 407 -14 b 711 359 599 -14 711 122 b 407 732 711 597 599 732 b 103 359 215 732 103 597 b 407 -14 103 122 215 -14 z m 407 71 b 196 359 273 71 196 176 b 407 648 196 543 273 648 b 618 359 541 648 618 543 b 407 71 618 176 541 71 z m 219 846 l 311 846 l 426 1104 l 326 1104 z m 479 846 l 571 846 l 686 1104 l 586 1104 z "},"ō":{"ha":814,"x_min":0,"x_max":0,"o":"m 407 -14 b 711 359 599 -14 711 122 b 407 732 711 597 599 732 b 103 359 215 732 103 597 b 407 -14 103 122 215 -14 z m 407 71 b 196 359 273 71 196 176 b 407 648 196 543 273 648 b 618 359 541 648 618 543 b 407 71 618 176 541 71 z m 127 846 l 687 846 l 687 930 l 127 930 z "},"ṓ":{"ha":814,"x_min":0,"x_max":0,"o":"m 407 -14 b 711 359 599 -14 711 122 b 407 732 711 597 599 732 b 103 359 215 732 103 597 b 407 -14 103 122 215 -14 z m 407 71 b 196 359 273 71 196 176 b 407 648 196 543 273 648 b 618 359 541 648 618 543 b 407 71 618 176 541 71 z m 127 846 l 687 846 l 687 930 l 127 930 z m 359 1059 l 448 1059 l 604 1316 l 506 1316 z "},"ṑ":{"ha":814,"x_min":0,"x_max":0,"o":"m 407 -14 b 711 359 599 -14 711 122 b 407 732 711 597 599 732 b 103 359 215 732 103 597 b 407 -14 103 122 215 -14 z m 407 71 b 196 359 273 71 196 176 b 407 648 196 543 273 648 b 618 359 541 648 618 543 b 407 71 618 176 541 71 z m 127 846 l 687 846 l 687 930 l 127 930 z m 379 1059 l 468 1059 l 321 1316 l 223 1316 z "},"ǫ":{"ha":814,"x_min":0,"x_max":0,"o":"m 449 -288 b 512 -281 467 -288 490 -286 l 519 -208 b 467 -212 500 -210 481 -212 b 366 -132 398 -212 366 -178 b 509 1 366 -54 425 -28 b 523 6 513 3 518 5 b 528 8 525 7 526 7 l 528 8 b 711 359 645 56 711 178 b 407 732 711 597 599 732 b 103 359 215 732 103 597 b 372 -12 103 137 201 4 l 372 -22 b 291 -155 321 -44 291 -92 b 449 -288 291 -239 349 -288 z m 407 71 b 196 359 273 71 196 176 b 407 648 196 543 273 648 b 618 359 541 648 618 543 b 407 71 618 176 541 71 z "},"ɔ":{"ha":814,"x_min":0,"x_max":0,"o":"m 357 -14 b 711 358 584 -14 711 123 b 338 732 711 600 576 732 b 133 701 254 732 199 724 l 155 620 b 330 648 223 640 270 648 b 620 351 515 648 620 545 b 362 71 620 172 525 71 b 144 137 273 71 193 102 l 100 70 b 357 -14 152 23 245 -14 z "},"ø":{"ha":814,"x_min":0,"x_max":0,"o":"m 204 -91 l 263 19 b 407 -14 304 -3 352 -14 b 711 359 599 -14 711 122 b 608 660 711 494 674 597 l 672 780 l 608 812 l 549 701 b 407 732 508 722 460 732 b 103 359 215 732 103 597 b 205 60 103 224 139 123 l 146 -52 z m 407 71 b 305 97 368 71 334 80 l 562 574 b 618 359 598 525 618 452 b 407 71 618 176 541 71 z m 252 146 b 196 359 216 195 196 267 b 407 648 196 543 273 648 b 507 623 445 648 478 640 z "},"ǿ":{"ha":814,"x_min":0,"x_max":0,"o":"m 204 -91 l 263 19 b 407 -14 304 -3 352 -14 b 711 359 599 -14 711 122 b 608 660 711 494 674 597 l 672 780 l 608 812 l 549 701 b 407 732 508 722 460 732 b 103 359 215 732 103 597 b 205 60 103 224 139 123 l 146 -52 z m 407 71 b 305 97 368 71 334 80 l 562 574 b 618 359 598 525 618 452 b 407 71 618 176 541 71 z m 252 146 b 196 359 216 195 196 267 b 407 648 196 543 273 648 b 507 623 445 648 478 640 z m 359 846 l 448 846 l 604 1104 l 506 1104 z "},"õ":{"ha":814,"x_min":0,"x_max":0,"o":"m 407 -14 b 711 359 599 -14 711 122 b 407 732 711 597 599 732 b 103 359 215 732 103 597 b 407 -14 103 122 215 -14 z m 407 71 b 196 359 273 71 196 176 b 407 648 196 543 273 648 b 618 359 541 648 618 543 b 407 71 618 176 541 71 z m 177 852 l 257 852 l 257 886 b 321 968 257 941 278 968 b 412 920 350 968 381 940 b 534 868 460 890 500 868 b 650 1031 612 868 650 922 l 650 1085 l 572 1085 l 572 1024 b 526 949 572 974 556 949 b 420 1000 503 949 469 967 b 309 1048 382 1027 349 1048 b 177 879 220 1048 177 992 z "},"œ":{"ha":814,"x_min":0,"x_max":0,"o":"m 242 -14 b 417 165 332 -14 390 46 b 649 -14 456 49 536 -14 b 753 2 685 -14 723 -7 l 740 82 b 665 68 716 73 688 68 b 454 310 544 68 469 155 l 782 310 b 786 380 785 331 786 357 b 593 732 786 612 720 732 b 414 567 507 732 446 674 b 242 732 385 677 328 732 b 24 359 97 732 24 609 b 242 -14 24 110 97 -14 z m 242 71 b 109 359 153 71 109 166 b 242 648 109 553 153 648 b 366 359 326 648 366 553 b 242 71 366 166 326 71 z m 451 385 b 588 649 454 557 503 649 b 701 385 665 649 701 564 z "},"p":{"ha":814,"x_min":0,"x_max":0,"o":"m 125 -312 l 215 -312 l 215 157 l 224 157 b 451 -14 242 51 317 -14 b 738 353 640 -14 738 112 b 448 732 738 602 639 732 b 221 568 320 732 240 675 l 214 568 l 201 719 l 125 719 z m 215 349 l 215 370 b 432 650 215 554 290 650 b 647 353 574 650 647 549 b 431 68 647 166 573 68 b 215 349 289 68 215 165 z "},"þ":{"ha":814,"x_min":0,"x_max":0,"o":"m 125 -312 l 215 -312 l 215 157 l 224 157 b 451 -14 242 51 317 -14 b 738 353 640 -14 738 112 b 448 732 738 602 639 732 b 224 568 322 732 243 675 l 215 568 l 215 1017 l 125 1017 z m 215 349 l 215 370 b 432 650 215 554 290 650 b 647 353 574 650 647 549 b 431 68 647 166 573 68 b 215 349 289 68 215 165 z "},"q":{"ha":814,"x_min":0,"x_max":0,"o":"m 370 -14 b 591 111 490 -14 572 31 l 599 111 l 599 -312 l 689 -312 l 689 719 l 612 719 l 601 589 l 591 589 b 371 732 568 682 490 732 b 76 353 183 732 76 594 b 370 -14 76 119 183 -14 z m 599 413 l 599 231 b 386 68 599 127 523 68 b 167 353 245 68 167 170 b 385 650 167 542 245 650 b 599 413 522 650 599 566 z "},"r":{"ha":814,"x_min":0,"x_max":0,"o":"m 332 309 b 540 650 332 527 399 650 b 680 463 637 650 680 595 l 770 463 b 551 732 770 652 705 732 b 340 534 427 732 356 667 l 330 534 l 313 719 l 92 719 l 92 639 l 241 639 l 241 80 l 65 80 l 65 0 l 534 0 l 534 80 l 332 80 z "},"ŕ":{"ha":814,"x_min":0,"x_max":0,"o":"m 332 309 b 540 650 332 527 399 650 b 680 463 637 650 680 595 l 770 463 b 551 732 770 652 705 732 b 340 534 427 732 356 667 l 330 534 l 313 719 l 92 719 l 92 639 l 241 639 l 241 80 l 65 80 l 65 0 l 534 0 l 534 80 l 332 80 z m 359 846 l 448 846 l 604 1104 l 506 1104 z "},"ř":{"ha":814,"x_min":0,"x_max":0,"o":"m 332 309 b 540 650 332 527 399 650 b 680 463 637 650 680 595 l 770 463 b 551 732 770 652 705 732 b 340 534 427 732 356 667 l 330 534 l 313 719 l 92 719 l 92 639 l 241 639 l 241 80 l 65 80 l 65 0 l 534 0 l 534 80 l 332 80 z m 374 821 l 440 821 l 628 1078 l 525 1078 l 407 901 l 289 1078 l 186 1078 z "},"ŗ":{"ha":814,"x_min":0,"x_max":0,"o":"m 332 309 b 540 650 332 527 399 650 b 680 463 637 650 680 595 l 770 463 b 551 732 770 652 705 732 b 340 534 427 732 356 667 l 330 534 l 313 719 l 92 719 l 92 639 l 241 639 l 241 80 l 65 80 l 65 0 l 534 0 l 534 80 l 332 80 z m 194 -326 l 277 -326 l 340 -95 l 245 -95 z "},"ṛ":{"ha":814,"x_min":0,"x_max":0,"o":"m 332 309 b 540 650 332 527 399 650 b 680 463 637 650 680 595 l 770 463 b 551 732 770 652 705 732 b 340 534 427 732 356 667 l 330 534 l 313 719 l 92 719 l 92 639 l 241 639 l 241 80 l 65 80 l 65 0 l 534 0 l 534 80 l 332 80 z m 292 -269 b 367 -195 333 -269 367 -236 b 292 -119 367 -153 333 -119 b 216 -195 250 -119 216 -153 b 292 -269 216 -236 250 -269 z "},"s":{"ha":814,"x_min":0,"x_max":0,"o":"m 351 -14 b 697 189 594 -14 697 47 b 488 391 697 295 635 355 l 359 422 b 220 529 262 446 220 479 b 495 648 220 612 302 648 b 668 638 543 648 595 645 l 678 719 b 499 732 612 728 562 732 b 127 527 238 732 127 672 b 326 341 127 432 186 376 l 488 300 b 604 189 569 280 604 245 b 351 71 604 106 528 71 b 127 93 287 71 220 78 l 117 7 b 351 -14 176 -7 246 -14 z "},"ś":{"ha":814,"x_min":0,"x_max":0,"o":"m 351 -14 b 697 189 594 -14 697 47 b 488 391 697 295 635 355 l 359 422 b 220 529 262 446 220 479 b 495 648 220 612 302 648 b 668 638 543 648 595 645 l 678 719 b 499 732 612 728 562 732 b 127 527 238 732 127 672 b 326 341 127 432 186 376 l 488 300 b 604 189 569 280 604 245 b 351 71 604 106 528 71 b 127 93 287 71 220 78 l 117 7 b 351 -14 176 -7 246 -14 z m 379 846 l 468 846 l 624 1104 l 526 1104 z "},"š":{"ha":814,"x_min":0,"x_max":0,"o":"m 351 -14 b 697 189 594 -14 697 47 b 488 391 697 295 635 355 l 359 422 b 220 529 262 446 220 479 b 495 648 220 612 302 648 b 668 638 543 648 595 645 l 678 719 b 499 732 612 728 562 732 b 127 527 238 732 127 672 b 326 341 127 432 186 376 l 488 300 b 604 189 569 280 604 245 b 351 71 604 106 528 71 b 127 93 287 71 220 78 l 117 7 b 351 -14 176 -7 246 -14 z m 394 821 l 460 821 l 648 1078 l 545 1078 l 427 901 l 309 1078 l 206 1078 z "},"ş":{"ha":814,"x_min":0,"x_max":0,"o":"m 351 -14 b 359 -14 354 -14 357 -14 l 320 -119 b 456 -184 415 -119 456 -139 b 300 -255 456 -233 408 -255 l 300 -326 b 538 -186 465 -326 538 -282 b 412 -73 538 -122 500 -82 l 431 -11 b 697 189 617 2 697 64 b 488 391 697 295 635 355 l 359 422 b 220 529 262 446 220 479 b 495 648 220 612 302 648 b 668 638 543 648 595 645 l 678 719 b 499 732 612 728 562 732 b 127 527 238 732 127 672 b 326 341 127 432 186 376 l 488 300 b 604 189 569 280 604 245 b 351 71 604 106 528 71 b 127 93 287 71 220 78 l 117 7 b 351 -14 176 -7 246 -14 z "},"ŝ":{"ha":814,"x_min":0,"x_max":0,"o":"m 351 -14 b 697 189 594 -14 697 47 b 488 391 697 295 635 355 l 359 422 b 220 529 262 446 220 479 b 495 648 220 612 302 648 b 668 638 543 648 595 645 l 678 719 b 499 732 612 728 562 732 b 127 527 238 732 127 672 b 326 341 127 432 186 376 l 488 300 b 604 189 569 280 604 245 b 351 71 604 106 528 71 b 127 93 287 71 220 78 l 117 7 b 351 -14 176 -7 246 -14 z m 206 846 l 309 846 l 427 1023 l 545 846 l 648 846 l 460 1104 l 394 1104 z "},"ș":{"ha":814,"x_min":0,"x_max":0,"o":"m 351 -14 b 697 189 594 -14 697 47 b 488 391 697 295 635 355 l 359 422 b 220 529 262 446 220 479 b 495 648 220 612 302 648 b 668 638 543 648 595 645 l 678 719 b 499 732 612 728 562 732 b 127 527 238 732 127 672 b 326 341 127 432 186 376 l 488 300 b 604 189 569 280 604 245 b 351 71 604 106 528 71 b 127 93 287 71 220 78 l 117 7 b 351 -14 176 -7 246 -14 z m 302 -326 l 385 -326 l 448 -95 l 354 -95 z "},"ṣ":{"ha":814,"x_min":0,"x_max":0,"o":"m 351 -14 b 697 189 594 -14 697 47 b 488 391 697 295 635 355 l 359 422 b 220 529 262 446 220 479 b 495 648 220 612 302 648 b 668 638 543 648 595 645 l 678 719 b 499 732 612 728 562 732 b 127 527 238 732 127 672 b 326 341 127 432 186 376 l 488 300 b 604 189 569 280 604 245 b 351 71 604 106 528 71 b 127 93 287 71 220 78 l 117 7 b 351 -14 176 -7 246 -14 z m 400 -269 b 475 -195 441 -269 475 -236 b 400 -119 475 -153 441 -119 b 325 -195 359 -119 325 -153 b 400 -269 325 -236 359 -269 z "},"ß":{"ha":814,"x_min":0,"x_max":0,"o":"m 555 -14 b 779 194 697 -14 779 62 b 654 406 779 290 712 350 b 581 529 614 447 581 485 b 618 642 581 581 600 610 b 687 821 650 690 687 725 b 452 1031 687 954 602 1031 b 161 726 267 1031 161 920 l 161 536 l 57 536 l 57 456 l 161 456 l 161 0 l 252 0 l 252 732 b 448 946 252 868 323 946 b 594 821 541 945 594 898 b 538 672 594 755 566 714 b 488 527 513 632 488 588 b 602 334 488 428 548 387 b 686 191 644 294 686 258 b 555 71 686 115 637 71 b 400 93 515 71 466 79 l 384 7 b 555 -14 428 -6 483 -14 z "},"ſ":{"ha":814,"x_min":0,"x_max":0,"o":"m 332 0 l 421 0 l 421 665 b 634 946 421 853 492 946 b 759 935 671 946 707 943 l 779 1015 b 638 1031 731 1026 689 1031 b 332 658 433 1031 332 907 l 332 537 l 57 537 l 57 456 l 332 456 z "},"t":{"ha":814,"x_min":0,"x_max":0,"o":"m 537 -14 b 715 3 601 -14 654 -8 l 705 85 b 551 71 650 77 603 71 b 356 278 418 71 356 138 l 356 639 l 688 639 l 688 719 l 356 719 l 356 936 l 265 936 l 265 719 l 58 719 l 58 639 l 265 639 l 265 276 b 537 -14 265 79 352 -14 z "},"ŧ":{"ha":814,"x_min":0,"x_max":0,"o":"m 58 355 l 265 355 l 265 276 b 537 -14 265 79 352 -14 b 715 3 601 -14 654 -8 l 705 85 b 551 71 650 77 603 71 b 356 278 418 71 356 138 l 356 355 l 688 355 l 688 435 l 356 435 l 356 639 l 688 639 l 688 719 l 356 719 l 356 936 l 265 936 l 265 719 l 58 719 l 58 639 l 265 639 l 265 435 l 58 435 z "},"ť":{"ha":814,"x_min":0,"x_max":0,"o":"m 537 -14 b 715 3 601 -14 654 -8 l 705 85 b 551 71 650 77 603 71 b 356 278 418 71 356 138 l 356 639 l 688 639 l 688 719 l 356 719 l 356 936 l 265 936 l 265 719 l 58 719 l 58 639 l 265 639 l 265 276 b 537 -14 265 79 352 -14 z m 492 833 l 572 833 l 625 1090 l 535 1090 z "},"ţ":{"ha":814,"x_min":0,"x_max":0,"o":"m 537 -14 b 715 3 601 -14 654 -8 l 705 85 b 551 71 650 77 603 71 b 356 278 418 71 356 138 l 356 639 l 688 639 l 688 719 l 356 719 l 356 936 l 265 936 l 265 719 l 58 719 l 58 639 l 265 639 l 265 276 b 417 4 265 128 314 39 l 371 -119 b 507 -184 466 -119 507 -139 b 351 -255 507 -233 459 -255 l 351 -326 b 589 -186 515 -326 589 -282 b 463 -73 589 -122 551 -82 l 482 -11 b 537 -14 500 -13 518 -14 z "},"ț":{"ha":814,"x_min":0,"x_max":0,"o":"m 537 -14 b 715 3 601 -14 654 -8 l 705 85 b 551 71 650 77 603 71 b 356 278 418 71 356 138 l 356 639 l 688 639 l 688 719 l 356 719 l 356 936 l 265 936 l 265 719 l 58 719 l 58 639 l 265 639 l 265 276 b 537 -14 265 79 352 -14 z m 353 -326 l 436 -326 l 499 -95 l 405 -95 z "},"ʧ":{"ha":814,"x_min":0,"x_max":0,"o":"m 352 -14 b 439 -4 383 -14 410 -10 l 428 78 b 366 71 402 74 383 71 b 254 197 288 71 254 109 l 254 639 l 530 639 l 530 -12 b 325 -234 530 -151 469 -216 l 262 -241 l 268 -323 l 310 -320 b 621 -4 528 -304 621 -210 l 621 775 b 760 928 621 872 671 928 b 821 924 780 928 802 926 l 831 1005 b 747 1013 806 1010 775 1013 b 530 778 606 1013 530 930 l 530 719 l 254 719 l 254 936 l 164 936 l 164 719 l 22 719 l 22 639 l 164 639 l 164 190 b 352 -14 164 47 220 -14 z "},"u":{"ha":814,"x_min":0,"x_max":0,"o":"m 359 -14 b 572 138 468 -14 546 41 l 581 138 l 591 -7 l 768 0 l 768 67 l 669 77 l 669 719 l 578 719 l 578 332 b 377 71 578 144 509 71 b 200 244 266 71 200 133 l 200 719 l 110 719 l 110 244 b 359 -14 110 80 200 -14 z "},"ú":{"ha":814,"x_min":0,"x_max":0,"o":"m 359 -14 b 572 138 468 -14 546 41 l 581 138 l 591 -7 l 768 0 l 768 67 l 669 77 l 669 719 l 578 719 l 578 332 b 377 71 578 144 509 71 b 200 244 266 71 200 133 l 200 719 l 110 719 l 110 244 b 359 -14 110 80 200 -14 z m 345 846 l 434 846 l 590 1104 l 492 1104 z "},"ŭ":{"ha":814,"x_min":0,"x_max":0,"o":"m 359 -14 b 572 138 468 -14 546 41 l 581 138 l 591 -7 l 768 0 l 768 67 l 669 77 l 669 719 l 578 719 l 578 332 b 377 71 578 144 509 71 b 200 244 266 71 200 133 l 200 719 l 110 719 l 110 244 b 359 -14 110 80 200 -14 z m 393 840 b 623 1058 539 840 623 919 l 623 1087 l 543 1087 l 543 1058 b 393 909 543 962 490 909 b 243 1058 297 909 243 962 l 243 1087 l 163 1087 l 163 1058 b 393 840 163 919 248 840 z "},"û":{"ha":814,"x_min":0,"x_max":0,"o":"m 359 -14 b 572 138 468 -14 546 41 l 581 138 l 591 -7 l 768 0 l 768 67 l 669 77 l 669 719 l 578 719 l 578 332 b 377 71 578 144 509 71 b 200 244 266 71 200 133 l 200 719 l 110 719 l 110 244 b 359 -14 110 80 200 -14 z m 172 846 l 275 846 l 393 1023 l 511 846 l 614 846 l 427 1104 l 360 1104 z "},"ü":{"ha":814,"x_min":0,"x_max":0,"o":"m 359 -14 b 572 138 468 -14 546 41 l 581 138 l 591 -7 l 768 0 l 768 67 l 669 77 l 669 719 l 578 719 l 578 332 b 377 71 578 144 509 71 b 200 244 266 71 200 133 l 200 719 l 110 719 l 110 244 b 359 -14 110 80 200 -14 z m 252 855 b 328 930 294 855 328 889 b 252 1006 328 972 294 1006 b 177 930 211 1006 177 972 b 252 855 177 889 211 855 z m 537 855 b 612 930 578 855 612 889 b 537 1006 612 972 578 1006 b 462 930 496 1006 462 972 b 537 855 462 889 496 855 z "},"ụ":{"ha":814,"x_min":0,"x_max":0,"o":"m 359 -14 b 572 138 468 -14 546 41 l 581 138 l 591 -7 l 768 0 l 768 67 l 669 77 l 669 719 l 578 719 l 578 332 b 377 71 578 144 509 71 b 200 244 266 71 200 133 l 200 719 l 110 719 l 110 244 b 359 -14 110 80 200 -14 z m 380 -269 b 455 -195 421 -269 455 -236 b 380 -119 455 -153 421 -119 b 304 -195 338 -119 304 -153 b 380 -269 304 -236 338 -269 z "},"ù":{"ha":814,"x_min":0,"x_max":0,"o":"m 359 -14 b 572 138 468 -14 546 41 l 581 138 l 591 -7 l 768 0 l 768 67 l 669 77 l 669 719 l 578 719 l 578 332 b 377 71 578 144 509 71 b 200 244 266 71 200 133 l 200 719 l 110 719 l 110 244 b 359 -14 110 80 200 -14 z m 366 846 l 454 846 l 307 1104 l 210 1104 z "},"ủ":{"ha":814,"x_min":0,"x_max":0,"o":"m 359 -14 b 572 138 468 -14 546 41 l 581 138 l 591 -7 l 768 0 l 768 67 l 669 77 l 669 719 l 578 719 l 578 332 b 377 71 578 144 509 71 b 200 244 266 71 200 133 l 200 719 l 110 719 l 110 244 b 359 -14 110 80 200 -14 z m 354 846 l 433 846 l 433 852 b 522 1035 433 930 522 939 b 390 1147 522 1107 475 1147 b 250 1099 332 1147 279 1129 l 286 1038 b 380 1072 310 1059 347 1072 b 441 1025 420 1072 441 1055 b 354 862 441 970 354 947 z "},"ư":{"ha":814,"x_min":0,"x_max":0,"o":"m 359 -14 b 572 138 468 -14 546 41 l 581 138 l 591 -7 l 768 0 l 768 67 l 669 77 l 669 667 b 822 911 773 703 822 781 l 729 911 b 606 726 729 806 689 746 l 578 719 l 578 332 b 377 71 578 144 509 71 b 200 244 266 71 200 133 l 200 719 l 110 719 l 110 244 b 359 -14 110 80 200 -14 z "},"ứ":{"ha":814,"x_min":0,"x_max":0,"o":"m 359 -14 b 572 138 468 -14 546 41 l 581 138 l 591 -7 l 768 0 l 768 67 l 669 77 l 669 667 b 822 911 773 703 822 781 l 729 911 b 606 726 729 806 689 746 l 578 719 l 578 332 b 377 71 578 144 509 71 b 200 244 266 71 200 133 l 200 719 l 110 719 l 110 244 b 359 -14 110 80 200 -14 z m 345 846 l 434 846 l 590 1104 l 492 1104 z "},"ự":{"ha":814,"x_min":0,"x_max":0,"o":"m 359 -14 b 572 138 468 -14 546 41 l 581 138 l 591 -7 l 768 0 l 768 67 l 669 77 l 669 667 b 822 911 773 703 822 781 l 729 911 b 606 726 729 806 689 746 l 578 719 l 578 332 b 377 71 578 144 509 71 b 200 244 266 71 200 133 l 200 719 l 110 719 l 110 244 b 359 -14 110 80 200 -14 z m 380 -269 b 455 -195 421 -269 455 -236 b 380 -119 455 -153 421 -119 b 304 -195 338 -119 304 -153 b 380 -269 304 -236 338 -269 z "},"ừ":{"ha":814,"x_min":0,"x_max":0,"o":"m 359 -14 b 572 138 468 -14 546 41 l 581 138 l 591 -7 l 768 0 l 768 67 l 669 77 l 669 667 b 822 911 773 703 822 781 l 729 911 b 606 726 729 806 689 746 l 578 719 l 578 332 b 377 71 578 144 509 71 b 200 244 266 71 200 133 l 200 719 l 110 719 l 110 244 b 359 -14 110 80 200 -14 z m 366 846 l 454 846 l 307 1104 l 210 1104 z "},"ử":{"ha":814,"x_min":0,"x_max":0,"o":"m 359 -14 b 572 138 468 -14 546 41 l 581 138 l 591 -7 l 768 0 l 768 67 l 669 77 l 669 667 b 822 911 773 703 822 781 l 729 911 b 606 726 729 806 689 746 l 578 719 l 578 332 b 377 71 578 144 509 71 b 200 244 266 71 200 133 l 200 719 l 110 719 l 110 244 b 359 -14 110 80 200 -14 z m 354 846 l 433 846 l 433 852 b 522 1035 433 930 522 939 b 390 1147 522 1107 475 1147 b 250 1099 332 1147 279 1129 l 286 1038 b 380 1072 310 1059 347 1072 b 441 1025 420 1072 441 1055 b 354 862 441 970 354 947 z "},"ữ":{"ha":814,"x_min":0,"x_max":0,"o":"m 359 -14 b 572 138 468 -14 546 41 l 581 138 l 591 -7 l 768 0 l 768 67 l 669 77 l 669 667 b 822 911 773 703 822 781 l 729 911 b 606 726 729 806 689 746 l 578 719 l 578 332 b 377 71 578 144 509 71 b 200 244 266 71 200 133 l 200 719 l 110 719 l 110 244 b 359 -14 110 80 200 -14 z m 163 852 l 243 852 l 243 886 b 307 968 243 941 264 968 b 398 920 336 968 368 940 b 520 868 446 890 487 868 b 637 1031 598 868 637 922 l 637 1085 l 558 1085 l 558 1024 b 512 949 558 974 543 949 b 406 1000 490 949 455 967 b 295 1048 369 1027 335 1048 b 163 879 207 1048 163 992 z "},"ű":{"ha":814,"x_min":0,"x_max":0,"o":"m 359 -14 b 572 138 468 -14 546 41 l 581 138 l 591 -7 l 768 0 l 768 67 l 669 77 l 669 719 l 578 719 l 578 332 b 377 71 578 144 509 71 b 200 244 266 71 200 133 l 200 719 l 110 719 l 110 244 b 359 -14 110 80 200 -14 z m 205 846 l 297 846 l 412 1104 l 312 1104 z m 466 846 l 557 846 l 673 1104 l 572 1104 z "},"ū":{"ha":814,"x_min":0,"x_max":0,"o":"m 359 -14 b 572 138 468 -14 546 41 l 581 138 l 591 -7 l 768 0 l 768 67 l 669 77 l 669 719 l 578 719 l 578 332 b 377 71 578 144 509 71 b 200 244 266 71 200 133 l 200 719 l 110 719 l 110 244 b 359 -14 110 80 200 -14 z m 113 846 l 673 846 l 673 930 l 113 930 z "},"ų":{"ha":814,"x_min":0,"x_max":0,"o":"m 683 -288 b 746 -281 701 -288 724 -286 l 753 -208 b 701 -212 734 -210 715 -212 b 600 -132 636 -212 600 -183 b 743 -1 600 -59 652 -8 l 768 0 l 768 67 l 669 77 l 669 719 l 578 719 l 578 332 b 377 71 578 144 509 71 b 200 244 266 71 200 133 l 200 719 l 110 719 l 110 244 b 359 -14 110 80 200 -14 b 572 138 468 -14 546 41 l 581 138 l 591 -7 l 615 -6 l 615 -15 b 525 -149 557 -41 525 -90 b 683 -288 525 -237 583 -288 z "},"ʊ":{"ha":814,"x_min":0,"x_max":0,"o":"m 81 718 l 81 637 l 237 637 l 237 629 b 67 328 133 587 67 469 b 407 -10 67 121 199 -10 b 747 328 614 -10 747 121 b 593 629 747 471 687 589 l 593 637 l 732 637 l 732 718 l 471 718 l 471 637 b 654 358 582 610 654 500 b 407 75 654 185 557 75 b 160 358 256 75 160 185 b 359 637 160 498 238 607 l 359 718 z "},"ů":{"ha":814,"x_min":0,"x_max":0,"o":"m 359 -14 b 572 138 468 -14 546 41 l 581 138 l 591 -7 l 768 0 l 768 67 l 669 77 l 669 719 l 578 719 l 578 332 b 377 71 578 144 509 71 b 200 244 266 71 200 133 l 200 719 l 110 719 l 110 244 b 359 -14 110 80 200 -14 z m 393 812 b 544 959 489 812 544 866 b 393 1105 544 1052 489 1105 b 243 959 298 1105 243 1052 b 393 812 243 866 298 812 z m 393 877 b 315 959 343 877 315 907 b 393 1041 315 1011 343 1041 b 471 959 444 1041 471 1011 b 393 877 471 907 444 877 z "},"ũ":{"ha":814,"x_min":0,"x_max":0,"o":"m 359 -14 b 572 138 468 -14 546 41 l 581 138 l 591 -7 l 768 0 l 768 67 l 669 77 l 669 719 l 578 719 l 578 332 b 377 71 578 144 509 71 b 200 244 266 71 200 133 l 200 719 l 110 719 l 110 244 b 359 -14 110 80 200 -14 z m 163 852 l 243 852 l 243 886 b 307 968 243 941 264 968 b 398 920 336 968 368 940 b 520 868 446 890 487 868 b 637 1031 598 868 637 922 l 637 1085 l 558 1085 l 558 1024 b 512 949 558 974 543 949 b 406 1000 490 949 455 967 b 295 1048 369 1027 335 1048 b 163 879 207 1048 163 992 z "},"v":{"ha":814,"x_min":0,"x_max":0,"o":"m 345 0 l 469 0 l 749 719 l 652 719 l 412 77 l 404 77 l 162 719 l 65 719 z "},"ʋ":{"ha":814,"x_min":0,"x_max":0,"o":"m 407 -14 b 692 278 595 -14 692 86 l 692 551 b 545 719 692 668 648 719 l 459 719 l 459 635 l 528 635 b 604 541 581 635 604 606 l 604 278 b 407 71 604 142 536 71 b 210 278 277 71 210 142 l 210 719 l 121 719 l 121 278 b 407 -14 122 86 220 -14 z "},"ʌ":{"ha":814,"x_min":0,"x_max":0,"o":"m 75 0 l 171 0 l 401 638 l 413 638 l 643 0 l 739 0 l 471 719 l 342 719 z "},"w":{"ha":814,"x_min":0,"x_max":0,"o":"m 505 0 l 629 0 l 755 719 l 670 719 l 568 73 l 558 73 l 456 719 l 345 719 l 242 73 l 232 73 l 142 719 l 58 719 l 164 0 l 298 0 l 396 633 l 404 633 z "},"ẃ":{"ha":814,"x_min":0,"x_max":0,"o":"m 505 0 l 629 0 l 755 719 l 670 719 l 568 73 l 558 73 l 456 719 l 345 719 l 242 73 l 232 73 l 142 719 l 58 719 l 164 0 l 298 0 l 396 633 l 404 633 z m 352 846 l 441 846 l 597 1104 l 499 1104 z "},"ŵ":{"ha":814,"x_min":0,"x_max":0,"o":"m 505 0 l 629 0 l 755 719 l 670 719 l 568 73 l 558 73 l 456 719 l 345 719 l 242 73 l 232 73 l 142 719 l 58 719 l 164 0 l 298 0 l 396 633 l 404 633 z m 179 846 l 282 846 l 400 1023 l 518 846 l 621 846 l 433 1104 l 367 1104 z "},"ẅ":{"ha":814,"x_min":0,"x_max":0,"o":"m 505 0 l 629 0 l 755 719 l 670 719 l 568 73 l 558 73 l 456 719 l 345 719 l 242 73 l 232 73 l 142 719 l 58 719 l 164 0 l 298 0 l 396 633 l 404 633 z m 259 855 b 334 930 300 855 334 889 b 259 1006 334 972 300 1006 b 184 930 218 1006 184 972 b 259 855 184 889 218 855 z m 544 855 b 619 930 585 855 619 889 b 544 1006 619 972 585 1006 b 469 930 503 1006 469 972 b 544 855 469 889 503 855 z "},"ẁ":{"ha":814,"x_min":0,"x_max":0,"o":"m 505 0 l 629 0 l 755 719 l 670 719 l 568 73 l 558 73 l 456 719 l 345 719 l 242 73 l 232 73 l 142 719 l 58 719 l 164 0 l 298 0 l 396 633 l 404 633 z m 372 846 l 461 846 l 314 1104 l 216 1104 z "},"x":{"ha":814,"x_min":0,"x_max":0,"o":"m 83 0 l 191 0 l 407 290 l 623 0 l 731 0 l 459 359 l 731 719 l 623 719 l 408 427 l 191 719 l 83 719 l 357 357 z "},"y":{"ha":814,"x_min":0,"x_max":0,"o":"m 62 -326 l 142 -315 b 498 64 304 -294 401 -195 l 745 719 l 648 719 l 426 98 b 418 77 423 90 420 83 l 412 77 l 146 719 l 48 719 l 353 0 l 386 0 b 125 -231 316 -151 239 -214 l 58 -241 z "},"ý":{"ha":814,"x_min":0,"x_max":0,"o":"m 62 -326 l 142 -315 b 498 64 304 -294 401 -195 l 745 719 l 648 719 l 426 98 b 418 77 423 90 420 83 l 412 77 l 146 719 l 48 719 l 353 0 l 386 0 b 125 -231 316 -151 239 -214 l 58 -241 z m 369 846 l 458 846 l 614 1104 l 516 1104 z "},"ŷ":{"ha":814,"x_min":0,"x_max":0,"o":"m 62 -326 l 142 -315 b 498 64 304 -294 401 -195 l 745 719 l 648 719 l 426 98 b 418 77 423 90 420 83 l 412 77 l 146 719 l 48 719 l 353 0 l 386 0 b 125 -231 316 -151 239 -214 l 58 -241 z m 196 846 l 299 846 l 417 1023 l 535 846 l 638 846 l 450 1104 l 384 1104 z "},"ÿ":{"ha":814,"x_min":0,"x_max":0,"o":"m 62 -326 l 142 -315 b 498 64 304 -294 401 -195 l 745 719 l 648 719 l 426 98 b 418 77 423 90 420 83 l 412 77 l 146 719 l 48 719 l 353 0 l 386 0 b 125 -231 316 -151 239 -214 l 58 -241 z m 276 855 b 351 930 317 855 351 889 b 276 1006 351 972 317 1006 b 201 930 235 1006 201 972 b 276 855 201 889 235 855 z m 561 855 b 636 930 602 855 636 889 b 561 1006 636 972 602 1006 b 486 930 519 1006 486 972 b 561 855 486 889 519 855 z "},"ỵ":{"ha":814,"x_min":0,"x_max":0,"o":"m 62 -326 l 142 -315 b 498 64 304 -294 401 -195 l 745 719 l 648 719 l 426 98 b 418 77 423 90 420 83 l 412 77 l 146 719 l 48 719 l 353 0 l 386 0 b 125 -231 316 -151 239 -214 l 58 -241 z m 641 -269 b 716 -195 682 -269 716 -236 b 641 -119 716 -153 682 -119 b 566 -195 600 -119 566 -153 b 641 -269 566 -236 600 -269 z "},"ỳ":{"ha":814,"x_min":0,"x_max":0,"o":"m 62 -326 l 142 -315 b 498 64 304 -294 401 -195 l 745 719 l 648 719 l 426 98 b 418 77 423 90 420 83 l 412 77 l 146 719 l 48 719 l 353 0 l 386 0 b 125 -231 316 -151 239 -214 l 58 -241 z m 389 846 l 478 846 l 331 1104 l 233 1104 z "},"ỷ":{"ha":814,"x_min":0,"x_max":0,"o":"m 62 -326 l 142 -315 b 498 64 304 -294 401 -195 l 745 719 l 648 719 l 426 98 b 418 77 423 90 420 83 l 412 77 l 146 719 l 48 719 l 353 0 l 386 0 b 125 -231 316 -151 239 -214 l 58 -241 z m 378 846 l 456 846 l 456 852 b 545 1035 456 930 545 939 b 414 1147 545 1107 498 1147 b 274 1099 356 1147 303 1129 l 309 1038 b 404 1072 334 1059 370 1072 b 465 1025 444 1072 465 1055 b 378 862 465 970 378 947 z "},"ȳ":{"ha":814,"x_min":0,"x_max":0,"o":"m 62 -326 l 142 -315 b 498 64 304 -294 401 -195 l 745 719 l 648 719 l 426 98 b 418 77 423 90 420 83 l 412 77 l 146 719 l 48 719 l 353 0 l 386 0 b 125 -231 316 -151 239 -214 l 58 -241 z m 137 846 l 697 846 l 697 930 l 137 930 z "},"ỹ":{"ha":814,"x_min":0,"x_max":0,"o":"m 62 -326 l 142 -315 b 498 64 304 -294 401 -195 l 745 719 l 648 719 l 426 98 b 418 77 423 90 420 83 l 412 77 l 146 719 l 48 719 l 353 0 l 386 0 b 125 -231 316 -151 239 -214 l 58 -241 z m 187 852 l 267 852 l 267 886 b 331 968 267 941 288 968 b 422 920 360 968 391 940 b 544 868 470 890 511 868 b 661 1031 622 868 661 922 l 661 1085 l 582 1085 l 582 1024 b 536 949 582 974 566 949 b 430 1000 513 949 479 967 b 319 1048 393 1027 359 1048 b 187 879 231 1048 187 992 z "},"z":{"ha":814,"x_min":0,"x_max":0,"o":"m 119 0 l 692 0 l 692 81 l 225 81 l 678 638 l 678 719 l 119 719 l 119 638 l 574 638 l 119 81 z "},"ź":{"ha":814,"x_min":0,"x_max":0,"o":"m 119 0 l 692 0 l 692 81 l 225 81 l 678 638 l 678 719 l 119 719 l 119 638 l 574 638 l 119 81 z m 359 846 l 448 846 l 604 1104 l 506 1104 z "},"ž":{"ha":814,"x_min":0,"x_max":0,"o":"m 119 0 l 692 0 l 692 81 l 225 81 l 678 638 l 678 719 l 119 719 l 119 638 l 574 638 l 119 81 z m 374 821 l 440 821 l 628 1078 l 525 1078 l 407 901 l 289 1078 l 186 1078 z "},"ż":{"ha":814,"x_min":0,"x_max":0,"o":"m 119 0 l 692 0 l 692 81 l 225 81 l 678 638 l 678 719 l 119 719 l 119 638 l 574 638 l 119 81 z m 406 855 b 481 930 447 855 481 889 b 406 1006 481 972 447 1006 b 330 930 364 1006 330 972 b 406 855 330 889 364 855 z "},"ﬁ":{"ha":814,"x_min":0,"x_max":0,"o":"m 218 0 l 309 0 l 309 457 l 599 457 l 599 0 l 689 0 l 689 537 l 309 537 l 309 665 b 539 946 309 853 385 946 b 656 937 574 946 608 943 l 671 1017 b 543 1031 628 1027 589 1031 b 218 658 326 1031 218 907 l 218 537 l 57 537 l 57 457 l 218 457 z "},"ﬂ":{"ha":814,"x_min":0,"x_max":0,"o":"m 222 0 l 313 0 l 313 457 l 505 457 l 505 537 l 313 537 l 313 665 b 550 946 313 853 391 946 b 621 943 572 946 595 945 l 621 0 l 711 0 l 711 1017 b 554 1031 659 1027 611 1031 b 222 658 332 1031 222 907 l 222 537 l 57 537 l 57 457 l 222 457 z "},"ª":{"ha":814,"x_min":0,"x_max":0,"o":"m 493 528 l 628 532 l 628 590 l 555 599 l 555 786 b 327 976 555 909 490 975 l 228 977 l 220 905 l 335 905 b 477 799 429 905 477 866 l 477 794 b 351 802 442 800 399 802 b 168 655 234 802 168 749 b 318 524 168 572 224 524 b 475 620 413 524 451 557 l 489 620 z m 477 731 l 477 705 b 334 591 477 650 429 591 b 249 662 278 591 249 616 b 353 738 249 712 285 738 b 477 732 395 738 435 738 z "},"º":{"ha":814,"x_min":0,"x_max":0,"o":"m 407 522 b 628 749 541 522 628 612 b 407 977 628 886 541 977 b 186 749 273 977 186 886 b 407 522 186 612 273 522 z m 407 592 b 269 749 323 592 269 655 b 407 907 269 844 323 907 b 545 749 490 907 545 844 b 407 592 545 655 490 592 z "},"ⁿ":{"ha":814,"x_min":0,"x_max":0,"o":"m 519 536 l 603 536 l 603 818 b 439 977 603 918 543 977 b 303 872 359 977 309 939 l 295 872 l 288 968 l 212 968 l 212 536 l 296 536 l 296 771 b 418 910 296 852 337 910 b 519 801 486 910 519 874 z "},"ʷ":{"ha":814,"x_min":0,"x_max":0,"o":"m 467 536 l 568 536 l 643 964 l 565 964 l 511 612 l 499 612 l 436 964 l 370 964 l 307 612 l 295 612 l 250 964 l 172 964 l 233 536 l 340 536 l 398 880 l 408 880 z "},"ʸ":{"ha":814,"x_min":0,"x_max":0,"o":"m 183 342 l 227 342 b 494 574 357 342 433 419 l 646 964 l 560 964 l 428 602 l 420 602 l 267 964 l 182 964 l 365 536 l 399 536 b 216 415 354 451 294 415 l 183 415 z "},"А":{"ha":814,"x_min":0,"x_max":0,"o":"m 41 0 l 130 0 l 210 258 l 604 258 l 684 0 l 772 0 l 469 963 l 345 963 z m 235 340 l 403 889 l 411 889 l 579 340 z "},"Б":{"ha":814,"x_min":0,"x_max":0,"o":"m 119 0 l 450 0 b 749 287 640 0 749 104 b 450 564 749 463 640 564 l 205 564 l 205 880 l 678 880 l 678 963 l 119 963 z m 205 83 l 205 481 l 435 481 b 660 287 578 481 660 411 b 435 83 660 157 578 83 z "},"В":{"ha":814,"x_min":0,"x_max":0,"o":"m 119 0 l 459 0 b 758 260 650 0 758 94 b 475 508 758 415 656 505 l 475 515 b 690 724 613 525 690 600 b 395 963 690 876 583 963 l 119 963 z m 205 83 l 205 467 l 447 467 b 669 267 588 467 669 394 b 447 83 669 150 588 83 z m 205 550 l 205 880 l 397 880 b 602 719 527 880 602 822 b 397 550 602 612 527 550 z "},"Г":{"ha":814,"x_min":0,"x_max":0,"o":"m 133 0 l 219 0 l 219 880 l 728 880 l 728 963 l 133 963 z "},"Ѓ":{"ha":814,"x_min":0,"x_max":0,"o":"m 133 0 l 219 0 l 219 880 l 728 880 l 728 963 l 133 963 z m 366 1072 l 469 1072 l 636 1241 l 517 1241 z "},"Ґ":{"ha":814,"x_min":0,"x_max":0,"o":"m 122 0 l 208 0 l 208 880 l 742 880 l 742 1173 l 656 1173 l 656 963 l 122 963 z "},"Д":{"ha":814,"x_min":0,"x_max":0,"o":"m 31 -197 l 117 -197 l 117 0 l 696 0 l 696 -197 l 783 -197 l 783 83 l 694 83 l 694 963 l 172 963 l 172 589 b 83 83 172 426 141 174 l 31 83 z m 608 83 l 174 83 b 254 593 229 193 254 435 l 254 880 l 608 880 z "},"Е":{"ha":814,"x_min":0,"x_max":0,"o":"m 119 0 l 735 0 l 735 83 l 205 83 l 205 441 l 613 441 l 613 524 l 205 524 l 205 880 l 735 880 l 735 963 l 119 963 z "},"Ѐ":{"ha":814,"x_min":0,"x_max":0,"o":"m 119 0 l 735 0 l 735 83 l 205 83 l 205 441 l 613 441 l 613 524 l 205 524 l 205 880 l 735 880 l 735 963 l 119 963 z m 382 1072 l 485 1072 l 334 1241 l 214 1241 z "},"Ё":{"ha":814,"x_min":0,"x_max":0,"o":"m 119 0 l 735 0 l 735 83 l 205 83 l 205 441 l 613 441 l 613 524 l 205 524 l 205 880 l 735 880 l 735 963 l 119 963 z m 286 1087 b 361 1162 328 1087 361 1120 b 286 1238 361 1204 328 1238 b 211 1162 245 1238 211 1204 b 286 1087 211 1120 245 1087 z m 568 1087 b 644 1162 610 1087 644 1120 b 568 1238 644 1204 610 1238 b 493 1162 527 1238 493 1204 b 568 1087 493 1120 527 1087 z "},"Ж":{"ha":814,"x_min":0,"x_max":0,"o":"m 9 -3 l 46 -3 b 170 125 124 -3 160 35 l 192 342 b 299 440 202 422 219 440 l 368 440 l 368 0 l 446 0 l 446 440 l 515 440 b 622 342 595 440 612 422 l 644 125 b 768 -3 654 35 690 -3 l 804 -3 l 804 79 l 789 79 b 728 145 760 79 734 98 l 706 351 b 594 475 697 427 661 470 l 547 478 l 547 485 l 594 488 b 706 616 661 493 696 538 l 728 818 b 789 884 735 865 760 884 l 804 884 l 804 966 l 768 966 b 644 838 690 966 654 927 l 622 626 b 515 523 611 543 595 523 l 446 523 l 446 963 l 368 963 l 368 523 l 299 523 b 192 626 219 523 203 543 l 170 838 b 46 966 159 927 124 966 l 9 966 l 9 884 l 25 884 b 85 818 54 884 79 865 l 108 616 b 220 488 118 538 153 493 l 265 485 l 265 478 l 220 475 b 108 351 153 470 117 427 l 85 145 b 25 79 79 98 54 79 l 9 79 z "},"З":{"ha":814,"x_min":0,"x_max":0,"o":"m 375 -14 b 716 267 585 -14 716 97 b 455 512 716 422 592 505 l 455 520 b 678 741 614 554 678 629 b 348 977 678 893 573 977 b 138 946 269 977 174 960 l 151 864 b 346 894 205 878 290 894 b 589 726 512 894 589 834 b 249 547 589 610 492 555 l 258 465 l 362 465 b 627 277 521 465 627 397 b 378 68 627 146 534 68 b 116 164 269 68 206 96 l 54 102 b 375 -14 137 25 241 -14 z "},"И":{"ha":814,"x_min":0,"x_max":0,"o":"m 111 0 l 209 0 l 605 802 l 618 802 l 618 0 l 703 0 l 703 963 l 605 963 l 209 161 l 195 161 l 195 963 l 111 963 z "},"Й":{"ha":814,"x_min":0,"x_max":0,"o":"m 111 0 l 209 0 l 605 802 l 618 802 l 618 0 l 703 0 l 703 963 l 605 963 l 209 161 l 195 161 l 195 963 l 111 963 z m 407 1065 b 629 1261 548 1065 629 1137 l 545 1261 b 407 1132 545 1175 494 1132 b 269 1261 319 1132 269 1175 l 184 1261 b 407 1065 184 1137 266 1065 z "},"Ѝ":{"ha":814,"x_min":0,"x_max":0,"o":"m 111 0 l 209 0 l 605 802 l 618 802 l 618 0 l 703 0 l 703 963 l 605 963 l 209 161 l 195 161 l 195 963 l 111 963 z m 361 1072 l 465 1072 l 313 1241 l 194 1241 z "},"К":{"ha":814,"x_min":0,"x_max":0,"o":"m 106 0 l 192 0 l 192 440 l 369 440 b 498 326 440 440 473 406 l 568 123 b 722 -3 595 28 640 -3 l 755 -3 l 755 80 l 734 80 b 650 150 689 80 667 100 l 587 340 b 414 478 557 433 511 478 l 407 478 l 407 486 l 414 486 b 583 623 509 486 553 531 l 646 814 b 730 883 663 863 684 883 l 751 883 l 751 967 l 720 967 b 565 841 637 967 593 935 l 496 638 b 369 523 471 557 438 523 l 192 523 l 192 963 l 106 963 z "},"Ќ":{"ha":814,"x_min":0,"x_max":0,"o":"m 106 0 l 192 0 l 192 440 l 369 440 b 498 326 440 440 473 406 l 568 123 b 722 -3 595 28 640 -3 l 755 -3 l 755 80 l 734 80 b 650 150 689 80 667 100 l 587 340 b 414 478 557 433 511 478 l 407 478 l 407 486 l 414 486 b 583 623 509 486 553 531 l 646 814 b 730 883 663 863 684 883 l 751 883 l 751 967 l 720 967 b 565 841 637 967 593 935 l 496 638 b 369 523 471 557 438 523 l 192 523 l 192 963 l 106 963 z m 352 1072 l 455 1072 l 623 1241 l 503 1241 z "},"Л":{"ha":814,"x_min":0,"x_max":0,"o":"m 36 1 b 266 367 248 1 266 140 l 266 880 l 622 880 l 622 0 l 708 0 l 708 963 l 183 963 l 183 362 b 36 84 183 191 177 84 z "},"М":{"ha":814,"x_min":0,"x_max":0,"o":"m 98 0 l 182 0 l 182 866 l 192 866 l 361 429 l 453 429 l 622 866 l 632 866 l 632 0 l 716 0 l 716 963 l 578 963 l 410 522 l 404 522 l 235 963 l 98 963 z "},"Н":{"ha":814,"x_min":0,"x_max":0,"o":"m 622 0 l 708 0 l 708 963 l 622 963 l 622 521 l 192 521 l 192 963 l 106 963 l 106 0 l 192 0 l 192 438 l 622 438 z "},"О":{"ha":814,"x_min":0,"x_max":0,"o":"m 407 -14 b 751 475 635 -14 751 148 b 407 977 751 810 635 977 b 62 475 178 977 62 810 b 407 -14 62 148 178 -14 z m 407 64 b 151 475 237 64 151 201 b 407 895 151 755 237 895 b 663 475 577 895 663 755 b 407 64 663 201 577 64 z "},"П":{"ha":814,"x_min":0,"x_max":0,"o":"m 622 0 l 708 0 l 708 963 l 106 963 l 106 0 l 192 0 l 192 880 l 622 880 z "},"Р":{"ha":814,"x_min":0,"x_max":0,"o":"m 119 0 l 205 0 l 205 321 l 401 321 b 749 646 625 321 749 437 b 401 963 749 850 625 963 l 119 963 z m 205 404 l 205 880 l 401 880 b 660 646 567 880 660 797 b 401 404 660 490 567 404 z "},"С":{"ha":814,"x_min":0,"x_max":0,"o":"m 503 -14 b 740 33 585 -14 664 1 l 718 113 b 517 68 652 83 586 68 b 155 490 276 68 155 209 b 488 895 155 748 286 895 b 694 791 572 895 648 857 l 757 855 b 486 977 713 932 614 977 b 64 483 218 977 64 796 b 503 -14 64 152 212 -14 z "},"Т":{"ha":814,"x_min":0,"x_max":0,"o":"m 364 0 l 450 0 l 450 880 l 749 880 l 749 963 l 65 963 l 65 880 l 364 880 z "},"У":{"ha":814,"x_min":0,"x_max":0,"o":"m 142 0 b 543 262 372 0 474 66 l 780 963 l 687 963 l 473 300 b 454 250 467 282 460 265 l 442 250 l 162 963 l 69 963 l 388 154 b 142 83 334 102 258 83 z "},"Ў":{"ha":814,"x_min":0,"x_max":0,"o":"m 142 0 b 543 262 372 0 474 66 l 780 963 l 687 963 l 473 300 b 454 250 467 282 460 265 l 442 250 l 162 963 l 69 963 l 388 154 b 142 83 334 102 258 83 z m 434 1065 b 656 1261 575 1065 656 1137 l 572 1261 b 434 1132 572 1175 522 1132 b 296 1261 347 1132 296 1175 l 212 1261 b 434 1065 212 1137 293 1065 z "},"Ф":{"ha":814,"x_min":0,"x_max":0,"o":"m 367 -14 l 446 -14 l 446 87 b 758 481 653 101 758 231 b 446 889 758 739 653 875 l 446 990 l 367 990 l 367 889 b 56 481 160 874 56 739 b 367 87 56 232 160 102 z m 444 811 b 671 481 595 797 671 688 b 444 165 671 284 595 179 z m 369 165 b 142 481 218 180 142 285 b 369 811 142 687 218 796 z "},"Х":{"ha":814,"x_min":0,"x_max":0,"o":"m 662 0 l 759 0 l 450 476 l 759 963 l 662 963 l 407 545 l 152 963 l 55 963 l 363 476 l 55 0 l 152 0 l 407 408 z "},"Ч":{"ha":814,"x_min":0,"x_max":0,"o":"m 368 388 l 597 388 l 597 0 l 683 0 l 683 963 l 597 963 l 597 471 l 368 471 b 167 713 227 471 167 543 l 167 963 l 81 963 l 81 713 b 368 388 81 485 167 388 z "},"Ц":{"ha":814,"x_min":0,"x_max":0,"o":"m 106 0 l 690 0 l 690 -197 l 776 -197 l 776 83 l 712 83 l 712 963 l 626 963 l 626 83 l 192 83 l 192 963 l 106 963 z "},"Ш":{"ha":814,"x_min":0,"x_max":0,"o":"m 98 0 l 716 0 l 716 963 l 630 963 l 630 81 l 446 81 l 446 963 l 368 963 l 368 81 l 184 81 l 184 963 l 98 963 z "},"Щ":{"ha":814,"x_min":0,"x_max":0,"o":"m 98 0 l 690 0 l 690 -197 l 776 -197 l 776 81 l 716 81 l 716 963 l 630 963 l 630 81 l 446 81 l 446 963 l 368 963 l 368 81 l 184 81 l 184 963 l 98 963 z "},"Џ":{"ha":814,"x_min":0,"x_max":0,"o":"m 364 -197 l 450 -197 l 450 0 l 708 0 l 708 963 l 622 963 l 622 83 l 192 83 l 192 963 l 106 963 l 106 0 l 364 0 z "},"Ь":{"ha":814,"x_min":0,"x_max":0,"o":"m 106 0 l 446 0 b 745 299 633 0 745 113 b 446 599 745 486 633 599 l 192 599 l 192 963 l 106 963 z m 192 83 l 192 516 l 429 516 b 656 299 571 516 656 435 b 429 83 656 163 571 83 z "},"Ъ":{"ha":814,"x_min":0,"x_max":0,"o":"m 174 0 l 444 0 b 751 299 636 0 751 113 b 444 599 751 486 636 599 l 260 599 l 260 963 l 4 963 l 4 880 l 174 880 z m 260 83 l 260 516 l 427 516 b 663 299 574 516 663 435 b 427 83 663 163 574 83 z "},"Ы":{"ha":814,"x_min":0,"x_max":0,"o":"m 98 0 l 263 0 b 502 299 412 0 502 113 b 263 599 502 486 412 599 l 184 599 l 184 963 l 98 963 z m 184 83 l 184 516 l 250 516 b 417 299 355 516 417 435 b 250 83 417 163 355 83 z m 633 0 l 716 0 l 716 963 l 633 963 z "},"Љ":{"ha":814,"x_min":0,"x_max":0,"o":"m 47 0 b 237 257 192 0 237 60 l 237 880 l 404 880 l 404 0 l 545 0 b 751 299 670 0 751 119 b 545 599 751 479 670 599 l 485 599 l 485 963 l 160 963 l 160 252 b 47 83 160 123 134 83 z m 485 83 l 485 516 l 533 516 b 667 299 614 516 667 431 b 533 83 667 168 614 83 z "},"Њ":{"ha":814,"x_min":0,"x_max":0,"o":"m 98 0 l 184 0 l 184 437 l 401 437 l 401 0 l 543 0 b 751 299 673 0 751 113 b 543 599 751 486 673 599 l 486 599 l 486 963 l 401 963 l 401 522 l 184 522 l 184 963 l 98 963 z m 486 83 l 486 514 l 531 514 b 667 299 616 514 667 434 b 531 83 667 163 616 83 z "},"Ѕ":{"ha":814,"x_min":0,"x_max":0,"o":"m 374 -14 b 706 233 596 -14 706 68 b 528 481 706 343 646 422 l 320 586 b 214 732 251 621 214 664 b 410 895 214 840 280 895 b 649 799 490 895 566 864 l 710 861 b 409 977 627 940 530 977 b 124 726 222 977 124 890 b 285 503 124 623 180 554 l 513 385 b 616 230 582 351 616 299 b 385 68 616 122 540 68 b 111 124 296 68 205 87 l 98 35 b 374 -14 179 3 270 -14 z "},"Є":{"ha":814,"x_min":0,"x_max":0,"o":"m 509 -14 b 747 33 591 -14 671 1 l 725 113 b 524 68 659 83 593 68 b 160 452 292 68 171 196 l 585 452 l 585 534 l 161 534 b 494 895 175 765 304 895 b 701 791 578 895 654 857 l 764 855 b 493 977 720 932 621 977 b 71 483 224 977 71 796 b 509 -14 71 152 218 -14 z "},"Э":{"ha":814,"x_min":0,"x_max":0,"o":"m 323 -14 b 738 484 599 -14 738 174 b 309 977 738 802 591 977 b 68 941 224 977 146 965 l 90 862 b 286 895 154 884 217 895 b 648 535 508 895 631 764 l 226 535 l 226 451 l 649 451 b 330 68 641 212 524 68 b 85 155 231 68 174 89 l 22 94 b 323 -14 100 22 205 -14 z "},"І":{"ha":814,"x_min":0,"x_max":0,"o":"m 125 0 l 689 0 l 689 83 l 449 83 l 449 880 l 689 880 l 689 963 l 125 963 l 125 880 l 363 880 l 363 83 l 125 83 z "},"Ї":{"ha":814,"x_min":0,"x_max":0,"o":"m 125 0 l 689 0 l 689 83 l 449 83 l 449 880 l 689 880 l 689 963 l 125 963 l 125 880 l 363 880 l 363 83 l 125 83 z m 266 1087 b 341 1162 307 1087 341 1120 b 266 1238 341 1204 307 1238 b 191 1162 224 1238 191 1204 b 266 1087 191 1120 224 1087 z m 548 1087 b 623 1162 589 1087 623 1120 b 548 1238 623 1204 589 1238 b 473 1162 507 1238 473 1204 b 548 1087 473 1120 507 1087 z "},"Ј":{"ha":814,"x_min":0,"x_max":0,"o":"m 389 -14 b 709 323 599 -14 709 102 l 709 963 l 332 963 l 332 880 l 623 880 l 623 323 b 393 68 623 155 545 68 b 156 323 237 68 156 155 l 69 323 b 389 -14 69 102 178 -14 z "},"Ћ":{"ha":814,"x_min":0,"x_max":0,"o":"m 623 0 l 709 0 l 709 264 b 441 570 709 479 629 570 l 273 570 l 273 880 l 559 880 l 559 963 l 24 963 l 24 880 l 188 880 l 188 0 l 273 0 l 273 487 l 441 487 b 623 264 569 487 623 420 z "},"Ю":{"ha":814,"x_min":0,"x_max":0,"o":"m 526 -14 b 751 475 684 -14 751 132 b 526 977 751 827 684 977 b 301 521 374 977 307 840 l 149 521 l 149 963 l 65 963 l 65 0 l 149 0 l 149 438 l 300 438 b 526 -14 305 122 373 -14 z m 524 68 b 382 475 425 68 382 190 b 524 895 382 769 425 895 b 664 475 623 895 664 769 b 524 68 664 190 623 68 z "},"Я":{"ha":814,"x_min":0,"x_max":0,"o":"m 60 -3 l 79 -3 b 249 138 178 -3 224 43 l 283 272 b 426 382 303 348 320 382 l 623 382 l 623 0 l 709 0 l 709 963 l 396 963 b 87 675 201 963 87 859 b 359 426 87 439 269 427 l 359 418 b 202 288 287 416 228 393 l 178 191 b 71 79 157 109 123 79 l 60 79 z m 566 465 l 396 466 b 176 669 258 466 176 541 b 396 880 176 805 258 880 l 623 880 l 623 465 z "},"Ђ":{"ha":814,"x_min":0,"x_max":0,"o":"m 415 0 b 723 300 614 0 723 106 b 427 576 723 479 618 576 l 273 576 l 273 880 l 549 880 l 549 963 l 4 963 l 4 880 l 188 880 l 188 0 l 273 0 l 273 494 l 427 494 b 637 300 562 494 637 425 b 415 83 637 161 558 83 z "},"Ғ":{"ha":814,"x_min":0,"x_max":0,"o":"m 8 419 l 133 419 l 133 0 l 219 0 l 219 419 l 480 419 l 480 503 l 219 503 l 219 880 l 728 880 l 728 963 l 133 963 l 133 503 l 8 503 z "},"Җ":{"ha":814,"x_min":0,"x_max":0,"o":"m 9 -3 l 46 -3 b 170 125 124 -3 160 35 l 192 342 b 294 440 202 422 219 440 l 358 440 l 358 0 l 437 0 l 437 440 l 501 440 b 604 342 576 440 593 422 l 627 125 b 727 -2 635 44 665 5 l 727 -197 l 810 -197 l 810 83 l 771 83 b 711 146 742 83 716 100 l 688 351 b 576 475 679 427 643 470 l 526 478 l 526 485 l 576 488 b 688 616 643 493 678 538 l 711 818 b 771 884 717 865 742 884 l 787 884 l 787 966 l 750 966 b 627 838 671 966 636 927 l 604 626 b 501 523 593 543 576 523 l 437 523 l 437 963 l 358 963 l 358 523 l 294 523 b 192 626 219 523 203 543 l 170 838 b 46 966 159 927 124 966 l 9 966 l 9 884 l 25 884 b 85 818 54 884 79 865 l 108 616 b 220 488 118 538 153 493 l 267 485 l 267 478 l 220 475 b 108 351 153 470 117 427 l 85 145 b 25 79 79 98 54 79 l 9 79 z "},"Қ":{"ha":814,"x_min":0,"x_max":0,"o":"m 106 0 l 192 0 l 192 440 l 369 440 b 498 326 440 440 473 406 l 568 123 b 692 -2 591 41 629 5 l 692 -197 l 776 -197 l 776 81 l 734 81 b 650 150 689 81 666 101 l 587 340 b 414 478 557 433 511 478 l 407 478 l 407 486 l 414 486 b 583 623 509 486 553 531 l 646 814 b 730 883 663 863 684 883 l 751 883 l 751 967 l 720 967 b 565 841 637 967 593 935 l 496 638 b 369 523 471 557 438 523 l 192 523 l 192 963 l 106 963 z "},"Ң":{"ha":814,"x_min":0,"x_max":0,"o":"m 685 -197 l 768 -197 l 768 83 l 708 83 l 708 963 l 622 963 l 622 521 l 192 521 l 192 963 l 106 963 l 106 0 l 192 0 l 192 438 l 622 438 l 622 0 l 685 0 z "},"Ү":{"ha":814,"x_min":0,"x_max":0,"o":"m 364 0 l 450 0 l 450 344 l 786 963 l 692 963 l 411 434 l 403 434 l 122 963 l 28 963 l 364 344 z "},"Ұ":{"ha":814,"x_min":0,"x_max":0,"o":"m 174 223 l 364 223 l 364 0 l 450 0 l 450 223 l 642 223 l 642 306 l 450 306 l 450 344 l 786 963 l 692 963 l 411 434 l 403 434 l 122 963 l 28 963 l 364 344 l 364 306 l 174 306 z "},"Ҳ":{"ha":814,"x_min":0,"x_max":0,"o":"m 692 -197 l 776 -197 l 776 83 l 705 83 l 450 476 l 759 963 l 662 963 l 407 545 l 152 963 l 55 963 l 363 476 l 55 0 l 152 0 l 407 408 l 662 0 l 692 0 z "},"Ҷ":{"ha":814,"x_min":0,"x_max":0,"o":"m 661 -197 l 744 -197 l 744 83 l 683 83 l 683 963 l 597 963 l 597 471 l 368 471 b 167 713 227 471 167 543 l 167 963 l 81 963 l 81 713 b 368 388 81 485 167 388 l 597 388 l 597 0 l 661 0 z "},"Һ":{"ha":814,"x_min":0,"x_max":0,"o":"m 622 0 l 708 0 l 708 268 b 420 570 708 480 623 570 l 192 570 l 192 963 l 106 963 l 106 0 l 192 0 l 192 488 l 420 488 b 622 268 562 488 622 422 z "},"Ӏ":{"ha":814,"x_min":0,"x_max":0,"o":"m 125 0 l 689 0 l 689 83 l 449 83 l 449 880 l 689 880 l 689 963 l 125 963 l 125 880 l 363 880 l 363 83 l 125 83 z "},"Ә":{"ha":814,"x_min":0,"x_max":0,"o":"m 407 -14 b 751 475 635 -14 751 148 b 339 977 751 810 612 977 b 125 945 265 977 193 966 l 140 865 b 339 895 201 884 269 895 b 661 519 543 895 650 770 l 66 519 b 63 439 64 494 63 467 b 407 -14 63 136 178 -14 z m 661 435 b 407 68 652 190 568 68 b 153 435 238 68 153 190 z "},"Ӣ":{"ha":814,"x_min":0,"x_max":0,"o":"m 111 0 l 209 0 l 605 802 l 618 802 l 618 0 l 703 0 l 703 963 l 605 963 l 209 161 l 195 161 l 195 963 l 111 963 z m 144 1094 l 669 1094 l 669 1177 l 144 1177 z "},"Ө":{"ha":814,"x_min":0,"x_max":0,"o":"m 407 -14 b 751 475 635 -14 751 148 b 407 977 751 810 635 977 b 62 475 178 977 62 810 b 407 -14 62 148 178 -14 z m 407 64 b 152 438 244 64 159 189 l 662 438 b 407 64 654 189 570 64 z m 152 521 b 407 895 161 770 246 895 b 662 521 568 895 652 770 z "},"Ӯ":{"ha":814,"x_min":0,"x_max":0,"o":"m 142 0 b 543 262 372 0 474 66 l 780 963 l 687 963 l 473 300 b 454 250 467 282 460 265 l 442 250 l 162 963 l 69 963 l 388 154 b 142 83 334 102 258 83 z m 172 1094 l 696 1094 l 696 1177 l 172 1177 z "},"а":{"ha":814,"x_min":0,"x_max":0,"o":"m 583 -7 l 774 0 l 774 67 l 651 78 l 651 413 b 312 724 651 623 547 720 l 178 726 l 164 642 l 317 639 b 563 427 486 635 563 573 l 563 396 b 391 408 515 404 456 408 b 76 180 184 408 76 330 b 303 -14 76 57 159 -14 b 567 152 445 -14 551 52 l 576 152 z m 563 321 l 563 254 b 311 66 563 151 460 66 b 165 185 218 66 165 109 b 389 330 165 282 239 330 b 563 321 446 330 510 330 z "},"б":{"ha":814,"x_min":0,"x_max":0,"o":"m 414 -14 b 731 319 616 -14 731 108 b 450 637 731 522 629 637 b 200 480 323 637 229 581 l 191 480 l 191 511 b 539 852 191 722 275 806 l 703 880 l 696 966 l 502 932 b 100 477 222 884 100 754 l 100 343 b 414 -14 100 105 205 -14 z m 425 70 b 195 312 280 70 195 159 b 427 554 195 465 281 554 b 640 312 560 554 640 465 b 425 70 640 159 559 70 z "},"в":{"ha":814,"x_min":0,"x_max":0,"o":"m 132 0 l 525 0 b 731 188 656 0 731 68 b 510 369 731 303 650 369 l 505 369 l 505 377 b 704 536 631 379 704 436 b 483 719 704 652 623 719 l 132 719 z m 222 83 l 222 334 l 476 334 b 637 201 578 334 637 286 b 508 83 637 126 590 83 z m 222 412 l 222 635 l 471 635 b 610 527 559 635 610 595 b 458 412 610 454 555 412 z "},"г":{"ha":814,"x_min":0,"x_max":0,"o":"m 196 0 l 286 0 l 286 635 l 686 635 l 686 719 l 196 719 z "},"ѓ":{"ha":814,"x_min":0,"x_max":0,"o":"m 196 0 l 286 0 l 286 635 l 686 635 l 686 719 l 196 719 z m 420 846 l 509 846 l 665 1104 l 567 1104 z "},"ґ":{"ha":814,"x_min":0,"x_max":0,"o":"m 196 0 l 286 0 l 286 635 l 699 635 l 699 895 l 611 895 l 611 719 l 196 719 z "},"д":{"ha":814,"x_min":0,"x_max":0,"o":"m 38 -183 l 125 -183 l 125 0 l 668 0 l 668 -183 l 755 -183 l 755 83 l 672 83 l 672 719 l 171 719 l 171 457 b 96 83 171 292 149 171 l 38 83 z m 581 83 l 191 83 b 256 462 237 179 256 303 l 256 635 l 581 635 z "},"е":{"ha":814,"x_min":0,"x_max":0,"o":"m 477 -14 b 675 5 541 -14 612 -7 l 663 89 b 493 70 608 77 547 70 b 192 328 314 70 207 163 l 707 328 b 711 399 709 347 711 372 b 417 732 711 612 603 732 b 103 366 218 732 103 599 b 477 -14 103 124 239 -14 z m 192 406 b 418 649 203 560 285 649 b 624 406 549 649 624 561 z "},"ѐ":{"ha":814,"x_min":0,"x_max":0,"o":"m 477 -14 b 675 5 541 -14 612 -7 l 663 89 b 493 70 608 77 547 70 b 192 328 314 70 207 163 l 707 328 b 711 399 709 347 711 372 b 417 732 711 612 603 732 b 103 366 218 732 103 599 b 477 -14 103 124 239 -14 z m 192 406 b 418 649 203 560 285 649 b 624 406 549 649 624 561 z m 386 846 l 475 846 l 328 1104 l 230 1104 z "},"ё":{"ha":814,"x_min":0,"x_max":0,"o":"m 477 -14 b 675 5 541 -14 612 -7 l 663 89 b 493 70 608 77 547 70 b 192 328 314 70 207 163 l 707 328 b 711 399 709 347 711 372 b 417 732 711 612 603 732 b 103 366 218 732 103 599 b 477 -14 103 124 239 -14 z m 192 406 b 418 649 203 560 285 649 b 624 406 549 649 624 561 z m 273 855 b 348 930 314 855 348 889 b 273 1006 348 972 314 1006 b 197 930 231 1006 197 972 b 273 855 197 889 231 855 z m 557 855 b 633 930 599 855 633 889 b 557 1006 633 972 599 1006 b 482 930 516 1006 482 972 b 557 855 482 889 516 855 z "},"ж":{"ha":814,"x_min":0,"x_max":0,"o":"m 25 -7 l 61 -7 b 176 87 125 -7 166 24 l 217 258 b 286 319 225 300 243 319 l 366 319 l 366 0 l 448 0 l 448 319 l 528 319 b 597 258 570 319 589 300 l 637 87 b 753 -7 648 24 689 -7 l 789 -7 l 789 77 l 764 77 b 715 117 740 77 720 90 l 672 285 b 581 353 664 330 632 351 l 575 353 l 575 366 l 581 366 b 672 434 632 368 664 389 l 715 602 b 764 642 720 629 740 642 l 789 642 l 789 726 l 753 726 b 637 631 689 726 648 694 l 597 461 b 528 399 589 418 570 399 l 448 399 l 448 719 l 366 719 l 366 399 l 286 399 b 217 461 243 399 225 418 l 176 631 b 61 726 166 694 125 726 l 25 726 l 25 642 l 50 642 b 99 602 74 642 94 629 l 142 434 b 233 366 150 389 182 368 l 239 366 l 239 353 l 233 353 b 142 285 182 351 150 330 l 99 117 b 50 77 94 90 74 77 l 25 77 z "},"з":{"ha":814,"x_min":0,"x_max":0,"o":"m 377 -14 b 692 197 579 -14 692 62 b 475 374 692 299 618 359 l 475 382 b 664 538 619 393 664 467 b 346 732 664 668 550 732 b 146 715 256 732 210 726 l 157 634 b 331 649 233 645 270 649 b 571 524 488 649 571 606 b 301 412 571 452 534 412 l 272 412 l 279 335 l 299 335 b 599 205 503 335 599 291 b 372 70 599 116 521 70 b 131 139 300 70 201 87 l 84 72 b 377 -14 159 3 269 -14 z "},"и":{"ha":814,"x_min":0,"x_max":0,"o":"m 125 0 l 218 0 l 585 581 l 599 581 l 599 0 l 689 0 l 689 719 l 595 719 l 229 138 l 215 138 l 215 719 l 125 719 z "},"й":{"ha":814,"x_min":0,"x_max":0,"o":"m 125 0 l 218 0 l 585 581 l 599 581 l 599 0 l 689 0 l 689 719 l 595 719 l 229 138 l 215 138 l 215 719 l 125 719 z m 407 840 b 631 1087 560 840 631 920 l 547 1087 b 407 911 547 967 511 911 b 267 1087 305 911 267 964 l 182 1087 b 407 840 182 921 252 840 z "},"ѝ":{"ha":814,"x_min":0,"x_max":0,"o":"m 125 0 l 218 0 l 585 581 l 599 581 l 599 0 l 689 0 l 689 719 l 595 719 l 229 138 l 215 138 l 215 719 l 125 719 z m 379 846 l 468 846 l 321 1104 l 223 1104 z "},"к":{"ha":814,"x_min":0,"x_max":0,"o":"m 118 0 l 208 0 l 208 317 l 387 317 b 472 258 432 317 456 298 l 544 83 b 684 -3 570 18 610 -3 l 716 -3 l 716 80 l 692 80 b 631 117 661 80 642 90 l 566 273 b 443 355 543 328 503 355 l 442 355 l 442 364 b 562 446 500 365 539 392 l 627 602 b 687 639 638 629 656 639 l 714 639 l 714 722 l 682 722 b 544 636 607 722 570 701 l 472 461 b 387 401 456 420 432 401 l 208 401 l 208 719 l 118 719 z "},"ќ":{"ha":814,"x_min":0,"x_max":0,"o":"m 118 0 l 208 0 l 208 317 l 387 317 b 472 258 432 317 456 298 l 544 83 b 684 -3 570 18 610 -3 l 716 -3 l 716 80 l 692 80 b 631 117 661 80 642 90 l 566 273 b 443 355 543 328 503 355 l 442 355 l 442 364 b 562 446 500 365 539 392 l 627 602 b 687 639 638 629 656 639 l 714 639 l 714 722 l 682 722 b 544 636 607 722 570 701 l 472 461 b 387 401 456 420 432 401 l 208 401 l 208 719 l 118 719 z m 345 846 l 434 846 l 590 1104 l 492 1104 z "},"л":{"ha":814,"x_min":0,"x_max":0,"o":"m 54 0 b 279 294 218 0 279 80 l 279 635 l 603 635 l 603 0 l 693 0 l 693 719 l 195 719 l 195 290 b 54 83 195 140 156 83 z "},"м":{"ha":814,"x_min":0,"x_max":0,"o":"m 98 0 l 186 0 l 186 621 l 195 621 l 360 149 l 454 149 l 619 621 l 627 621 l 627 0 l 715 0 l 715 719 l 576 719 l 410 242 l 404 242 l 238 719 l 98 719 z "},"н":{"ha":814,"x_min":0,"x_max":0,"o":"m 599 0 l 689 0 l 689 719 l 599 719 l 599 399 l 215 399 l 215 719 l 125 719 l 125 0 l 215 0 l 215 319 l 599 319 z "},"о":{"ha":814,"x_min":0,"x_max":0,"o":"m 407 -14 b 711 359 599 -14 711 122 b 407 732 711 597 599 732 b 103 359 215 732 103 597 b 407 -14 103 122 215 -14 z m 407 71 b 196 359 273 71 196 176 b 407 648 196 543 273 648 b 618 359 541 648 618 543 b 407 71 618 176 541 71 z "},"п":{"ha":814,"x_min":0,"x_max":0,"o":"m 599 0 l 689 0 l 689 719 l 125 719 l 125 0 l 215 0 l 215 635 l 599 635 z "},"р":{"ha":814,"x_min":0,"x_max":0,"o":"m 125 -312 l 215 -312 l 215 157 l 224 157 b 451 -14 242 51 317 -14 b 738 353 640 -14 738 112 b 448 732 738 602 639 732 b 221 568 320 732 240 675 l 214 568 l 201 719 l 125 719 z m 215 349 l 215 370 b 432 650 215 554 290 650 b 647 353 574 650 647 549 b 431 68 647 166 573 68 b 215 349 289 68 215 165 z "},"с":{"ha":814,"x_min":0,"x_max":0,"o":"m 476 -14 b 705 9 551 -14 631 -9 l 694 92 b 484 71 626 79 555 71 b 195 368 295 71 195 173 b 452 648 195 547 290 648 b 659 532 537 648 612 614 l 733 583 b 457 732 692 678 591 732 b 103 361 230 732 103 595 b 476 -14 103 116 233 -14 z "},"т":{"ha":814,"x_min":0,"x_max":0,"o":"m 361 0 l 452 0 l 452 635 l 742 635 l 742 719 l 72 719 l 72 635 l 361 635 z "},"у":{"ha":814,"x_min":0,"x_max":0,"o":"m 62 -326 l 142 -315 b 498 64 304 -294 401 -195 l 745 719 l 648 719 l 426 98 b 418 77 423 90 420 83 l 412 77 l 146 719 l 48 719 l 353 0 l 386 0 b 125 -231 316 -151 239 -214 l 58 -241 z "},"ў":{"ha":814,"x_min":0,"x_max":0,"o":"m 62 -326 l 142 -315 b 498 64 304 -294 401 -195 l 745 719 l 648 719 l 426 98 b 418 77 423 90 420 83 l 412 77 l 146 719 l 48 719 l 353 0 l 386 0 b 125 -231 316 -151 239 -214 l 58 -241 z m 417 840 b 642 1087 570 840 642 920 l 557 1087 b 417 911 557 967 521 911 b 277 1087 315 911 277 964 l 193 1087 b 417 840 193 921 262 840 z "},"ф":{"ha":814,"x_min":0,"x_max":0,"o":"m 589 -14 b 772 353 718 -14 772 96 b 587 732 772 619 718 732 b 460 595 511 732 468 687 l 453 595 l 453 1017 l 365 1017 l 365 595 l 358 595 b 227 732 350 687 306 732 b 41 353 96 732 41 619 b 225 -14 41 96 96 -14 b 358 96 300 -14 352 23 l 365 96 l 365 -298 l 453 -298 l 453 96 l 460 96 b 589 -14 466 23 516 -14 z m 368 404 l 368 231 b 262 68 368 123 334 68 b 132 353 171 68 132 153 b 260 650 132 562 171 650 b 368 404 332 650 368 569 z m 450 231 l 450 404 b 553 650 450 569 484 650 b 682 353 643 650 682 562 b 552 68 682 153 643 68 b 450 231 483 68 450 123 z "},"х":{"ha":814,"x_min":0,"x_max":0,"o":"m 83 0 l 191 0 l 407 290 l 623 0 l 731 0 l 459 359 l 731 719 l 623 719 l 408 427 l 191 719 l 83 719 l 357 357 z "},"ч":{"ha":814,"x_min":0,"x_max":0,"o":"m 355 277 l 587 277 l 587 0 l 677 0 l 677 719 l 587 719 l 587 357 l 359 357 b 177 558 237 357 177 424 l 177 719 l 86 719 l 86 558 b 355 277 86 370 175 277 z "},"ц":{"ha":814,"x_min":0,"x_max":0,"o":"m 106 0 l 668 0 l 668 -183 l 755 -183 l 755 83 l 675 83 l 675 719 l 584 719 l 584 83 l 196 83 l 196 719 l 106 719 z "},"ш":{"ha":814,"x_min":0,"x_max":0,"o":"m 87 0 l 727 0 l 727 719 l 637 719 l 637 81 l 448 81 l 448 719 l 365 719 l 365 81 l 177 81 l 177 719 l 87 719 z "},"щ":{"ha":814,"x_min":0,"x_max":0,"o":"m 87 0 l 687 0 l 687 -183 l 774 -183 l 774 81 l 724 81 l 724 719 l 634 719 l 634 81 l 440 81 l 440 719 l 359 719 l 359 81 l 177 81 l 177 719 l 87 719 z "},"џ":{"ha":814,"x_min":0,"x_max":0,"o":"m 367 -183 l 455 -183 l 455 0 l 686 0 l 686 719 l 595 719 l 595 80 l 218 80 l 218 719 l 128 719 l 128 0 l 367 0 z "},"ь":{"ha":814,"x_min":0,"x_max":0,"o":"m 138 0 l 505 0 b 738 231 653 0 738 84 b 505 463 738 379 653 463 l 229 463 l 229 719 l 138 719 z m 229 83 l 229 379 l 490 379 b 645 231 589 379 645 326 b 490 83 645 138 589 83 z "},"ъ":{"ha":814,"x_min":0,"x_max":0,"o":"m 195 0 l 482 0 b 738 231 645 0 738 84 b 482 463 738 379 645 463 l 284 463 l 284 719 l 11 719 l 11 635 l 195 635 z m 284 83 l 284 379 l 472 379 b 645 231 582 379 645 326 b 472 83 645 138 582 83 z "},"ы":{"ha":814,"x_min":0,"x_max":0,"o":"m 87 0 l 274 0 b 507 234 422 0 507 85 b 274 467 507 382 422 467 l 177 467 l 177 719 l 87 719 z m 177 79 l 177 389 l 264 389 b 420 234 363 389 420 332 b 264 79 420 135 363 79 z m 637 0 l 727 0 l 727 719 l 637 719 z "},"љ":{"ha":814,"x_min":0,"x_max":0,"o":"m 54 0 b 240 202 189 0 240 55 l 240 639 l 410 639 l 410 0 l 570 0 b 783 243 706 0 783 88 b 570 486 783 397 706 486 l 495 486 l 495 719 l 156 719 l 156 197 b 54 83 156 115 127 83 z m 495 83 l 495 402 l 558 402 b 694 243 645 402 694 345 b 558 83 694 141 645 83 z "},"њ":{"ha":814,"x_min":0,"x_max":0,"o":"m 71 0 l 161 0 l 161 366 l 389 366 l 389 0 l 566 0 b 783 227 709 0 783 78 b 566 446 783 371 709 446 l 475 446 l 475 719 l 389 719 l 389 446 l 161 446 l 161 719 l 71 719 z m 475 83 l 475 366 l 558 366 b 694 227 648 366 694 319 b 558 83 694 132 648 83 z "},"ѕ":{"ha":814,"x_min":0,"x_max":0,"o":"m 351 -14 b 697 189 594 -14 697 47 b 488 391 697 295 635 355 l 359 422 b 220 529 262 446 220 479 b 495 648 220 612 302 648 b 668 638 543 648 595 645 l 678 719 b 499 732 612 728 562 732 b 127 527 238 732 127 672 b 326 341 127 432 186 376 l 488 300 b 604 189 569 280 604 245 b 351 71 604 106 528 71 b 127 93 287 71 220 78 l 117 7 b 351 -14 176 -7 246 -14 z "},"є":{"ha":814,"x_min":0,"x_max":0,"o":"m 463 -14 b 705 9 542 -14 627 -9 l 694 92 b 479 71 625 79 552 71 b 196 321 311 71 212 158 l 532 321 l 532 401 l 195 401 b 452 648 207 559 300 648 b 659 532 537 648 612 614 l 733 583 b 457 732 692 678 591 732 b 103 361 230 732 103 595 b 463 -14 103 119 233 -14 z "},"э":{"ha":814,"x_min":0,"x_max":0,"o":"m 357 -14 b 711 358 584 -14 711 123 b 324 732 711 600 571 732 b 160 721 261 732 206 728 l 153 635 b 308 648 208 644 258 648 b 617 401 490 648 599 562 l 282 401 l 282 321 l 619 321 b 362 71 609 161 515 71 b 147 140 273 71 195 103 l 100 70 b 357 -14 152 23 245 -14 z "},"і":{"ha":814,"x_min":0,"x_max":0,"o":"m 119 0 l 736 0 l 736 80 l 500 80 l 500 719 l 160 719 l 160 639 l 409 639 l 409 80 l 119 80 z m 448 876 b 526 954 491 876 526 911 b 448 1033 526 998 491 1033 b 369 954 404 1033 369 998 b 448 876 369 911 404 876 z "},"ї":{"ha":814,"x_min":0,"x_max":0,"o":"m 119 0 l 736 0 l 736 80 l 500 80 l 500 719 l 160 719 l 160 639 l 409 639 l 409 80 l 119 80 z m 300 855 b 375 930 341 855 375 889 b 300 1006 375 972 341 1006 b 224 930 258 1006 224 972 b 300 855 224 889 258 855 z m 585 855 b 660 930 626 855 660 889 b 585 1006 660 972 626 1006 b 509 930 543 1006 509 972 b 585 855 509 889 543 855 z "},"ј":{"ha":814,"x_min":0,"x_max":0,"o":"m 130 -326 l 237 -317 b 591 64 486 -298 591 -193 l 591 719 l 187 719 l 187 639 l 501 639 l 501 42 b 251 -233 501 -138 427 -216 l 126 -244 z m 532 876 b 611 954 576 876 611 911 b 532 1033 611 998 576 1033 b 454 954 489 1033 454 998 b 532 876 454 911 489 876 z "},"ћ":{"ha":814,"x_min":0,"x_max":0,"o":"m 599 0 l 689 0 l 689 387 b 452 633 689 543 603 633 b 252 507 342 633 275 591 l 242 507 l 242 796 l 522 796 l 522 876 l 242 876 l 242 1017 l 152 1017 l 152 876 l 12 876 l 12 796 l 152 796 l 152 0 l 242 0 l 242 323 b 436 551 242 475 307 551 b 599 387 538 551 599 492 z "},"ю":{"ha":814,"x_min":0,"x_max":0,"o":"m 525 -14 b 751 353 684 -14 751 96 b 525 732 751 619 684 732 b 303 397 377 732 311 632 l 172 397 l 172 719 l 85 719 l 85 0 l 172 0 l 172 317 l 303 317 b 525 -14 309 85 376 -14 z m 522 62 b 385 353 426 62 385 149 b 522 656 385 566 426 656 b 661 353 618 656 661 566 b 522 62 661 149 618 62 z "},"я":{"ha":814,"x_min":0,"x_max":0,"o":"m 323 300 l 382 300 l 382 290 l 378 290 b 263 214 326 290 293 267 l 232 159 b 108 81 202 105 167 81 l 96 81 l 96 -3 l 119 -3 b 321 134 221 -3 269 35 l 351 189 b 474 267 380 245 406 267 l 595 267 l 595 0 l 686 0 l 686 719 l 378 719 b 116 503 211 719 116 640 b 323 300 116 374 191 300 z m 595 351 l 378 351 b 209 490 270 351 209 401 b 378 635 209 583 270 635 l 595 635 z "},"ђ":{"ha":814,"x_min":0,"x_max":0,"o":"m 152 0 l 242 0 l 242 323 b 436 551 242 475 307 551 b 599 387 538 551 599 492 l 599 -10 b 455 -233 599 -156 556 -224 l 362 -244 l 366 -326 l 441 -317 b 689 -2 616 -304 689 -214 l 689 387 b 452 633 689 543 603 633 b 252 507 342 633 275 591 l 242 507 l 242 796 l 522 796 l 522 876 l 242 876 l 242 1017 l 152 1017 l 152 876 l 12 876 l 12 796 l 152 796 z "},"ғ":{"ha":814,"x_min":0,"x_max":0,"o":"m 49 306 l 196 306 l 196 0 l 286 0 l 286 306 l 500 306 l 500 386 l 286 386 l 286 635 l 686 635 l 686 719 l 196 719 l 196 386 l 49 386 z "},"җ":{"ha":814,"x_min":0,"x_max":0,"o":"m 27 -5 l 63 -5 b 181 90 128 -5 171 26 l 222 258 b 306 319 230 300 248 319 l 359 319 l 359 0 l 436 0 l 436 319 l 490 319 b 574 258 547 319 566 300 l 615 90 b 702 -3 623 37 654 6 l 702 -183 l 789 -183 l 789 83 l 739 83 b 692 120 716 83 697 96 l 650 285 b 553 353 642 330 607 351 l 548 353 l 548 366 l 553 366 b 650 434 607 368 642 389 l 692 600 b 739 641 698 627 716 641 l 768 641 l 768 724 l 732 724 b 615 629 667 724 625 692 l 574 461 b 490 399 566 418 547 399 l 436 399 l 436 719 l 359 719 l 359 399 l 306 399 b 222 461 248 399 230 418 l 181 629 b 63 724 171 692 128 724 l 27 724 l 27 641 l 56 641 b 103 600 80 641 98 627 l 146 434 b 242 366 155 389 189 368 l 248 366 l 248 353 l 242 353 b 146 285 189 351 155 330 l 103 119 b 56 78 98 92 80 78 l 27 78 z "},"қ":{"ha":814,"x_min":0,"x_max":0,"o":"m 118 0 l 208 0 l 208 317 l 387 317 b 472 258 432 317 456 298 l 544 83 b 684 -3 570 18 610 -3 l 686 -3 l 686 -183 l 773 -183 l 773 83 l 692 83 b 631 117 661 83 642 92 l 566 273 b 443 355 543 328 503 355 l 442 355 l 442 364 b 562 446 500 365 539 392 l 627 602 b 687 639 638 629 656 639 l 714 639 l 714 722 l 682 722 b 544 636 607 722 570 701 l 472 461 b 387 401 456 420 432 401 l 208 401 l 208 719 l 118 719 z "},"ң":{"ha":814,"x_min":0,"x_max":0,"o":"m 673 -183 l 761 -183 l 761 83 l 689 83 l 689 719 l 599 719 l 599 399 l 215 399 l 215 719 l 125 719 l 125 0 l 215 0 l 215 319 l 599 319 l 599 0 l 673 0 z "},"ү":{"ha":814,"x_min":0,"x_max":0,"o":"m 361 -312 l 452 -312 l 452 14 l 749 719 l 652 719 l 407 119 l 162 719 l 65 719 l 361 14 z "},"ұ":{"ha":814,"x_min":0,"x_max":0,"o":"m 146 -80 l 361 -80 l 361 -312 l 452 -312 l 452 -80 l 669 -80 l 669 0 l 452 0 l 452 14 l 749 719 l 652 719 l 407 119 l 162 719 l 65 719 l 361 14 l 361 0 l 146 0 z "},"ҳ":{"ha":814,"x_min":0,"x_max":0,"o":"m 669 -183 l 758 -183 l 758 83 l 669 83 l 669 83 l 459 359 l 731 719 l 623 719 l 408 427 l 191 719 l 83 719 l 357 357 l 83 0 l 191 0 l 407 290 l 623 0 l 669 0 z "},"ҷ":{"ha":814,"x_min":0,"x_max":0,"o":"m 647 -183 l 734 -183 l 734 83 l 677 83 l 677 719 l 587 719 l 587 357 l 359 357 b 177 558 237 357 177 424 l 177 719 l 86 719 l 86 558 b 355 277 86 370 175 277 l 587 277 l 587 0 l 647 0 z "},"һ":{"ha":814,"x_min":0,"x_max":0,"o":"m 599 0 l 689 0 l 689 468 b 435 732 689 636 596 732 b 223 589 313 732 243 685 l 215 589 l 215 1017 l 125 1017 l 125 0 l 215 0 l 215 406 b 427 650 215 570 287 650 b 599 470 535 650 599 585 z "},"ӏ":{"ha":814,"x_min":0,"x_max":0,"o":"m 119 0 l 736 0 l 736 80 l 500 80 l 500 719 l 160 719 l 160 639 l 409 639 l 409 80 l 119 80 z "},"ә":{"ha":814,"x_min":0,"x_max":0,"o":"m 397 -14 b 711 353 596 -14 711 120 b 337 732 711 595 575 732 b 138 709 273 732 201 726 l 151 627 b 321 649 206 641 267 649 b 622 391 500 649 607 556 l 107 391 b 103 320 104 372 103 347 b 397 -14 103 107 211 -14 z m 622 313 b 395 70 610 159 529 70 b 190 313 265 70 190 158 z "},"ӣ":{"ha":814,"x_min":0,"x_max":0,"o":"m 125 0 l 218 0 l 585 581 l 599 581 l 599 0 l 689 0 l 689 719 l 595 719 l 229 138 l 215 138 l 215 719 l 125 719 z m 127 846 l 687 846 l 687 930 l 127 930 z "},"ө":{"ha":814,"x_min":0,"x_max":0,"o":"m 407 -14 b 711 359 599 -14 711 122 b 407 732 711 597 599 732 b 103 359 215 732 103 597 b 407 -14 103 122 215 -14 z m 407 71 b 197 321 282 71 208 161 l 616 321 b 407 71 606 161 532 71 z m 197 398 b 407 648 208 557 282 648 b 616 398 532 648 606 557 z "},"ӯ":{"ha":814,"x_min":0,"x_max":0,"o":"m 62 -326 l 142 -315 b 498 64 304 -294 401 -195 l 745 719 l 648 719 l 426 98 b 418 77 423 90 420 83 l 412 77 l 146 719 l 48 719 l 353 0 l 386 0 b 125 -231 316 -151 239 -214 l 58 -241 z m 137 846 l 697 846 l 697 930 l 137 930 z "},"Α":{"ha":814,"x_min":0,"x_max":0,"o":"m 41 0 l 130 0 l 210 258 l 604 258 l 684 0 l 772 0 l 469 963 l 345 963 z m 235 340 l 403 889 l 411 889 l 579 340 z "},"Β":{"ha":814,"x_min":0,"x_max":0,"o":"m 119 0 l 459 0 b 758 260 650 0 758 94 b 475 508 758 415 656 505 l 475 515 b 690 724 613 525 690 600 b 395 963 690 876 583 963 l 119 963 z m 205 83 l 205 467 l 447 467 b 669 267 588 467 669 394 b 447 83 669 150 588 83 z m 205 550 l 205 880 l 397 880 b 602 719 527 880 602 822 b 397 550 602 612 527 550 z "},"Γ":{"ha":814,"x_min":0,"x_max":0,"o":"m 133 0 l 219 0 l 219 880 l 728 880 l 728 963 l 133 963 z "},"Δ":{"ha":814,"x_min":0,"x_max":0,"o":"m 41 0 l 772 0 l 473 963 l 341 963 z m 157 83 l 403 892 l 411 892 l 657 83 z "},"Ε":{"ha":814,"x_min":0,"x_max":0,"o":"m 119 0 l 735 0 l 735 83 l 205 83 l 205 441 l 613 441 l 613 524 l 205 524 l 205 880 l 735 880 l 735 963 l 119 963 z "},"Ζ":{"ha":814,"x_min":0,"x_max":0,"o":"m 113 0 l 715 0 l 715 83 l 211 83 l 701 880 l 701 963 l 113 963 l 113 880 l 602 880 l 113 83 z "},"Η":{"ha":814,"x_min":0,"x_max":0,"o":"m 622 0 l 708 0 l 708 963 l 622 963 l 622 521 l 192 521 l 192 963 l 106 963 l 106 0 l 192 0 l 192 438 l 622 438 z "},"Θ":{"ha":814,"x_min":0,"x_max":0,"o":"m 407 -14 b 751 475 635 -14 751 148 b 407 977 751 810 635 977 b 62 475 178 977 62 810 b 407 -14 62 148 178 -14 z m 407 64 b 152 440 244 64 159 189 l 662 440 b 407 64 655 189 570 64 z m 152 523 b 407 895 161 771 247 895 b 662 523 567 895 652 771 z "},"Ι":{"ha":814,"x_min":0,"x_max":0,"o":"m 125 0 l 689 0 l 689 83 l 449 83 l 449 880 l 689 880 l 689 963 l 125 963 l 125 880 l 363 880 l 363 83 l 125 83 z "},"Κ":{"ha":814,"x_min":0,"x_max":0,"o":"m 113 0 l 199 0 l 199 326 b 469 403 303 330 393 357 l 673 0 l 777 0 l 543 458 b 731 963 665 570 731 747 l 643 963 b 199 410 643 640 488 419 l 199 963 l 113 963 z "},"Λ":{"ha":814,"x_min":0,"x_max":0,"o":"m 41 0 l 132 0 l 403 889 l 411 889 l 682 0 l 772 0 l 469 963 l 345 963 z "},"Μ":{"ha":814,"x_min":0,"x_max":0,"o":"m 98 0 l 182 0 l 182 866 l 192 866 l 361 429 l 453 429 l 622 866 l 632 866 l 632 0 l 716 0 l 716 963 l 578 963 l 410 522 l 404 522 l 235 963 l 98 963 z "},"Ν":{"ha":814,"x_min":0,"x_max":0,"o":"m 579 0 l 703 0 l 703 963 l 618 963 l 618 117 l 611 117 l 235 963 l 111 963 l 111 0 l 195 0 l 195 846 l 203 846 z "},"Ξ":{"ha":814,"x_min":0,"x_max":0,"o":"m 79 0 l 735 0 l 735 83 l 79 83 z m 79 880 l 735 880 l 735 963 l 79 963 z m 131 441 l 683 441 l 683 524 l 131 524 z "},"Ο":{"ha":814,"x_min":0,"x_max":0,"o":"m 407 -14 b 751 475 635 -14 751 148 b 407 977 751 810 635 977 b 62 475 178 977 62 810 b 407 -14 62 148 178 -14 z m 407 64 b 151 475 237 64 151 201 b 407 895 151 755 237 895 b 663 475 577 895 663 755 b 407 64 663 201 577 64 z "},"Π":{"ha":814,"x_min":0,"x_max":0,"o":"m 622 0 l 708 0 l 708 963 l 106 963 l 106 0 l 192 0 l 192 880 l 622 880 z "},"Ρ":{"ha":814,"x_min":0,"x_max":0,"o":"m 119 0 l 205 0 l 205 321 l 401 321 b 749 646 625 321 749 437 b 401 963 749 850 625 963 l 119 963 z m 205 404 l 205 880 l 401 880 b 660 646 567 880 660 797 b 401 404 660 490 567 404 z "},"Σ":{"ha":814,"x_min":0,"x_max":0,"o":"m 113 0 l 715 0 l 715 81 l 221 81 l 556 484 l 225 880 l 701 880 l 701 963 l 113 963 l 113 880 l 441 484 l 113 81 z "},"Τ":{"ha":814,"x_min":0,"x_max":0,"o":"m 364 0 l 450 0 l 450 880 l 749 880 l 749 963 l 65 963 l 65 880 l 364 880 z "},"Υ":{"ha":814,"x_min":0,"x_max":0,"o":"m 364 0 l 450 0 l 450 344 l 786 963 l 692 963 l 411 434 l 403 434 l 122 963 l 28 963 l 364 344 z "},"Φ":{"ha":814,"x_min":0,"x_max":0,"o":"m 367 -14 l 446 -14 l 446 87 b 758 481 653 101 758 231 b 446 889 758 739 653 875 l 446 990 l 367 990 l 367 889 b 56 481 160 874 56 739 b 367 87 56 232 160 102 z m 444 811 b 671 481 595 797 671 688 b 444 165 671 284 595 179 z m 369 165 b 142 481 218 180 142 285 b 369 811 142 687 218 796 z "},"Χ":{"ha":814,"x_min":0,"x_max":0,"o":"m 662 0 l 759 0 l 450 476 l 759 963 l 662 963 l 407 545 l 152 963 l 55 963 l 363 476 l 55 0 l 152 0 l 407 408 z "},"Ψ":{"ha":814,"x_min":0,"x_max":0,"o":"m 363 317 b 149 576 220 330 149 417 l 149 963 l 62 963 l 62 576 b 363 234 62 361 163 248 l 363 0 l 449 0 l 449 234 b 751 576 650 248 751 361 l 751 963 l 665 963 l 665 576 b 449 317 665 416 593 330 l 449 963 l 363 963 z "},"Ω":{"ha":814,"x_min":0,"x_max":0,"o":"m 81 0 l 359 0 l 359 82 b 151 515 221 126 151 271 b 407 895 151 769 236 895 b 663 515 578 895 663 769 b 471 82 663 266 598 122 l 471 0 l 732 0 l 732 82 l 593 82 l 593 90 b 751 515 690 130 751 256 b 407 977 751 824 637 977 b 62 515 177 977 62 824 b 237 90 62 260 130 132 l 237 82 l 81 82 z "},"Ά":{"ha":814,"x_min":0,"x_max":0,"o":"m 208 0 l 298 0 l 348 258 l 600 258 l 650 0 l 740 0 l 540 963 l 408 963 z m 363 340 l 469 892 l 478 892 l 584 340 z m 33 705 l 109 705 l 188 963 l 94 963 z "},"Έ":{"ha":814,"x_min":0,"x_max":0,"o":"m 244 0 l 736 0 l 736 83 l 330 83 l 330 441 l 614 441 l 614 524 l 330 524 l 330 880 l 736 880 l 736 963 l 244 963 z m 10 705 l 86 705 l 165 963 l 71 963 z "},"Ή":{"ha":814,"x_min":0,"x_max":0,"o":"m 622 0 l 708 0 l 708 963 l 622 963 l 622 521 l 316 521 l 315 963 l 231 963 l 231 0 l 317 0 l 316 438 l 622 438 z m 10 705 l 86 705 l 165 963 l 71 963 z "},"Ί":{"ha":814,"x_min":0,"x_max":0,"o":"m 250 0 l 689 0 l 689 83 l 517 83 l 517 880 l 689 880 l 689 963 l 250 963 l 250 880 l 431 880 l 431 83 l 250 83 z m 10 705 l 86 705 l 165 963 l 71 963 z "},"Ό":{"ha":814,"x_min":0,"x_max":0,"o":"m 469 -14 b 751 475 657 -14 751 148 b 469 977 751 810 657 977 b 187 475 281 977 187 810 b 469 -14 187 148 281 -14 z m 469 64 b 276 475 341 64 276 201 b 469 895 276 755 341 895 b 663 475 597 895 663 755 b 469 64 663 201 597 64 z m 10 705 l 86 705 l 165 963 l 71 963 z "},"Ύ":{"ha":814,"x_min":0,"x_max":0,"o":"m 467 0 l 552 0 l 552 334 l 786 963 l 691 963 l 515 432 l 503 432 l 329 963 l 234 963 l 467 335 z m 10 705 l 86 705 l 165 963 l 71 963 z "}}}
